<svg xmlns="http://www.w3.org/2000/svg" viewBox="0 0 1000 240" width="100%" role="img" aria-label="animated market banner"><defs>
      <linearGradient id="bg" x1="0" y1="0" x2="0" y2="1">
        <stop offset="0" stop-color="#0f1420"/><stop offset="1" stop-color="#0a0d14"/>
      </linearGradient>
      <linearGradient id="glow" x1="0" y1="0" x2="1" y2="0">
        <stop offset="0" stop-color="#58a6ff" stop-opacity="0"/>
        <stop offset="1" stop-color="#58a6ff" stop-opacity="0.10"/>
      </linearGradient>
      <filter id="soft"><feGaussianBlur stdDeviation="0.4"/></filter>
    </defs><rect x="1" y="1" width="998" height="238" rx="16" fill="url(#bg)" stroke="#232b3a"/><rect x="1" y="1" width="998" height="238" rx="16" fill="url(#glow)"/><line x1="26" y1="102.0" x2="974" y2="102.0" stroke="#1b2230" stroke-width="1"/><line x1="26" y1="130.0" x2="974" y2="130.0" stroke="#1b2230" stroke-width="1"/><line x1="26" y1="158.0" x2="974" y2="158.0" stroke="#1b2230" stroke-width="1"/><line x1="26" y1="186.0" x2="974" y2="186.0" stroke="#1b2230" stroke-width="1"/><g opacity="0"><animate attributeName="opacity" from="0" to="1" begin="0.000s" dur="0.42s" fill="freeze"/><animateTransform attributeName="transform" type="translate" from="0 10" to="0 0" begin="0.000s" dur="0.42s" fill="freeze"/><line x1="36.3" y1="154.0" x2="36.3" y2="171.6" stroke="#f85149" stroke-width="1.4"/><rect x="30.3" y="154.0" width="12.0" height="17.6" rx="1.4" fill="#f85149"/></g><g opacity="0"><animate attributeName="opacity" from="0" to="1" begin="0.028s" dur="0.42s" fill="freeze"/><animateTransform attributeName="transform" type="translate" from="0 10" to="0 0" begin="0.028s" dur="0.42s" fill="freeze"/><line x1="56.9" y1="171.6" x2="56.9" y2="178.4" stroke="#f85149" stroke-width="1.4"/><rect x="50.9" y="171.6" width="12.0" height="4.2" rx="1.4" fill="#f85149"/></g><g opacity="0"><animate attributeName="opacity" from="0" to="1" begin="0.056s" dur="0.42s" fill="freeze"/><animateTransform attributeName="transform" type="translate" from="0 10" to="0 0" begin="0.056s" dur="0.42s" fill="freeze"/><line x1="77.5" y1="166.1" x2="77.5" y2="179.9" stroke="#3fb950" stroke-width="1.4"/><rect x="71.5" y="166.1" width="12.0" height="9.7" rx="1.4" fill="#3fb950"/></g><g opacity="0"><animate attributeName="opacity" from="0" to="1" begin="0.084s" dur="0.42s" fill="freeze"/><animateTransform attributeName="transform" type="translate" from="0 10" to="0 0" begin="0.084s" dur="0.42s" fill="freeze"/><line x1="98.1" y1="157.6" x2="98.1" y2="169.7" stroke="#3fb950" stroke-width="1.4"/><rect x="92.2" y="164.9" width="12.0" height="1.2" rx="1.4" fill="#3fb950"/></g><g opacity="0"><animate attributeName="opacity" from="0" to="1" begin="0.112s" dur="0.42s" fill="freeze"/><animateTransform attributeName="transform" type="translate" from="0 10" to="0 0" begin="0.112s" dur="0.42s" fill="freeze"/><line x1="118.7" y1="164.9" x2="118.7" y2="173.5" stroke="#f85149" stroke-width="1.4"/><rect x="112.8" y="164.9" width="12.0" height="1.8" rx="1.4" fill="#f85149"/></g><g opacity="0"><animate attributeName="opacity" from="0" to="1" begin="0.140s" dur="0.42s" fill="freeze"/><animateTransform attributeName="transform" type="translate" from="0 10" to="0 0" begin="0.140s" dur="0.42s" fill="freeze"/><line x1="139.3" y1="166.7" x2="139.3" y2="181.6" stroke="#f85149" stroke-width="1.4"/><rect x="133.4" y="166.7" width="12.0" height="14.1" rx="1.4" fill="#f85149"/></g><g opacity="0"><animate attributeName="opacity" from="0" to="1" begin="0.168s" dur="0.42s" fill="freeze"/><animateTransform attributeName="transform" type="translate" from="0 10" to="0 0" begin="0.168s" dur="0.42s" fill="freeze"/><line x1="160.0" y1="176.6" x2="160.0" y2="186.4" stroke="#3fb950" stroke-width="1.4"/><rect x="154.0" y="180.0" width="12.0" height="1.2" rx="1.4" fill="#3fb950"/></g><g opacity="0"><animate attributeName="opacity" from="0" to="1" begin="0.196s" dur="0.42s" fill="freeze"/><animateTransform attributeName="transform" type="translate" from="0 10" to="0 0" begin="0.196s" dur="0.42s" fill="freeze"/><line x1="180.6" y1="176.4" x2="180.6" y2="185.5" stroke="#f85149" stroke-width="1.4"/><rect x="174.6" y="180.0" width="12.0" height="3.1" rx="1.4" fill="#f85149"/></g><g opacity="0"><animate attributeName="opacity" from="0" to="1" begin="0.224s" dur="0.42s" fill="freeze"/><animateTransform attributeName="transform" type="translate" from="0 10" to="0 0" begin="0.224s" dur="0.42s" fill="freeze"/><line x1="201.2" y1="179.5" x2="201.2" y2="193.8" stroke="#f85149" stroke-width="1.4"/><rect x="195.2" y="183.1" width="12.0" height="2.6" rx="1.4" fill="#f85149"/></g><g opacity="0"><animate attributeName="opacity" from="0" to="1" begin="0.252s" dur="0.42s" fill="freeze"/><animateTransform attributeName="transform" type="translate" from="0 10" to="0 0" begin="0.252s" dur="0.42s" fill="freeze"/><line x1="221.8" y1="182.5" x2="221.8" y2="196.6" stroke="#3fb950" stroke-width="1.4"/><rect x="215.8" y="182.5" width="12.0" height="3.2" rx="1.4" fill="#3fb950"/></g><g opacity="0"><animate attributeName="opacity" from="0" to="1" begin="0.280s" dur="0.42s" fill="freeze"/><animateTransform attributeName="transform" type="translate" from="0 10" to="0 0" begin="0.280s" dur="0.42s" fill="freeze"/><line x1="242.4" y1="182.5" x2="242.4" y2="195.2" stroke="#f85149" stroke-width="1.4"/><rect x="236.4" y="182.5" width="12.0" height="12.2" rx="1.4" fill="#f85149"/></g><g opacity="0"><animate attributeName="opacity" from="0" to="1" begin="0.308s" dur="0.42s" fill="freeze"/><animateTransform attributeName="transform" type="translate" from="0 10" to="0 0" begin="0.308s" dur="0.42s" fill="freeze"/><line x1="263.0" y1="194.7" x2="263.0" y2="214.0" stroke="#f85149" stroke-width="1.4"/><rect x="257.0" y="194.7" width="12.0" height="17.6" rx="1.4" fill="#f85149"/></g><g opacity="0"><animate attributeName="opacity" from="0" to="1" begin="0.336s" dur="0.42s" fill="freeze"/><animateTransform attributeName="transform" type="translate" from="0 10" to="0 0" begin="0.336s" dur="0.42s" fill="freeze"/><line x1="283.6" y1="203.9" x2="283.6" y2="212.9" stroke="#3fb950" stroke-width="1.4"/><rect x="277.6" y="206.8" width="12.0" height="5.4" rx="1.4" fill="#3fb950"/></g><g opacity="0"><animate attributeName="opacity" from="0" to="1" begin="0.364s" dur="0.42s" fill="freeze"/><animateTransform attributeName="transform" type="translate" from="0 10" to="0 0" begin="0.364s" dur="0.42s" fill="freeze"/><line x1="304.2" y1="190.6" x2="304.2" y2="206.8" stroke="#3fb950" stroke-width="1.4"/><rect x="298.2" y="194.4" width="12.0" height="12.4" rx="1.4" fill="#3fb950"/></g><g opacity="0"><animate attributeName="opacity" from="0" to="1" begin="0.392s" dur="0.42s" fill="freeze"/><animateTransform attributeName="transform" type="translate" from="0 10" to="0 0" begin="0.392s" dur="0.42s" fill="freeze"/><line x1="324.8" y1="194.4" x2="324.8" y2="206.7" stroke="#f85149" stroke-width="1.4"/><rect x="318.8" y="194.4" width="12.0" height="10.1" rx="1.4" fill="#f85149"/></g><g opacity="0"><animate attributeName="opacity" from="0" to="1" begin="0.420s" dur="0.42s" fill="freeze"/><animateTransform attributeName="transform" type="translate" from="0 10" to="0 0" begin="0.420s" dur="0.42s" fill="freeze"/><line x1="345.4" y1="192.5" x2="345.4" y2="208.7" stroke="#3fb950" stroke-width="1.4"/><rect x="339.5" y="193.0" width="12.0" height="11.5" rx="1.4" fill="#3fb950"/></g><g opacity="0"><animate attributeName="opacity" from="0" to="1" begin="0.448s" dur="0.42s" fill="freeze"/><animateTransform attributeName="transform" type="translate" from="0 10" to="0 0" begin="0.448s" dur="0.42s" fill="freeze"/><line x1="366.0" y1="185.5" x2="366.0" y2="193.1" stroke="#3fb950" stroke-width="1.4"/><rect x="360.1" y="187.1" width="12.0" height="5.9" rx="1.4" fill="#3fb950"/></g><g opacity="0"><animate attributeName="opacity" from="0" to="1" begin="0.476s" dur="0.42s" fill="freeze"/><animateTransform attributeName="transform" type="translate" from="0 10" to="0 0" begin="0.476s" dur="0.42s" fill="freeze"/><line x1="386.7" y1="171.8" x2="386.7" y2="187.1" stroke="#3fb950" stroke-width="1.4"/><rect x="380.7" y="171.8" width="12.0" height="15.4" rx="1.4" fill="#3fb950"/></g><g opacity="0"><animate attributeName="opacity" from="0" to="1" begin="0.504s" dur="0.42s" fill="freeze"/><animateTransform attributeName="transform" type="translate" from="0 10" to="0 0" begin="0.504s" dur="0.42s" fill="freeze"/><line x1="407.3" y1="153.0" x2="407.3" y2="176.7" stroke="#3fb950" stroke-width="1.4"/><rect x="401.3" y="158.4" width="12.0" height="13.4" rx="1.4" fill="#3fb950"/></g><g opacity="0"><animate attributeName="opacity" from="0" to="1" begin="0.532s" dur="0.42s" fill="freeze"/><animateTransform attributeName="transform" type="translate" from="0 10" to="0 0" begin="0.532s" dur="0.42s" fill="freeze"/><line x1="427.9" y1="150.9" x2="427.9" y2="158.4" stroke="#3fb950" stroke-width="1.4"/><rect x="421.9" y="151.0" width="12.0" height="7.4" rx="1.4" fill="#3fb950"/></g><g opacity="0"><animate attributeName="opacity" from="0" to="1" begin="0.560s" dur="0.42s" fill="freeze"/><animateTransform attributeName="transform" type="translate" from="0 10" to="0 0" begin="0.560s" dur="0.42s" fill="freeze"/><line x1="448.5" y1="151.0" x2="448.5" y2="167.8" stroke="#f85149" stroke-width="1.4"/><rect x="442.5" y="151.0" width="12.0" height="14.0" rx="1.4" fill="#f85149"/></g><g opacity="0"><animate attributeName="opacity" from="0" to="1" begin="0.588s" dur="0.42s" fill="freeze"/><animateTransform attributeName="transform" type="translate" from="0 10" to="0 0" begin="0.588s" dur="0.42s" fill="freeze"/><line x1="469.1" y1="158.2" x2="469.1" y2="166.3" stroke="#3fb950" stroke-width="1.4"/><rect x="463.1" y="158.2" width="12.0" height="6.8" rx="1.4" fill="#3fb950"/></g><g opacity="0"><animate attributeName="opacity" from="0" to="1" begin="0.616s" dur="0.42s" fill="freeze"/><animateTransform attributeName="transform" type="translate" from="0 10" to="0 0" begin="0.616s" dur="0.42s" fill="freeze"/><line x1="489.7" y1="158.2" x2="489.7" y2="170.1" stroke="#f85149" stroke-width="1.4"/><rect x="483.7" y="158.2" width="12.0" height="1.2" rx="1.4" fill="#f85149"/></g><g opacity="0"><animate attributeName="opacity" from="0" to="1" begin="0.644s" dur="0.42s" fill="freeze"/><animateTransform attributeName="transform" type="translate" from="0 10" to="0 0" begin="0.644s" dur="0.42s" fill="freeze"/><line x1="510.3" y1="141.9" x2="510.3" y2="159.2" stroke="#3fb950" stroke-width="1.4"/><rect x="504.3" y="141.9" width="12.0" height="17.2" rx="1.4" fill="#3fb950"/></g><g opacity="0"><animate attributeName="opacity" from="0" to="1" begin="0.672s" dur="0.42s" fill="freeze"/><animateTransform attributeName="transform" type="translate" from="0 10" to="0 0" begin="0.672s" dur="0.42s" fill="freeze"/><line x1="530.9" y1="141.9" x2="530.9" y2="159.4" stroke="#f85149" stroke-width="1.4"/><rect x="524.9" y="141.9" width="12.0" height="17.5" rx="1.4" fill="#f85149"/></g><g opacity="0"><animate attributeName="opacity" from="0" to="1" begin="0.700s" dur="0.42s" fill="freeze"/><animateTransform attributeName="transform" type="translate" from="0 10" to="0 0" begin="0.700s" dur="0.42s" fill="freeze"/><line x1="551.5" y1="135.6" x2="551.5" y2="161.9" stroke="#3fb950" stroke-width="1.4"/><rect x="545.5" y="135.6" width="12.0" height="23.8" rx="1.4" fill="#3fb950"/></g><g opacity="0"><animate attributeName="opacity" from="0" to="1" begin="0.728s" dur="0.42s" fill="freeze"/><animateTransform attributeName="transform" type="translate" from="0 10" to="0 0" begin="0.728s" dur="0.42s" fill="freeze"/><line x1="572.1" y1="125.1" x2="572.1" y2="143.9" stroke="#3fb950" stroke-width="1.4"/><rect x="566.2" y="125.6" width="12.0" height="10.0" rx="1.4" fill="#3fb950"/></g><g opacity="0"><animate attributeName="opacity" from="0" to="1" begin="0.756s" dur="0.42s" fill="freeze"/><animateTransform attributeName="transform" type="translate" from="0 10" to="0 0" begin="0.756s" dur="0.42s" fill="freeze"/><line x1="592.7" y1="119.8" x2="592.7" y2="132.3" stroke="#3fb950" stroke-width="1.4"/><rect x="586.8" y="119.8" width="12.0" height="5.8" rx="1.4" fill="#3fb950"/></g><g opacity="0"><animate attributeName="opacity" from="0" to="1" begin="0.784s" dur="0.42s" fill="freeze"/><animateTransform attributeName="transform" type="translate" from="0 10" to="0 0" begin="0.784s" dur="0.42s" fill="freeze"/><line x1="613.3" y1="117.1" x2="613.3" y2="127.7" stroke="#f85149" stroke-width="1.4"/><rect x="607.4" y="119.8" width="12.0" height="7.8" rx="1.4" fill="#f85149"/></g><g opacity="0"><animate attributeName="opacity" from="0" to="1" begin="0.812s" dur="0.42s" fill="freeze"/><animateTransform attributeName="transform" type="translate" from="0 10" to="0 0" begin="0.812s" dur="0.42s" fill="freeze"/><line x1="634.0" y1="102.7" x2="634.0" y2="127.7" stroke="#3fb950" stroke-width="1.4"/><rect x="628.0" y="107.3" width="12.0" height="20.3" rx="1.4" fill="#3fb950"/></g><g opacity="0"><animate attributeName="opacity" from="0" to="1" begin="0.840s" dur="0.42s" fill="freeze"/><animateTransform attributeName="transform" type="translate" from="0 10" to="0 0" begin="0.840s" dur="0.42s" fill="freeze"/><line x1="654.6" y1="104.5" x2="654.6" y2="114.4" stroke="#3fb950" stroke-width="1.4"/><rect x="648.6" y="104.5" width="12.0" height="2.8" rx="1.4" fill="#3fb950"/></g><g opacity="0"><animate attributeName="opacity" from="0" to="1" begin="0.868s" dur="0.42s" fill="freeze"/><animateTransform attributeName="transform" type="translate" from="0 10" to="0 0" begin="0.868s" dur="0.42s" fill="freeze"/><line x1="675.2" y1="96.3" x2="675.2" y2="104.5" stroke="#3fb950" stroke-width="1.4"/><rect x="669.2" y="96.3" width="12.0" height="8.2" rx="1.4" fill="#3fb950"/></g><g opacity="0"><animate attributeName="opacity" from="0" to="1" begin="0.896s" dur="0.42s" fill="freeze"/><animateTransform attributeName="transform" type="translate" from="0 10" to="0 0" begin="0.896s" dur="0.42s" fill="freeze"/><line x1="695.8" y1="74.0" x2="695.8" y2="96.3" stroke="#3fb950" stroke-width="1.4"/><rect x="689.8" y="81.7" width="12.0" height="14.6" rx="1.4" fill="#3fb950"/></g><g opacity="0"><animate attributeName="opacity" from="0" to="1" begin="0.924s" dur="0.42s" fill="freeze"/><animateTransform attributeName="transform" type="translate" from="0 10" to="0 0" begin="0.924s" dur="0.42s" fill="freeze"/><line x1="716.4" y1="76.7" x2="716.4" y2="102.0" stroke="#f85149" stroke-width="1.4"/><rect x="710.4" y="81.7" width="12.0" height="11.2" rx="1.4" fill="#f85149"/></g><g opacity="0"><animate attributeName="opacity" from="0" to="1" begin="0.952s" dur="0.42s" fill="freeze"/><animateTransform attributeName="transform" type="translate" from="0 10" to="0 0" begin="0.952s" dur="0.42s" fill="freeze"/><line x1="737.0" y1="85.6" x2="737.0" y2="96.8" stroke="#f85149" stroke-width="1.4"/><rect x="731.0" y="93.0" width="12.0" height="2.0" rx="1.4" fill="#f85149"/></g><g opacity="0"><animate attributeName="opacity" from="0" to="1" begin="0.980s" dur="0.42s" fill="freeze"/><animateTransform attributeName="transform" type="translate" from="0 10" to="0 0" begin="0.980s" dur="0.42s" fill="freeze"/><line x1="757.6" y1="75.1" x2="757.6" y2="95.0" stroke="#3fb950" stroke-width="1.4"/><rect x="751.6" y="83.4" width="12.0" height="11.6" rx="1.4" fill="#3fb950"/></g><g opacity="0"><animate attributeName="opacity" from="0" to="1" begin="1.008s" dur="0.42s" fill="freeze"/><animateTransform attributeName="transform" type="translate" from="0 10" to="0 0" begin="1.008s" dur="0.42s" fill="freeze"/><line x1="778.2" y1="83.4" x2="778.2" y2="103.1" stroke="#f85149" stroke-width="1.4"/><rect x="772.2" y="83.4" width="12.0" height="5.6" rx="1.4" fill="#f85149"/></g><g opacity="0"><animate attributeName="opacity" from="0" to="1" begin="1.036s" dur="0.42s" fill="freeze"/><animateTransform attributeName="transform" type="translate" from="0 10" to="0 0" begin="1.036s" dur="0.42s" fill="freeze"/><line x1="798.8" y1="88.0" x2="798.8" y2="118.8" stroke="#f85149" stroke-width="1.4"/><rect x="792.8" y="89.0" width="12.0" height="22.9" rx="1.4" fill="#f85149"/></g><g opacity="0"><animate attributeName="opacity" from="0" to="1" begin="1.064s" dur="0.42s" fill="freeze"/><animateTransform attributeName="transform" type="translate" from="0 10" to="0 0" begin="1.064s" dur="0.42s" fill="freeze"/><line x1="819.4" y1="111.7" x2="819.4" y2="121.6" stroke="#f85149" stroke-width="1.4"/><rect x="813.5" y="111.9" width="12.0" height="3.7" rx="1.4" fill="#f85149"/></g><g opacity="0"><animate attributeName="opacity" from="0" to="1" begin="1.092s" dur="0.42s" fill="freeze"/><animateTransform attributeName="transform" type="translate" from="0 10" to="0 0" begin="1.092s" dur="0.42s" fill="freeze"/><line x1="840.0" y1="107.7" x2="840.0" y2="127.1" stroke="#f85149" stroke-width="1.4"/><rect x="834.1" y="115.6" width="12.0" height="11.5" rx="1.4" fill="#f85149"/></g><g opacity="0"><animate attributeName="opacity" from="0" to="1" begin="1.120s" dur="0.42s" fill="freeze"/><animateTransform attributeName="transform" type="translate" from="0 10" to="0 0" begin="1.120s" dur="0.42s" fill="freeze"/><line x1="860.7" y1="119.8" x2="860.7" y2="127.1" stroke="#3fb950" stroke-width="1.4"/><rect x="854.7" y="121.5" width="12.0" height="5.6" rx="1.4" fill="#3fb950"/></g><g opacity="0"><animate attributeName="opacity" from="0" to="1" begin="1.148s" dur="0.42s" fill="freeze"/><animateTransform attributeName="transform" type="translate" from="0 10" to="0 0" begin="1.148s" dur="0.42s" fill="freeze"/><line x1="881.3" y1="105.0" x2="881.3" y2="127.0" stroke="#f85149" stroke-width="1.4"/><rect x="875.3" y="121.5" width="12.0" height="1.2" rx="1.4" fill="#f85149"/></g><g opacity="0"><animate attributeName="opacity" from="0" to="1" begin="1.176s" dur="0.42s" fill="freeze"/><animateTransform attributeName="transform" type="translate" from="0 10" to="0 0" begin="1.176s" dur="0.42s" fill="freeze"/><line x1="901.9" y1="113.9" x2="901.9" y2="128.4" stroke="#3fb950" stroke-width="1.4"/><rect x="895.9" y="113.9" width="12.0" height="7.8" rx="1.4" fill="#3fb950"/></g><g opacity="0"><animate attributeName="opacity" from="0" to="1" begin="1.204s" dur="0.42s" fill="freeze"/><animateTransform attributeName="transform" type="translate" from="0 10" to="0 0" begin="1.204s" dur="0.42s" fill="freeze"/><line x1="922.5" y1="113.9" x2="922.5" y2="140.1" stroke="#f85149" stroke-width="1.4"/><rect x="916.5" y="113.9" width="12.0" height="13.9" rx="1.4" fill="#f85149"/></g><g opacity="0"><animate attributeName="opacity" from="0" to="1" begin="1.232s" dur="0.42s" fill="freeze"/><animateTransform attributeName="transform" type="translate" from="0 10" to="0 0" begin="1.232s" dur="0.42s" fill="freeze"/><line x1="943.1" y1="127.8" x2="943.1" y2="136.7" stroke="#f85149" stroke-width="1.4"/><rect x="937.1" y="127.8" width="12.0" height="8.7" rx="1.4" fill="#f85149"/></g><g opacity="0"><animate attributeName="opacity" from="0" to="1" begin="1.260s" dur="0.42s" fill="freeze"/><animateTransform attributeName="transform" type="translate" from="0 10" to="0 0" begin="1.260s" dur="0.42s" fill="freeze"/><line x1="963.7" y1="122.2" x2="963.7" y2="137.6" stroke="#3fb950" stroke-width="1.4"/><rect x="957.7" y="122.2" width="12.0" height="14.3" rx="1.4" fill="#3fb950"/></g><polyline points="180.6,173.6 201.2,175.4 221.8,176.2 242.4,179.8 263.0,185.7 283.6,190.7 304.2,192.4 324.8,195.5 345.4,196.7 366.0,196.9 386.7,195.6 407.3,191.0 427.9,183.4 448.5,178.1 469.1,173.6 489.7,167.9 510.3,161.6 530.9,158.1 551.5,153.6 572.1,149.5 592.7,145.6 613.3,140.9 634.0,134.6 654.6,127.7 675.2,122.0 695.8,112.3 716.4,107.0 737.0,103.2 757.6,98.6 778.2,93.8 798.8,94.4 819.4,95.8 840.0,99.6 860.7,104.6 881.3,108.2 901.9,110.5 922.5,116.1 943.1,122.0 963.7,123.3" fill="none" stroke="#58a6ff" stroke-width="2" stroke-linecap="round" stroke-linejoin="round" filter="url(#soft)" stroke-dasharray="948" stroke-dashoffset="948"><animate attributeName="stroke-dashoffset" from="948" to="0" begin="0.4s" dur="1.5s" fill="freeze"/></polyline><g opacity="0"><animate attributeName="opacity" from="0" to="1" begin="0.2s" dur="0.9s" fill="freeze"/><text x="32" y="40" font-family="'Segoe UI',Helvetica,Arial,sans-serif" font-size="30" font-weight="700" fill="#e6edf3">hilothefunnydog123-coder</text><text x="34" y="62" font-family="'Segoe UI',Helvetica,Arial,sans-serif" font-size="14" fill="#8b949e">quant tooling · market simulators · fintech · building the whole stack</text><circle cx="966" cy="34" r="4" fill="#3fb950"><animate attributeName="opacity" values="1;0.25;1" dur="1.6s" repeatCount="indefinite"/></circle><text x="954" y="38" text-anchor="end" font-family="'Segoe UI',Helvetica,Arial,sans-serif" font-size="12" fill="#8b949e">LIVE</text></g></svg>