<svg xmlns="http://www.w3.org/2000/svg" viewBox="0 0 1000 240" width="100%" role="img" aria-label="animated market banner"><defs>
      <linearGradient id="bg" x1="0" y1="0" x2="0" y2="1">
        <stop offset="0" stop-color="#0f1420"/><stop offset="1" stop-color="#0a0d14"/>
      </linearGradient>
      <linearGradient id="glow" x1="0" y1="0" x2="1" y2="0">
        <stop offset="0" stop-color="#58a6ff" stop-opacity="0"/>
        <stop offset="1" stop-color="#58a6ff" stop-opacity="0.10"/>
      </linearGradient>
      <filter id="soft"><feGaussianBlur stdDeviation="0.4"/></filter>
    </defs><rect x="1" y="1" width="998" height="238" rx="16" fill="url(#bg)" stroke="#232b3a"/><rect x="1" y="1" width="998" height="238" rx="16" fill="url(#glow)"/><line x1="26" y1="102.0" x2="974" y2="102.0" stroke="#1b2230" stroke-width="1"/><line x1="26" y1="130.0" x2="974" y2="130.0" stroke="#1b2230" stroke-width="1"/><line x1="26" y1="158.0" x2="974" y2="158.0" stroke="#1b2230" stroke-width="1"/><line x1="26" y1="186.0" x2="974" y2="186.0" stroke="#1b2230" stroke-width="1"/><g opacity="0"><animate attributeName="opacity" from="0" to="1" begin="0.000s" dur="0.42s" fill="freeze"/><animateTransform attributeName="transform" type="translate" from="0 10" to="0 0" begin="0.000s" dur="0.42s" fill="freeze"/><line x1="36.3" y1="187.5" x2="36.3" y2="197.4" stroke="#3fb950" stroke-width="1.4"/><rect x="30.3" y="190.8" width="12.0" height="2.2" rx="1.4" fill="#3fb950"/></g><g opacity="0"><animate attributeName="opacity" from="0" to="1" begin="0.028s" dur="0.42s" fill="freeze"/><animateTransform attributeName="transform" type="translate" from="0 10" to="0 0" begin="0.028s" dur="0.42s" fill="freeze"/><line x1="56.9" y1="190.8" x2="56.9" y2="211.3" stroke="#f85149" stroke-width="1.4"/><rect x="50.9" y="190.8" width="12.0" height="10.8" rx="1.4" fill="#f85149"/></g><g opacity="0"><animate attributeName="opacity" from="0" to="1" begin="0.056s" dur="0.42s" fill="freeze"/><animateTransform attributeName="transform" type="translate" from="0 10" to="0 0" begin="0.056s" dur="0.42s" fill="freeze"/><line x1="77.5" y1="198.6" x2="77.5" y2="214.0" stroke="#f85149" stroke-width="1.4"/><rect x="71.5" y="201.5" width="12.0" height="3.8" rx="1.4" fill="#f85149"/></g><g opacity="0"><animate attributeName="opacity" from="0" to="1" begin="0.084s" dur="0.42s" fill="freeze"/><animateTransform attributeName="transform" type="translate" from="0 10" to="0 0" begin="0.084s" dur="0.42s" fill="freeze"/><line x1="98.1" y1="193.2" x2="98.1" y2="205.6" stroke="#3fb950" stroke-width="1.4"/><rect x="92.2" y="203.5" width="12.0" height="1.8" rx="1.4" fill="#3fb950"/></g><g opacity="0"><animate attributeName="opacity" from="0" to="1" begin="0.112s" dur="0.42s" fill="freeze"/><animateTransform attributeName="transform" type="translate" from="0 10" to="0 0" begin="0.112s" dur="0.42s" fill="freeze"/><line x1="118.7" y1="186.4" x2="118.7" y2="208.9" stroke="#f85149" stroke-width="1.4"/><rect x="112.8" y="203.5" width="12.0" height="4.9" rx="1.4" fill="#f85149"/></g><g opacity="0"><animate attributeName="opacity" from="0" to="1" begin="0.140s" dur="0.42s" fill="freeze"/><animateTransform attributeName="transform" type="translate" from="0 10" to="0 0" begin="0.140s" dur="0.42s" fill="freeze"/><line x1="139.3" y1="191.1" x2="139.3" y2="208.4" stroke="#3fb950" stroke-width="1.4"/><rect x="133.4" y="191.1" width="12.0" height="17.4" rx="1.4" fill="#3fb950"/></g><g opacity="0"><animate attributeName="opacity" from="0" to="1" begin="0.168s" dur="0.42s" fill="freeze"/><animateTransform attributeName="transform" type="translate" from="0 10" to="0 0" begin="0.168s" dur="0.42s" fill="freeze"/><line x1="160.0" y1="190.4" x2="160.0" y2="197.4" stroke="#f85149" stroke-width="1.4"/><rect x="154.0" y="191.1" width="12.0" height="6.3" rx="1.4" fill="#f85149"/></g><g opacity="0"><animate attributeName="opacity" from="0" to="1" begin="0.196s" dur="0.42s" fill="freeze"/><animateTransform attributeName="transform" type="translate" from="0 10" to="0 0" begin="0.196s" dur="0.42s" fill="freeze"/><line x1="180.6" y1="188.3" x2="180.6" y2="201.5" stroke="#3fb950" stroke-width="1.4"/><rect x="174.6" y="188.3" width="12.0" height="9.1" rx="1.4" fill="#3fb950"/></g><g opacity="0"><animate attributeName="opacity" from="0" to="1" begin="0.224s" dur="0.42s" fill="freeze"/><animateTransform attributeName="transform" type="translate" from="0 10" to="0 0" begin="0.224s" dur="0.42s" fill="freeze"/><line x1="201.2" y1="188.3" x2="201.2" y2="202.2" stroke="#f85149" stroke-width="1.4"/><rect x="195.2" y="188.3" width="12.0" height="6.0" rx="1.4" fill="#f85149"/></g><g opacity="0"><animate attributeName="opacity" from="0" to="1" begin="0.252s" dur="0.42s" fill="freeze"/><animateTransform attributeName="transform" type="translate" from="0 10" to="0 0" begin="0.252s" dur="0.42s" fill="freeze"/><line x1="221.8" y1="188.9" x2="221.8" y2="198.9" stroke="#3fb950" stroke-width="1.4"/><rect x="215.8" y="192.8" width="12.0" height="1.6" rx="1.4" fill="#3fb950"/></g><g opacity="0"><animate attributeName="opacity" from="0" to="1" begin="0.280s" dur="0.42s" fill="freeze"/><animateTransform attributeName="transform" type="translate" from="0 10" to="0 0" begin="0.280s" dur="0.42s" fill="freeze"/><line x1="242.4" y1="168.6" x2="242.4" y2="192.8" stroke="#3fb950" stroke-width="1.4"/><rect x="236.4" y="170.7" width="12.0" height="22.1" rx="1.4" fill="#3fb950"/></g><g opacity="0"><animate attributeName="opacity" from="0" to="1" begin="0.308s" dur="0.42s" fill="freeze"/><animateTransform attributeName="transform" type="translate" from="0 10" to="0 0" begin="0.308s" dur="0.42s" fill="freeze"/><line x1="263.0" y1="166.2" x2="263.0" y2="175.9" stroke="#f85149" stroke-width="1.4"/><rect x="257.0" y="170.7" width="12.0" height="1.3" rx="1.4" fill="#f85149"/></g><g opacity="0"><animate attributeName="opacity" from="0" to="1" begin="0.336s" dur="0.42s" fill="freeze"/><animateTransform attributeName="transform" type="translate" from="0 10" to="0 0" begin="0.336s" dur="0.42s" fill="freeze"/><line x1="283.6" y1="169.5" x2="283.6" y2="178.4" stroke="#f85149" stroke-width="1.4"/><rect x="277.6" y="172.0" width="12.0" height="2.2" rx="1.4" fill="#f85149"/></g><g opacity="0"><animate attributeName="opacity" from="0" to="1" begin="0.364s" dur="0.42s" fill="freeze"/><animateTransform attributeName="transform" type="translate" from="0 10" to="0 0" begin="0.364s" dur="0.42s" fill="freeze"/><line x1="304.2" y1="162.9" x2="304.2" y2="182.5" stroke="#f85149" stroke-width="1.4"/><rect x="298.2" y="174.2" width="12.0" height="8.3" rx="1.4" fill="#f85149"/></g><g opacity="0"><animate attributeName="opacity" from="0" to="1" begin="0.392s" dur="0.42s" fill="freeze"/><animateTransform attributeName="transform" type="translate" from="0 10" to="0 0" begin="0.392s" dur="0.42s" fill="freeze"/><line x1="324.8" y1="175.4" x2="324.8" y2="192.2" stroke="#3fb950" stroke-width="1.4"/><rect x="318.8" y="175.4" width="12.0" height="7.1" rx="1.4" fill="#3fb950"/></g><g opacity="0"><animate attributeName="opacity" from="0" to="1" begin="0.420s" dur="0.42s" fill="freeze"/><animateTransform attributeName="transform" type="translate" from="0 10" to="0 0" begin="0.420s" dur="0.42s" fill="freeze"/><line x1="345.4" y1="166.8" x2="345.4" y2="179.2" stroke="#f85149" stroke-width="1.4"/><rect x="339.5" y="175.4" width="12.0" height="3.8" rx="1.4" fill="#f85149"/></g><g opacity="0"><animate attributeName="opacity" from="0" to="1" begin="0.448s" dur="0.42s" fill="freeze"/><animateTransform attributeName="transform" type="translate" from="0 10" to="0 0" begin="0.448s" dur="0.42s" fill="freeze"/><line x1="366.0" y1="179.2" x2="366.0" y2="200.6" stroke="#f85149" stroke-width="1.4"/><rect x="360.1" y="179.2" width="12.0" height="1.2" rx="1.4" fill="#f85149"/></g><g opacity="0"><animate attributeName="opacity" from="0" to="1" begin="0.476s" dur="0.42s" fill="freeze"/><animateTransform attributeName="transform" type="translate" from="0 10" to="0 0" begin="0.476s" dur="0.42s" fill="freeze"/><line x1="386.7" y1="138.4" x2="386.7" y2="179.4" stroke="#3fb950" stroke-width="1.4"/><rect x="380.7" y="138.4" width="12.0" height="41.0" rx="1.4" fill="#3fb950"/></g><g opacity="0"><animate attributeName="opacity" from="0" to="1" begin="0.504s" dur="0.42s" fill="freeze"/><animateTransform attributeName="transform" type="translate" from="0 10" to="0 0" begin="0.504s" dur="0.42s" fill="freeze"/><line x1="407.3" y1="119.0" x2="407.3" y2="143.8" stroke="#3fb950" stroke-width="1.4"/><rect x="401.3" y="119.0" width="12.0" height="19.4" rx="1.4" fill="#3fb950"/></g><g opacity="0"><animate attributeName="opacity" from="0" to="1" begin="0.532s" dur="0.42s" fill="freeze"/><animateTransform attributeName="transform" type="translate" from="0 10" to="0 0" begin="0.532s" dur="0.42s" fill="freeze"/><line x1="427.9" y1="112.7" x2="427.9" y2="134.7" stroke="#f85149" stroke-width="1.4"/><rect x="421.9" y="119.0" width="12.0" height="15.6" rx="1.4" fill="#f85149"/></g><g opacity="0"><animate attributeName="opacity" from="0" to="1" begin="0.560s" dur="0.42s" fill="freeze"/><animateTransform attributeName="transform" type="translate" from="0 10" to="0 0" begin="0.560s" dur="0.42s" fill="freeze"/><line x1="448.5" y1="132.9" x2="448.5" y2="145.6" stroke="#f85149" stroke-width="1.4"/><rect x="442.5" y="134.7" width="12.0" height="2.0" rx="1.4" fill="#f85149"/></g><g opacity="0"><animate attributeName="opacity" from="0" to="1" begin="0.588s" dur="0.42s" fill="freeze"/><animateTransform attributeName="transform" type="translate" from="0 10" to="0 0" begin="0.588s" dur="0.42s" fill="freeze"/><line x1="469.1" y1="117.0" x2="469.1" y2="136.9" stroke="#3fb950" stroke-width="1.4"/><rect x="463.1" y="128.6" width="12.0" height="8.1" rx="1.4" fill="#3fb950"/></g><g opacity="0"><animate attributeName="opacity" from="0" to="1" begin="0.616s" dur="0.42s" fill="freeze"/><animateTransform attributeName="transform" type="translate" from="0 10" to="0 0" begin="0.616s" dur="0.42s" fill="freeze"/><line x1="489.7" y1="122.0" x2="489.7" y2="133.5" stroke="#f85149" stroke-width="1.4"/><rect x="483.7" y="128.6" width="12.0" height="3.1" rx="1.4" fill="#f85149"/></g><g opacity="0"><animate attributeName="opacity" from="0" to="1" begin="0.644s" dur="0.42s" fill="freeze"/><animateTransform attributeName="transform" type="translate" from="0 10" to="0 0" begin="0.644s" dur="0.42s" fill="freeze"/><line x1="510.3" y1="131.6" x2="510.3" y2="159.7" stroke="#f85149" stroke-width="1.4"/><rect x="504.3" y="131.6" width="12.0" height="26.4" rx="1.4" fill="#f85149"/></g><g opacity="0"><animate attributeName="opacity" from="0" to="1" begin="0.672s" dur="0.42s" fill="freeze"/><animateTransform attributeName="transform" type="translate" from="0 10" to="0 0" begin="0.672s" dur="0.42s" fill="freeze"/><line x1="530.9" y1="156.3" x2="530.9" y2="170.7" stroke="#3fb950" stroke-width="1.4"/><rect x="524.9" y="156.3" width="12.0" height="1.7" rx="1.4" fill="#3fb950"/></g><g opacity="0"><animate attributeName="opacity" from="0" to="1" begin="0.700s" dur="0.42s" fill="freeze"/><animateTransform attributeName="transform" type="translate" from="0 10" to="0 0" begin="0.700s" dur="0.42s" fill="freeze"/><line x1="551.5" y1="145.7" x2="551.5" y2="159.9" stroke="#3fb950" stroke-width="1.4"/><rect x="545.5" y="145.7" width="12.0" height="10.6" rx="1.4" fill="#3fb950"/></g><g opacity="0"><animate attributeName="opacity" from="0" to="1" begin="0.728s" dur="0.42s" fill="freeze"/><animateTransform attributeName="transform" type="translate" from="0 10" to="0 0" begin="0.728s" dur="0.42s" fill="freeze"/><line x1="572.1" y1="139.9" x2="572.1" y2="152.4" stroke="#3fb950" stroke-width="1.4"/><rect x="566.2" y="139.9" width="12.0" height="5.8" rx="1.4" fill="#3fb950"/></g><g opacity="0"><animate attributeName="opacity" from="0" to="1" begin="0.756s" dur="0.42s" fill="freeze"/><animateTransform attributeName="transform" type="translate" from="0 10" to="0 0" begin="0.756s" dur="0.42s" fill="freeze"/><line x1="592.7" y1="121.3" x2="592.7" y2="139.9" stroke="#3fb950" stroke-width="1.4"/><rect x="586.8" y="121.3" width="12.0" height="18.6" rx="1.4" fill="#3fb950"/></g><g opacity="0"><animate attributeName="opacity" from="0" to="1" begin="0.784s" dur="0.42s" fill="freeze"/><animateTransform attributeName="transform" type="translate" from="0 10" to="0 0" begin="0.784s" dur="0.42s" fill="freeze"/><line x1="613.3" y1="89.7" x2="613.3" y2="121.3" stroke="#3fb950" stroke-width="1.4"/><rect x="607.4" y="99.4" width="12.0" height="21.9" rx="1.4" fill="#3fb950"/></g><g opacity="0"><animate attributeName="opacity" from="0" to="1" begin="0.812s" dur="0.42s" fill="freeze"/><animateTransform attributeName="transform" type="translate" from="0 10" to="0 0" begin="0.812s" dur="0.42s" fill="freeze"/><line x1="634.0" y1="90.4" x2="634.0" y2="99.4" stroke="#3fb950" stroke-width="1.4"/><rect x="628.0" y="95.8" width="12.0" height="3.6" rx="1.4" fill="#3fb950"/></g><g opacity="0"><animate attributeName="opacity" from="0" to="1" begin="0.840s" dur="0.42s" fill="freeze"/><animateTransform attributeName="transform" type="translate" from="0 10" to="0 0" begin="0.840s" dur="0.42s" fill="freeze"/><line x1="654.6" y1="95.8" x2="654.6" y2="112.7" stroke="#f85149" stroke-width="1.4"/><rect x="648.6" y="95.8" width="12.0" height="1.2" rx="1.4" fill="#f85149"/></g><g opacity="0"><animate attributeName="opacity" from="0" to="1" begin="0.868s" dur="0.42s" fill="freeze"/><animateTransform attributeName="transform" type="translate" from="0 10" to="0 0" begin="0.868s" dur="0.42s" fill="freeze"/><line x1="675.2" y1="74.0" x2="675.2" y2="96.1" stroke="#3fb950" stroke-width="1.4"/><rect x="669.2" y="78.2" width="12.0" height="18.0" rx="1.4" fill="#3fb950"/></g><g opacity="0"><animate attributeName="opacity" from="0" to="1" begin="0.896s" dur="0.42s" fill="freeze"/><animateTransform attributeName="transform" type="translate" from="0 10" to="0 0" begin="0.896s" dur="0.42s" fill="freeze"/><line x1="695.8" y1="74.9" x2="695.8" y2="102.8" stroke="#f85149" stroke-width="1.4"/><rect x="689.8" y="78.2" width="12.0" height="24.7" rx="1.4" fill="#f85149"/></g><g opacity="0"><animate attributeName="opacity" from="0" to="1" begin="0.924s" dur="0.42s" fill="freeze"/><animateTransform attributeName="transform" type="translate" from="0 10" to="0 0" begin="0.924s" dur="0.42s" fill="freeze"/><line x1="716.4" y1="89.4" x2="716.4" y2="104.0" stroke="#3fb950" stroke-width="1.4"/><rect x="710.4" y="89.5" width="12.0" height="13.3" rx="1.4" fill="#3fb950"/></g><g opacity="0"><animate attributeName="opacity" from="0" to="1" begin="0.952s" dur="0.42s" fill="freeze"/><animateTransform attributeName="transform" type="translate" from="0 10" to="0 0" begin="0.952s" dur="0.42s" fill="freeze"/><line x1="737.0" y1="87.5" x2="737.0" y2="113.2" stroke="#f85149" stroke-width="1.4"/><rect x="731.0" y="89.5" width="12.0" height="22.6" rx="1.4" fill="#f85149"/></g><g opacity="0"><animate attributeName="opacity" from="0" to="1" begin="0.980s" dur="0.42s" fill="freeze"/><animateTransform attributeName="transform" type="translate" from="0 10" to="0 0" begin="0.980s" dur="0.42s" fill="freeze"/><line x1="757.6" y1="111.6" x2="757.6" y2="136.4" stroke="#f85149" stroke-width="1.4"/><rect x="751.6" y="112.2" width="12.0" height="4.9" rx="1.4" fill="#f85149"/></g><g opacity="0"><animate attributeName="opacity" from="0" to="1" begin="1.008s" dur="0.42s" fill="freeze"/><animateTransform attributeName="transform" type="translate" from="0 10" to="0 0" begin="1.008s" dur="0.42s" fill="freeze"/><line x1="778.2" y1="106.9" x2="778.2" y2="117.1" stroke="#3fb950" stroke-width="1.4"/><rect x="772.2" y="110.1" width="12.0" height="7.0" rx="1.4" fill="#3fb950"/></g><g opacity="0"><animate attributeName="opacity" from="0" to="1" begin="1.036s" dur="0.42s" fill="freeze"/><animateTransform attributeName="transform" type="translate" from="0 10" to="0 0" begin="1.036s" dur="0.42s" fill="freeze"/><line x1="798.8" y1="100.2" x2="798.8" y2="110.1" stroke="#3fb950" stroke-width="1.4"/><rect x="792.8" y="105.5" width="12.0" height="4.6" rx="1.4" fill="#3fb950"/></g><g opacity="0"><animate attributeName="opacity" from="0" to="1" begin="1.064s" dur="0.42s" fill="freeze"/><animateTransform attributeName="transform" type="translate" from="0 10" to="0 0" begin="1.064s" dur="0.42s" fill="freeze"/><line x1="819.4" y1="80.7" x2="819.4" y2="111.9" stroke="#3fb950" stroke-width="1.4"/><rect x="813.5" y="98.5" width="12.0" height="7.0" rx="1.4" fill="#3fb950"/></g><g opacity="0"><animate attributeName="opacity" from="0" to="1" begin="1.092s" dur="0.42s" fill="freeze"/><animateTransform attributeName="transform" type="translate" from="0 10" to="0 0" begin="1.092s" dur="0.42s" fill="freeze"/><line x1="840.0" y1="97.2" x2="840.0" y2="106.8" stroke="#f85149" stroke-width="1.4"/><rect x="834.1" y="98.5" width="12.0" height="8.4" rx="1.4" fill="#f85149"/></g><g opacity="0"><animate attributeName="opacity" from="0" to="1" begin="1.120s" dur="0.42s" fill="freeze"/><animateTransform attributeName="transform" type="translate" from="0 10" to="0 0" begin="1.120s" dur="0.42s" fill="freeze"/><line x1="860.7" y1="106.8" x2="860.7" y2="121.5" stroke="#f85149" stroke-width="1.4"/><rect x="854.7" y="106.8" width="12.0" height="11.3" rx="1.4" fill="#f85149"/></g><g opacity="0"><animate attributeName="opacity" from="0" to="1" begin="1.148s" dur="0.42s" fill="freeze"/><animateTransform attributeName="transform" type="translate" from="0 10" to="0 0" begin="1.148s" dur="0.42s" fill="freeze"/><line x1="881.3" y1="109.8" x2="881.3" y2="128.7" stroke="#f85149" stroke-width="1.4"/><rect x="875.3" y="118.1" width="12.0" height="10.6" rx="1.4" fill="#f85149"/></g><g opacity="0"><animate attributeName="opacity" from="0" to="1" begin="1.176s" dur="0.42s" fill="freeze"/><animateTransform attributeName="transform" type="translate" from="0 10" to="0 0" begin="1.176s" dur="0.42s" fill="freeze"/><line x1="901.9" y1="111.3" x2="901.9" y2="128.7" stroke="#3fb950" stroke-width="1.4"/><rect x="895.9" y="121.2" width="12.0" height="7.5" rx="1.4" fill="#3fb950"/></g><g opacity="0"><animate attributeName="opacity" from="0" to="1" begin="1.204s" dur="0.42s" fill="freeze"/><animateTransform attributeName="transform" type="translate" from="0 10" to="0 0" begin="1.204s" dur="0.42s" fill="freeze"/><line x1="922.5" y1="117.6" x2="922.5" y2="139.6" stroke="#f85149" stroke-width="1.4"/><rect x="916.5" y="121.2" width="12.0" height="18.5" rx="1.4" fill="#f85149"/></g><g opacity="0"><animate attributeName="opacity" from="0" to="1" begin="1.232s" dur="0.42s" fill="freeze"/><animateTransform attributeName="transform" type="translate" from="0 10" to="0 0" begin="1.232s" dur="0.42s" fill="freeze"/><line x1="943.1" y1="132.2" x2="943.1" y2="150.4" stroke="#3fb950" stroke-width="1.4"/><rect x="937.1" y="132.2" width="12.0" height="7.4" rx="1.4" fill="#3fb950"/></g><g opacity="0"><animate attributeName="opacity" from="0" to="1" begin="1.260s" dur="0.42s" fill="freeze"/><animateTransform attributeName="transform" type="translate" from="0 10" to="0 0" begin="1.260s" dur="0.42s" fill="freeze"/><line x1="963.7" y1="97.1" x2="963.7" y2="132.2" stroke="#3fb950" stroke-width="1.4"/><rect x="957.7" y="97.1" width="12.0" height="35.2" rx="1.4" fill="#3fb950"/></g><polyline points="180.6,198.3 201.2,198.8 221.8,197.7 242.4,193.3 263.0,189.4 283.6,185.1 304.2,184.0 324.8,181.3 345.4,180.1 366.0,178.3 386.7,171.5 407.3,165.0 427.9,160.3 448.5,155.6 469.1,148.9 489.7,143.4 510.3,140.8 530.9,137.9 551.5,138.8 572.1,141.4 592.7,139.8 613.3,135.1 634.0,131.0 654.6,126.6 675.2,116.6 695.8,109.9 716.4,102.9 737.0,99.4 757.6,98.9 778.2,100.2 798.8,101.4 819.4,101.7 840.0,105.3 860.7,107.2 881.3,112.1 901.9,113.3 922.5,116.1 943.1,118.8 963.7,117.8" fill="none" stroke="#58a6ff" stroke-width="2" stroke-linecap="round" stroke-linejoin="round" filter="url(#soft)" stroke-dasharray="948" stroke-dashoffset="948"><animate attributeName="stroke-dashoffset" from="948" to="0" begin="0.4s" dur="1.5s" fill="freeze"/></polyline><g opacity="0"><animate attributeName="opacity" from="0" to="1" begin="0.2s" dur="0.9s" fill="freeze"/><text x="32" y="40" font-family="'Segoe UI',Helvetica,Arial,sans-serif" font-size="30" font-weight="700" fill="#e6edf3">hilothefunnydog123-coder</text><text x="34" y="62" font-family="'Segoe UI',Helvetica,Arial,sans-serif" font-size="14" fill="#8b949e">quant tooling · market simulators · fintech · building the whole stack</text><circle cx="966" cy="34" r="4" fill="#3fb950"><animate attributeName="opacity" values="1;0.25;1" dur="1.6s" repeatCount="indefinite"/></circle><text x="954" y="38" text-anchor="end" font-family="'Segoe UI',Helvetica,Arial,sans-serif" font-size="12" fill="#8b949e">LIVE</text></g></svg>