<svg xmlns="http://www.w3.org/2000/svg" viewBox="0 0 1000 240" width="100%" role="img" aria-label="animated market banner"><defs>
      <linearGradient id="bg" x1="0" y1="0" x2="0" y2="1">
        <stop offset="0" stop-color="#0f1420"/><stop offset="1" stop-color="#0a0d14"/>
      </linearGradient>
      <linearGradient id="glow" x1="0" y1="0" x2="1" y2="0">
        <stop offset="0" stop-color="#58a6ff" stop-opacity="0"/>
        <stop offset="1" stop-color="#58a6ff" stop-opacity="0.10"/>
      </linearGradient>
      <filter id="soft"><feGaussianBlur stdDeviation="0.4"/></filter>
    </defs><rect x="1" y="1" width="998" height="238" rx="16" fill="url(#bg)" stroke="#232b3a"/><rect x="1" y="1" width="998" height="238" rx="16" fill="url(#glow)"/><line x1="26" y1="102.0" x2="974" y2="102.0" stroke="#1b2230" stroke-width="1"/><line x1="26" y1="130.0" x2="974" y2="130.0" stroke="#1b2230" stroke-width="1"/><line x1="26" y1="158.0" x2="974" y2="158.0" stroke="#1b2230" stroke-width="1"/><line x1="26" y1="186.0" x2="974" y2="186.0" stroke="#1b2230" stroke-width="1"/><g opacity="0"><animate attributeName="opacity" from="0" to="1" begin="0.000s" dur="0.42s" fill="freeze"/><animateTransform attributeName="transform" type="translate" from="0 10" to="0 0" begin="0.000s" dur="0.42s" fill="freeze"/><line x1="36.3" y1="145.2" x2="36.3" y2="170.0" stroke="#3fb950" stroke-width="1.4"/><rect x="30.3" y="145.2" width="12.0" height="24.8" rx="1.4" fill="#3fb950"/></g><g opacity="0"><animate attributeName="opacity" from="0" to="1" begin="0.028s" dur="0.42s" fill="freeze"/><animateTransform attributeName="transform" type="translate" from="0 10" to="0 0" begin="0.028s" dur="0.42s" fill="freeze"/><line x1="56.9" y1="141.9" x2="56.9" y2="156.0" stroke="#f85149" stroke-width="1.4"/><rect x="50.9" y="145.2" width="12.0" height="10.7" rx="1.4" fill="#f85149"/></g><g opacity="0"><animate attributeName="opacity" from="0" to="1" begin="0.056s" dur="0.42s" fill="freeze"/><animateTransform attributeName="transform" type="translate" from="0 10" to="0 0" begin="0.056s" dur="0.42s" fill="freeze"/><line x1="77.5" y1="147.6" x2="77.5" y2="159.2" stroke="#3fb950" stroke-width="1.4"/><rect x="71.5" y="148.9" width="12.0" height="7.1" rx="1.4" fill="#3fb950"/></g><g opacity="0"><animate attributeName="opacity" from="0" to="1" begin="0.084s" dur="0.42s" fill="freeze"/><animateTransform attributeName="transform" type="translate" from="0 10" to="0 0" begin="0.084s" dur="0.42s" fill="freeze"/><line x1="98.1" y1="123.2" x2="98.1" y2="148.9" stroke="#3fb950" stroke-width="1.4"/><rect x="92.2" y="123.2" width="12.0" height="25.7" rx="1.4" fill="#3fb950"/></g><g opacity="0"><animate attributeName="opacity" from="0" to="1" begin="0.112s" dur="0.42s" fill="freeze"/><animateTransform attributeName="transform" type="translate" from="0 10" to="0 0" begin="0.112s" dur="0.42s" fill="freeze"/><line x1="118.7" y1="94.7" x2="118.7" y2="124.2" stroke="#3fb950" stroke-width="1.4"/><rect x="112.8" y="94.7" width="12.0" height="28.5" rx="1.4" fill="#3fb950"/></g><g opacity="0"><animate attributeName="opacity" from="0" to="1" begin="0.140s" dur="0.42s" fill="freeze"/><animateTransform attributeName="transform" type="translate" from="0 10" to="0 0" begin="0.140s" dur="0.42s" fill="freeze"/><line x1="139.3" y1="85.8" x2="139.3" y2="96.3" stroke="#3fb950" stroke-width="1.4"/><rect x="133.4" y="85.8" width="12.0" height="9.0" rx="1.4" fill="#3fb950"/></g><g opacity="0"><animate attributeName="opacity" from="0" to="1" begin="0.168s" dur="0.42s" fill="freeze"/><animateTransform attributeName="transform" type="translate" from="0 10" to="0 0" begin="0.168s" dur="0.42s" fill="freeze"/><line x1="160.0" y1="74.0" x2="160.0" y2="91.7" stroke="#f85149" stroke-width="1.4"/><rect x="154.0" y="85.8" width="12.0" height="5.9" rx="1.4" fill="#f85149"/></g><g opacity="0"><animate attributeName="opacity" from="0" to="1" begin="0.196s" dur="0.42s" fill="freeze"/><animateTransform attributeName="transform" type="translate" from="0 10" to="0 0" begin="0.196s" dur="0.42s" fill="freeze"/><line x1="180.6" y1="88.5" x2="180.6" y2="98.3" stroke="#f85149" stroke-width="1.4"/><rect x="174.6" y="91.7" width="12.0" height="4.6" rx="1.4" fill="#f85149"/></g><g opacity="0"><animate attributeName="opacity" from="0" to="1" begin="0.224s" dur="0.42s" fill="freeze"/><animateTransform attributeName="transform" type="translate" from="0 10" to="0 0" begin="0.224s" dur="0.42s" fill="freeze"/><line x1="201.2" y1="96.2" x2="201.2" y2="114.2" stroke="#f85149" stroke-width="1.4"/><rect x="195.2" y="96.2" width="12.0" height="17.4" rx="1.4" fill="#f85149"/></g><g opacity="0"><animate attributeName="opacity" from="0" to="1" begin="0.252s" dur="0.42s" fill="freeze"/><animateTransform attributeName="transform" type="translate" from="0 10" to="0 0" begin="0.252s" dur="0.42s" fill="freeze"/><line x1="221.8" y1="100.4" x2="221.8" y2="113.7" stroke="#3fb950" stroke-width="1.4"/><rect x="215.8" y="107.6" width="12.0" height="6.0" rx="1.4" fill="#3fb950"/></g><g opacity="0"><animate attributeName="opacity" from="0" to="1" begin="0.280s" dur="0.42s" fill="freeze"/><animateTransform attributeName="transform" type="translate" from="0 10" to="0 0" begin="0.280s" dur="0.42s" fill="freeze"/><line x1="242.4" y1="94.2" x2="242.4" y2="111.0" stroke="#3fb950" stroke-width="1.4"/><rect x="236.4" y="106.6" width="12.0" height="1.2" rx="1.4" fill="#3fb950"/></g><g opacity="0"><animate attributeName="opacity" from="0" to="1" begin="0.308s" dur="0.42s" fill="freeze"/><animateTransform attributeName="transform" type="translate" from="0 10" to="0 0" begin="0.308s" dur="0.42s" fill="freeze"/><line x1="263.0" y1="95.4" x2="263.0" y2="106.6" stroke="#3fb950" stroke-width="1.4"/><rect x="257.0" y="103.7" width="12.0" height="2.9" rx="1.4" fill="#3fb950"/></g><g opacity="0"><animate attributeName="opacity" from="0" to="1" begin="0.336s" dur="0.42s" fill="freeze"/><animateTransform attributeName="transform" type="translate" from="0 10" to="0 0" begin="0.336s" dur="0.42s" fill="freeze"/><line x1="283.6" y1="84.7" x2="283.6" y2="108.7" stroke="#3fb950" stroke-width="1.4"/><rect x="277.6" y="92.3" width="12.0" height="11.4" rx="1.4" fill="#3fb950"/></g><g opacity="0"><animate attributeName="opacity" from="0" to="1" begin="0.364s" dur="0.42s" fill="freeze"/><animateTransform attributeName="transform" type="translate" from="0 10" to="0 0" begin="0.364s" dur="0.42s" fill="freeze"/><line x1="304.2" y1="89.5" x2="304.2" y2="104.2" stroke="#f85149" stroke-width="1.4"/><rect x="298.2" y="92.3" width="12.0" height="11.9" rx="1.4" fill="#f85149"/></g><g opacity="0"><animate attributeName="opacity" from="0" to="1" begin="0.392s" dur="0.42s" fill="freeze"/><animateTransform attributeName="transform" type="translate" from="0 10" to="0 0" begin="0.392s" dur="0.42s" fill="freeze"/><line x1="324.8" y1="101.1" x2="324.8" y2="114.1" stroke="#3fb950" stroke-width="1.4"/><rect x="318.8" y="101.1" width="12.0" height="3.1" rx="1.4" fill="#3fb950"/></g><g opacity="0"><animate attributeName="opacity" from="0" to="1" begin="0.420s" dur="0.42s" fill="freeze"/><animateTransform attributeName="transform" type="translate" from="0 10" to="0 0" begin="0.420s" dur="0.42s" fill="freeze"/><line x1="345.4" y1="101.1" x2="345.4" y2="116.8" stroke="#f85149" stroke-width="1.4"/><rect x="339.5" y="101.1" width="12.0" height="15.8" rx="1.4" fill="#f85149"/></g><g opacity="0"><animate attributeName="opacity" from="0" to="1" begin="0.448s" dur="0.42s" fill="freeze"/><animateTransform attributeName="transform" type="translate" from="0 10" to="0 0" begin="0.448s" dur="0.42s" fill="freeze"/><line x1="366.0" y1="116.8" x2="366.0" y2="124.4" stroke="#f85149" stroke-width="1.4"/><rect x="360.1" y="116.8" width="12.0" height="7.6" rx="1.4" fill="#f85149"/></g><g opacity="0"><animate attributeName="opacity" from="0" to="1" begin="0.476s" dur="0.42s" fill="freeze"/><animateTransform attributeName="transform" type="translate" from="0 10" to="0 0" begin="0.476s" dur="0.42s" fill="freeze"/><line x1="386.7" y1="119.2" x2="386.7" y2="126.2" stroke="#f85149" stroke-width="1.4"/><rect x="380.7" y="124.4" width="12.0" height="1.2" rx="1.4" fill="#f85149"/></g><g opacity="0"><animate attributeName="opacity" from="0" to="1" begin="0.504s" dur="0.42s" fill="freeze"/><animateTransform attributeName="transform" type="translate" from="0 10" to="0 0" begin="0.504s" dur="0.42s" fill="freeze"/><line x1="407.3" y1="124.6" x2="407.3" y2="140.2" stroke="#f85149" stroke-width="1.4"/><rect x="401.3" y="124.6" width="12.0" height="10.5" rx="1.4" fill="#f85149"/></g><g opacity="0"><animate attributeName="opacity" from="0" to="1" begin="0.532s" dur="0.42s" fill="freeze"/><animateTransform attributeName="transform" type="translate" from="0 10" to="0 0" begin="0.532s" dur="0.42s" fill="freeze"/><line x1="427.9" y1="108.9" x2="427.9" y2="135.1" stroke="#3fb950" stroke-width="1.4"/><rect x="421.9" y="108.9" width="12.0" height="26.2" rx="1.4" fill="#3fb950"/></g><g opacity="0"><animate attributeName="opacity" from="0" to="1" begin="0.560s" dur="0.42s" fill="freeze"/><animateTransform attributeName="transform" type="translate" from="0 10" to="0 0" begin="0.560s" dur="0.42s" fill="freeze"/><line x1="448.5" y1="103.3" x2="448.5" y2="113.3" stroke="#3fb950" stroke-width="1.4"/><rect x="442.5" y="106.7" width="12.0" height="2.2" rx="1.4" fill="#3fb950"/></g><g opacity="0"><animate attributeName="opacity" from="0" to="1" begin="0.588s" dur="0.42s" fill="freeze"/><animateTransform attributeName="transform" type="translate" from="0 10" to="0 0" begin="0.588s" dur="0.42s" fill="freeze"/><line x1="469.1" y1="94.7" x2="469.1" y2="111.8" stroke="#f85149" stroke-width="1.4"/><rect x="463.1" y="106.7" width="12.0" height="1.2" rx="1.4" fill="#f85149"/></g><g opacity="0"><animate attributeName="opacity" from="0" to="1" begin="0.616s" dur="0.42s" fill="freeze"/><animateTransform attributeName="transform" type="translate" from="0 10" to="0 0" begin="0.616s" dur="0.42s" fill="freeze"/><line x1="489.7" y1="90.5" x2="489.7" y2="107.4" stroke="#3fb950" stroke-width="1.4"/><rect x="483.7" y="93.4" width="12.0" height="13.9" rx="1.4" fill="#3fb950"/></g><g opacity="0"><animate attributeName="opacity" from="0" to="1" begin="0.644s" dur="0.42s" fill="freeze"/><animateTransform attributeName="transform" type="translate" from="0 10" to="0 0" begin="0.644s" dur="0.42s" fill="freeze"/><line x1="510.3" y1="93.4" x2="510.3" y2="115.8" stroke="#f85149" stroke-width="1.4"/><rect x="504.3" y="93.4" width="12.0" height="9.0" rx="1.4" fill="#f85149"/></g><g opacity="0"><animate attributeName="opacity" from="0" to="1" begin="0.672s" dur="0.42s" fill="freeze"/><animateTransform attributeName="transform" type="translate" from="0 10" to="0 0" begin="0.672s" dur="0.42s" fill="freeze"/><line x1="530.9" y1="102.4" x2="530.9" y2="118.3" stroke="#f85149" stroke-width="1.4"/><rect x="524.9" y="102.4" width="12.0" height="1.2" rx="1.4" fill="#f85149"/></g><g opacity="0"><animate attributeName="opacity" from="0" to="1" begin="0.700s" dur="0.42s" fill="freeze"/><animateTransform attributeName="transform" type="translate" from="0 10" to="0 0" begin="0.700s" dur="0.42s" fill="freeze"/><line x1="551.5" y1="103.2" x2="551.5" y2="135.6" stroke="#f85149" stroke-width="1.4"/><rect x="545.5" y="103.2" width="12.0" height="27.5" rx="1.4" fill="#f85149"/></g><g opacity="0"><animate attributeName="opacity" from="0" to="1" begin="0.728s" dur="0.42s" fill="freeze"/><animateTransform attributeName="transform" type="translate" from="0 10" to="0 0" begin="0.728s" dur="0.42s" fill="freeze"/><line x1="572.1" y1="130.7" x2="572.1" y2="155.8" stroke="#f85149" stroke-width="1.4"/><rect x="566.2" y="130.7" width="12.0" height="25.1" rx="1.4" fill="#f85149"/></g><g opacity="0"><animate attributeName="opacity" from="0" to="1" begin="0.756s" dur="0.42s" fill="freeze"/><animateTransform attributeName="transform" type="translate" from="0 10" to="0 0" begin="0.756s" dur="0.42s" fill="freeze"/><line x1="592.7" y1="155.8" x2="592.7" y2="175.2" stroke="#f85149" stroke-width="1.4"/><rect x="586.8" y="155.8" width="12.0" height="19.4" rx="1.4" fill="#f85149"/></g><g opacity="0"><animate attributeName="opacity" from="0" to="1" begin="0.784s" dur="0.42s" fill="freeze"/><animateTransform attributeName="transform" type="translate" from="0 10" to="0 0" begin="0.784s" dur="0.42s" fill="freeze"/><line x1="613.3" y1="162.0" x2="613.3" y2="175.2" stroke="#3fb950" stroke-width="1.4"/><rect x="607.4" y="164.8" width="12.0" height="10.4" rx="1.4" fill="#3fb950"/></g><g opacity="0"><animate attributeName="opacity" from="0" to="1" begin="0.812s" dur="0.42s" fill="freeze"/><animateTransform attributeName="transform" type="translate" from="0 10" to="0 0" begin="0.812s" dur="0.42s" fill="freeze"/><line x1="634.0" y1="156.4" x2="634.0" y2="169.3" stroke="#3fb950" stroke-width="1.4"/><rect x="628.0" y="156.4" width="12.0" height="8.4" rx="1.4" fill="#3fb950"/></g><g opacity="0"><animate attributeName="opacity" from="0" to="1" begin="0.840s" dur="0.42s" fill="freeze"/><animateTransform attributeName="transform" type="translate" from="0 10" to="0 0" begin="0.840s" dur="0.42s" fill="freeze"/><line x1="654.6" y1="156.4" x2="654.6" y2="175.0" stroke="#f85149" stroke-width="1.4"/><rect x="648.6" y="156.4" width="12.0" height="18.6" rx="1.4" fill="#f85149"/></g><g opacity="0"><animate attributeName="opacity" from="0" to="1" begin="0.868s" dur="0.42s" fill="freeze"/><animateTransform attributeName="transform" type="translate" from="0 10" to="0 0" begin="0.868s" dur="0.42s" fill="freeze"/><line x1="675.2" y1="170.8" x2="675.2" y2="180.3" stroke="#f85149" stroke-width="1.4"/><rect x="669.2" y="175.0" width="12.0" height="5.2" rx="1.4" fill="#f85149"/></g><g opacity="0"><animate attributeName="opacity" from="0" to="1" begin="0.896s" dur="0.42s" fill="freeze"/><animateTransform attributeName="transform" type="translate" from="0 10" to="0 0" begin="0.896s" dur="0.42s" fill="freeze"/><line x1="695.8" y1="163.4" x2="695.8" y2="181.8" stroke="#3fb950" stroke-width="1.4"/><rect x="689.8" y="163.4" width="12.0" height="16.9" rx="1.4" fill="#3fb950"/></g><g opacity="0"><animate attributeName="opacity" from="0" to="1" begin="0.924s" dur="0.42s" fill="freeze"/><animateTransform attributeName="transform" type="translate" from="0 10" to="0 0" begin="0.924s" dur="0.42s" fill="freeze"/><line x1="716.4" y1="163.4" x2="716.4" y2="173.6" stroke="#f85149" stroke-width="1.4"/><rect x="710.4" y="163.4" width="12.0" height="4.0" rx="1.4" fill="#f85149"/></g><g opacity="0"><animate attributeName="opacity" from="0" to="1" begin="0.952s" dur="0.42s" fill="freeze"/><animateTransform attributeName="transform" type="translate" from="0 10" to="0 0" begin="0.952s" dur="0.42s" fill="freeze"/><line x1="737.0" y1="157.5" x2="737.0" y2="168.8" stroke="#3fb950" stroke-width="1.4"/><rect x="731.0" y="166.0" width="12.0" height="1.4" rx="1.4" fill="#3fb950"/></g><g opacity="0"><animate attributeName="opacity" from="0" to="1" begin="0.980s" dur="0.42s" fill="freeze"/><animateTransform attributeName="transform" type="translate" from="0 10" to="0 0" begin="0.980s" dur="0.42s" fill="freeze"/><line x1="757.6" y1="149.8" x2="757.6" y2="167.1" stroke="#3fb950" stroke-width="1.4"/><rect x="751.6" y="149.8" width="12.0" height="16.2" rx="1.4" fill="#3fb950"/></g><g opacity="0"><animate attributeName="opacity" from="0" to="1" begin="1.008s" dur="0.42s" fill="freeze"/><animateTransform attributeName="transform" type="translate" from="0 10" to="0 0" begin="1.008s" dur="0.42s" fill="freeze"/><line x1="778.2" y1="146.2" x2="778.2" y2="155.8" stroke="#f85149" stroke-width="1.4"/><rect x="772.2" y="149.8" width="12.0" height="1.9" rx="1.4" fill="#f85149"/></g><g opacity="0"><animate attributeName="opacity" from="0" to="1" begin="1.036s" dur="0.42s" fill="freeze"/><animateTransform attributeName="transform" type="translate" from="0 10" to="0 0" begin="1.036s" dur="0.42s" fill="freeze"/><line x1="798.8" y1="150.1" x2="798.8" y2="162.2" stroke="#f85149" stroke-width="1.4"/><rect x="792.8" y="151.7" width="12.0" height="8.9" rx="1.4" fill="#f85149"/></g><g opacity="0"><animate attributeName="opacity" from="0" to="1" begin="1.064s" dur="0.42s" fill="freeze"/><animateTransform attributeName="transform" type="translate" from="0 10" to="0 0" begin="1.064s" dur="0.42s" fill="freeze"/><line x1="819.4" y1="153.4" x2="819.4" y2="164.1" stroke="#f85149" stroke-width="1.4"/><rect x="813.5" y="160.6" width="12.0" height="3.5" rx="1.4" fill="#f85149"/></g><g opacity="0"><animate attributeName="opacity" from="0" to="1" begin="1.092s" dur="0.42s" fill="freeze"/><animateTransform attributeName="transform" type="translate" from="0 10" to="0 0" begin="1.092s" dur="0.42s" fill="freeze"/><line x1="840.0" y1="159.2" x2="840.0" y2="166.3" stroke="#f85149" stroke-width="1.4"/><rect x="834.1" y="164.1" width="12.0" height="2.2" rx="1.4" fill="#f85149"/></g><g opacity="0"><animate attributeName="opacity" from="0" to="1" begin="1.120s" dur="0.42s" fill="freeze"/><animateTransform attributeName="transform" type="translate" from="0 10" to="0 0" begin="1.120s" dur="0.42s" fill="freeze"/><line x1="860.7" y1="166.3" x2="860.7" y2="177.9" stroke="#f85149" stroke-width="1.4"/><rect x="854.7" y="166.3" width="12.0" height="10.0" rx="1.4" fill="#f85149"/></g><g opacity="0"><animate attributeName="opacity" from="0" to="1" begin="1.148s" dur="0.42s" fill="freeze"/><animateTransform attributeName="transform" type="translate" from="0 10" to="0 0" begin="1.148s" dur="0.42s" fill="freeze"/><line x1="881.3" y1="176.2" x2="881.3" y2="193.3" stroke="#f85149" stroke-width="1.4"/><rect x="875.3" y="176.3" width="12.0" height="17.0" rx="1.4" fill="#f85149"/></g><g opacity="0"><animate attributeName="opacity" from="0" to="1" begin="1.176s" dur="0.42s" fill="freeze"/><animateTransform attributeName="transform" type="translate" from="0 10" to="0 0" begin="1.176s" dur="0.42s" fill="freeze"/><line x1="901.9" y1="183.2" x2="901.9" y2="193.3" stroke="#3fb950" stroke-width="1.4"/><rect x="895.9" y="187.1" width="12.0" height="6.2" rx="1.4" fill="#3fb950"/></g><g opacity="0"><animate attributeName="opacity" from="0" to="1" begin="1.204s" dur="0.42s" fill="freeze"/><animateTransform attributeName="transform" type="translate" from="0 10" to="0 0" begin="1.204s" dur="0.42s" fill="freeze"/><line x1="922.5" y1="187.1" x2="922.5" y2="201.3" stroke="#f85149" stroke-width="1.4"/><rect x="916.5" y="187.1" width="12.0" height="14.2" rx="1.4" fill="#f85149"/></g><g opacity="0"><animate attributeName="opacity" from="0" to="1" begin="1.232s" dur="0.42s" fill="freeze"/><animateTransform attributeName="transform" type="translate" from="0 10" to="0 0" begin="1.232s" dur="0.42s" fill="freeze"/><line x1="943.1" y1="201.3" x2="943.1" y2="214.0" stroke="#f85149" stroke-width="1.4"/><rect x="937.1" y="201.3" width="12.0" height="5.5" rx="1.4" fill="#f85149"/></g><g opacity="0"><animate attributeName="opacity" from="0" to="1" begin="1.260s" dur="0.42s" fill="freeze"/><animateTransform attributeName="transform" type="translate" from="0 10" to="0 0" begin="1.260s" dur="0.42s" fill="freeze"/><line x1="963.7" y1="205.2" x2="963.7" y2="211.9" stroke="#f85149" stroke-width="1.4"/><rect x="957.7" y="206.8" width="12.0" height="1.7" rx="1.4" fill="#f85149"/></g><polyline points="180.6,117.7 201.2,113.8 221.8,107.7 242.4,102.4 263.0,100.0 283.6,99.7 304.2,102.0 324.8,103.2 345.4,105.7 366.0,107.1 386.7,109.2 407.3,112.8 427.9,113.4 448.5,115.2 469.1,115.6 489.7,114.7 510.3,112.9 530.9,110.2 551.5,111.0 572.1,113.6 592.7,121.8 613.3,129.1 634.0,135.2 654.6,145.4 675.2,155.2 695.8,162.7 716.4,167.3 737.0,168.6 757.6,165.4 778.2,163.8 798.8,164.3 819.4,162.9 840.0,161.2 860.7,162.8 881.3,166.0 901.9,168.6 922.5,175.1 943.1,182.0 963.7,188.0" fill="none" stroke="#58a6ff" stroke-width="2" stroke-linecap="round" stroke-linejoin="round" filter="url(#soft)" stroke-dasharray="948" stroke-dashoffset="948"><animate attributeName="stroke-dashoffset" from="948" to="0" begin="0.4s" dur="1.5s" fill="freeze"/></polyline><g opacity="0"><animate attributeName="opacity" from="0" to="1" begin="0.2s" dur="0.9s" fill="freeze"/><text x="32" y="40" font-family="'Segoe UI',Helvetica,Arial,sans-serif" font-size="30" font-weight="700" fill="#e6edf3">hilothefunnydog123-coder</text><text x="34" y="62" font-family="'Segoe UI',Helvetica,Arial,sans-serif" font-size="14" fill="#8b949e">quant tooling · market simulators · fintech · building the whole stack</text><circle cx="966" cy="34" r="4" fill="#3fb950"><animate attributeName="opacity" values="1;0.25;1" dur="1.6s" repeatCount="indefinite"/></circle><text x="954" y="38" text-anchor="end" font-family="'Segoe UI',Helvetica,Arial,sans-serif" font-size="12" fill="#8b949e">LIVE</text></g></svg>