<svg xmlns="http://www.w3.org/2000/svg" viewBox="0 0 1000 240" width="100%" role="img" aria-label="animated market banner"><defs>
      <linearGradient id="bg" x1="0" y1="0" x2="0" y2="1">
        <stop offset="0" stop-color="#0f1420"/><stop offset="1" stop-color="#0a0d14"/>
      </linearGradient>
      <linearGradient id="glow" x1="0" y1="0" x2="1" y2="0">
        <stop offset="0" stop-color="#58a6ff" stop-opacity="0"/>
        <stop offset="1" stop-color="#58a6ff" stop-opacity="0.10"/>
      </linearGradient>
      <filter id="soft"><feGaussianBlur stdDeviation="0.4"/></filter>
    </defs><rect x="1" y="1" width="998" height="238" rx="16" fill="url(#bg)" stroke="#232b3a"/><rect x="1" y="1" width="998" height="238" rx="16" fill="url(#glow)"/><line x1="26" y1="102.0" x2="974" y2="102.0" stroke="#1b2230" stroke-width="1"/><line x1="26" y1="130.0" x2="974" y2="130.0" stroke="#1b2230" stroke-width="1"/><line x1="26" y1="158.0" x2="974" y2="158.0" stroke="#1b2230" stroke-width="1"/><line x1="26" y1="186.0" x2="974" y2="186.0" stroke="#1b2230" stroke-width="1"/><g opacity="0"><animate attributeName="opacity" from="0" to="1" begin="0.000s" dur="0.42s" fill="freeze"/><animateTransform attributeName="transform" type="translate" from="0 10" to="0 0" begin="0.000s" dur="0.42s" fill="freeze"/><line x1="36.3" y1="123.8" x2="36.3" y2="136.7" stroke="#f85149" stroke-width="1.4"/><rect x="30.3" y="123.8" width="12.0" height="6.8" rx="1.4" fill="#f85149"/></g><g opacity="0"><animate attributeName="opacity" from="0" to="1" begin="0.028s" dur="0.42s" fill="freeze"/><animateTransform attributeName="transform" type="translate" from="0 10" to="0 0" begin="0.028s" dur="0.42s" fill="freeze"/><line x1="56.9" y1="123.8" x2="56.9" y2="149.1" stroke="#3fb950" stroke-width="1.4"/><rect x="50.9" y="123.8" width="12.0" height="6.9" rx="1.4" fill="#3fb950"/></g><g opacity="0"><animate attributeName="opacity" from="0" to="1" begin="0.056s" dur="0.42s" fill="freeze"/><animateTransform attributeName="transform" type="translate" from="0 10" to="0 0" begin="0.056s" dur="0.42s" fill="freeze"/><line x1="77.5" y1="111.3" x2="77.5" y2="140.1" stroke="#3fb950" stroke-width="1.4"/><rect x="71.5" y="112.0" width="12.0" height="11.8" rx="1.4" fill="#3fb950"/></g><g opacity="0"><animate attributeName="opacity" from="0" to="1" begin="0.084s" dur="0.42s" fill="freeze"/><animateTransform attributeName="transform" type="translate" from="0 10" to="0 0" begin="0.084s" dur="0.42s" fill="freeze"/><line x1="98.1" y1="88.6" x2="98.1" y2="114.0" stroke="#3fb950" stroke-width="1.4"/><rect x="92.2" y="109.5" width="12.0" height="2.5" rx="1.4" fill="#3fb950"/></g><g opacity="0"><animate attributeName="opacity" from="0" to="1" begin="0.112s" dur="0.42s" fill="freeze"/><animateTransform attributeName="transform" type="translate" from="0 10" to="0 0" begin="0.112s" dur="0.42s" fill="freeze"/><line x1="118.7" y1="109.5" x2="118.7" y2="126.6" stroke="#f85149" stroke-width="1.4"/><rect x="112.8" y="109.5" width="12.0" height="10.6" rx="1.4" fill="#f85149"/></g><g opacity="0"><animate attributeName="opacity" from="0" to="1" begin="0.140s" dur="0.42s" fill="freeze"/><animateTransform attributeName="transform" type="translate" from="0 10" to="0 0" begin="0.140s" dur="0.42s" fill="freeze"/><line x1="139.3" y1="120.1" x2="139.3" y2="148.5" stroke="#f85149" stroke-width="1.4"/><rect x="133.4" y="120.1" width="12.0" height="27.7" rx="1.4" fill="#f85149"/></g><g opacity="0"><animate attributeName="opacity" from="0" to="1" begin="0.168s" dur="0.42s" fill="freeze"/><animateTransform attributeName="transform" type="translate" from="0 10" to="0 0" begin="0.168s" dur="0.42s" fill="freeze"/><line x1="160.0" y1="126.2" x2="160.0" y2="162.2" stroke="#f85149" stroke-width="1.4"/><rect x="154.0" y="147.8" width="12.0" height="14.4" rx="1.4" fill="#f85149"/></g><g opacity="0"><animate attributeName="opacity" from="0" to="1" begin="0.196s" dur="0.42s" fill="freeze"/><animateTransform attributeName="transform" type="translate" from="0 10" to="0 0" begin="0.196s" dur="0.42s" fill="freeze"/><line x1="180.6" y1="121.1" x2="180.6" y2="163.3" stroke="#3fb950" stroke-width="1.4"/><rect x="174.6" y="121.1" width="12.0" height="41.1" rx="1.4" fill="#3fb950"/></g><g opacity="0"><animate attributeName="opacity" from="0" to="1" begin="0.224s" dur="0.42s" fill="freeze"/><animateTransform attributeName="transform" type="translate" from="0 10" to="0 0" begin="0.224s" dur="0.42s" fill="freeze"/><line x1="201.2" y1="104.3" x2="201.2" y2="146.8" stroke="#f85149" stroke-width="1.4"/><rect x="195.2" y="121.1" width="12.0" height="25.7" rx="1.4" fill="#f85149"/></g><g opacity="0"><animate attributeName="opacity" from="0" to="1" begin="0.252s" dur="0.42s" fill="freeze"/><animateTransform attributeName="transform" type="translate" from="0 10" to="0 0" begin="0.252s" dur="0.42s" fill="freeze"/><line x1="221.8" y1="144.5" x2="221.8" y2="159.3" stroke="#f85149" stroke-width="1.4"/><rect x="215.8" y="146.8" width="12.0" height="4.1" rx="1.4" fill="#f85149"/></g><g opacity="0"><animate attributeName="opacity" from="0" to="1" begin="0.280s" dur="0.42s" fill="freeze"/><animateTransform attributeName="transform" type="translate" from="0 10" to="0 0" begin="0.280s" dur="0.42s" fill="freeze"/><line x1="242.4" y1="142.3" x2="242.4" y2="171.1" stroke="#f85149" stroke-width="1.4"/><rect x="236.4" y="150.9" width="12.0" height="20.2" rx="1.4" fill="#f85149"/></g><g opacity="0"><animate attributeName="opacity" from="0" to="1" begin="0.308s" dur="0.42s" fill="freeze"/><animateTransform attributeName="transform" type="translate" from="0 10" to="0 0" begin="0.308s" dur="0.42s" fill="freeze"/><line x1="263.0" y1="160.9" x2="263.0" y2="181.8" stroke="#3fb950" stroke-width="1.4"/><rect x="257.0" y="163.9" width="12.0" height="7.2" rx="1.4" fill="#3fb950"/></g><g opacity="0"><animate attributeName="opacity" from="0" to="1" begin="0.336s" dur="0.42s" fill="freeze"/><animateTransform attributeName="transform" type="translate" from="0 10" to="0 0" begin="0.336s" dur="0.42s" fill="freeze"/><line x1="283.6" y1="163.9" x2="283.6" y2="179.7" stroke="#f85149" stroke-width="1.4"/><rect x="277.6" y="163.9" width="12.0" height="5.5" rx="1.4" fill="#f85149"/></g><g opacity="0"><animate attributeName="opacity" from="0" to="1" begin="0.364s" dur="0.42s" fill="freeze"/><animateTransform attributeName="transform" type="translate" from="0 10" to="0 0" begin="0.364s" dur="0.42s" fill="freeze"/><line x1="304.2" y1="133.4" x2="304.2" y2="174.2" stroke="#3fb950" stroke-width="1.4"/><rect x="298.2" y="154.5" width="12.0" height="14.9" rx="1.4" fill="#3fb950"/></g><g opacity="0"><animate attributeName="opacity" from="0" to="1" begin="0.392s" dur="0.42s" fill="freeze"/><animateTransform attributeName="transform" type="translate" from="0 10" to="0 0" begin="0.392s" dur="0.42s" fill="freeze"/><line x1="324.8" y1="122.1" x2="324.8" y2="154.5" stroke="#3fb950" stroke-width="1.4"/><rect x="318.8" y="123.8" width="12.0" height="30.8" rx="1.4" fill="#3fb950"/></g><g opacity="0"><animate attributeName="opacity" from="0" to="1" begin="0.420s" dur="0.42s" fill="freeze"/><animateTransform attributeName="transform" type="translate" from="0 10" to="0 0" begin="0.420s" dur="0.42s" fill="freeze"/><line x1="345.4" y1="121.8" x2="345.4" y2="141.3" stroke="#f85149" stroke-width="1.4"/><rect x="339.5" y="123.8" width="12.0" height="16.7" rx="1.4" fill="#f85149"/></g><g opacity="0"><animate attributeName="opacity" from="0" to="1" begin="0.448s" dur="0.42s" fill="freeze"/><animateTransform attributeName="transform" type="translate" from="0 10" to="0 0" begin="0.448s" dur="0.42s" fill="freeze"/><line x1="366.0" y1="139.6" x2="366.0" y2="170.0" stroke="#f85149" stroke-width="1.4"/><rect x="360.1" y="140.5" width="12.0" height="29.5" rx="1.4" fill="#f85149"/></g><g opacity="0"><animate attributeName="opacity" from="0" to="1" begin="0.476s" dur="0.42s" fill="freeze"/><animateTransform attributeName="transform" type="translate" from="0 10" to="0 0" begin="0.476s" dur="0.42s" fill="freeze"/><line x1="386.7" y1="170.0" x2="386.7" y2="194.0" stroke="#f85149" stroke-width="1.4"/><rect x="380.7" y="170.0" width="12.0" height="16.0" rx="1.4" fill="#f85149"/></g><g opacity="0"><animate attributeName="opacity" from="0" to="1" begin="0.504s" dur="0.42s" fill="freeze"/><animateTransform attributeName="transform" type="translate" from="0 10" to="0 0" begin="0.504s" dur="0.42s" fill="freeze"/><line x1="407.3" y1="171.6" x2="407.3" y2="186.0" stroke="#3fb950" stroke-width="1.4"/><rect x="401.3" y="182.2" width="12.0" height="3.8" rx="1.4" fill="#3fb950"/></g><g opacity="0"><animate attributeName="opacity" from="0" to="1" begin="0.532s" dur="0.42s" fill="freeze"/><animateTransform attributeName="transform" type="translate" from="0 10" to="0 0" begin="0.532s" dur="0.42s" fill="freeze"/><line x1="427.9" y1="161.8" x2="427.9" y2="182.2" stroke="#3fb950" stroke-width="1.4"/><rect x="421.9" y="172.7" width="12.0" height="9.5" rx="1.4" fill="#3fb950"/></g><g opacity="0"><animate attributeName="opacity" from="0" to="1" begin="0.560s" dur="0.42s" fill="freeze"/><animateTransform attributeName="transform" type="translate" from="0 10" to="0 0" begin="0.560s" dur="0.42s" fill="freeze"/><line x1="448.5" y1="172.7" x2="448.5" y2="205.7" stroke="#f85149" stroke-width="1.4"/><rect x="442.5" y="172.7" width="12.0" height="33.0" rx="1.4" fill="#f85149"/></g><g opacity="0"><animate attributeName="opacity" from="0" to="1" begin="0.588s" dur="0.42s" fill="freeze"/><animateTransform attributeName="transform" type="translate" from="0 10" to="0 0" begin="0.588s" dur="0.42s" fill="freeze"/><line x1="469.1" y1="179.5" x2="469.1" y2="208.7" stroke="#3fb950" stroke-width="1.4"/><rect x="463.1" y="179.5" width="12.0" height="26.2" rx="1.4" fill="#3fb950"/></g><g opacity="0"><animate attributeName="opacity" from="0" to="1" begin="0.616s" dur="0.42s" fill="freeze"/><animateTransform attributeName="transform" type="translate" from="0 10" to="0 0" begin="0.616s" dur="0.42s" fill="freeze"/><line x1="489.7" y1="142.5" x2="489.7" y2="179.5" stroke="#3fb950" stroke-width="1.4"/><rect x="483.7" y="142.5" width="12.0" height="37.1" rx="1.4" fill="#3fb950"/></g><g opacity="0"><animate attributeName="opacity" from="0" to="1" begin="0.644s" dur="0.42s" fill="freeze"/><animateTransform attributeName="transform" type="translate" from="0 10" to="0 0" begin="0.644s" dur="0.42s" fill="freeze"/><line x1="510.3" y1="122.9" x2="510.3" y2="142.5" stroke="#3fb950" stroke-width="1.4"/><rect x="504.3" y="134.0" width="12.0" height="8.5" rx="1.4" fill="#3fb950"/></g><g opacity="0"><animate attributeName="opacity" from="0" to="1" begin="0.672s" dur="0.42s" fill="freeze"/><animateTransform attributeName="transform" type="translate" from="0 10" to="0 0" begin="0.672s" dur="0.42s" fill="freeze"/><line x1="530.9" y1="110.7" x2="530.9" y2="134.0" stroke="#3fb950" stroke-width="1.4"/><rect x="524.9" y="122.7" width="12.0" height="11.3" rx="1.4" fill="#3fb950"/></g><g opacity="0"><animate attributeName="opacity" from="0" to="1" begin="0.700s" dur="0.42s" fill="freeze"/><animateTransform attributeName="transform" type="translate" from="0 10" to="0 0" begin="0.700s" dur="0.42s" fill="freeze"/><line x1="551.5" y1="74.0" x2="551.5" y2="122.7" stroke="#3fb950" stroke-width="1.4"/><rect x="545.5" y="91.6" width="12.0" height="31.1" rx="1.4" fill="#3fb950"/></g><g opacity="0"><animate attributeName="opacity" from="0" to="1" begin="0.728s" dur="0.42s" fill="freeze"/><animateTransform attributeName="transform" type="translate" from="0 10" to="0 0" begin="0.728s" dur="0.42s" fill="freeze"/><line x1="572.1" y1="83.0" x2="572.1" y2="104.2" stroke="#f85149" stroke-width="1.4"/><rect x="566.2" y="91.6" width="12.0" height="3.5" rx="1.4" fill="#f85149"/></g><g opacity="0"><animate attributeName="opacity" from="0" to="1" begin="0.756s" dur="0.42s" fill="freeze"/><animateTransform attributeName="transform" type="translate" from="0 10" to="0 0" begin="0.756s" dur="0.42s" fill="freeze"/><line x1="592.7" y1="86.7" x2="592.7" y2="121.7" stroke="#f85149" stroke-width="1.4"/><rect x="586.8" y="95.1" width="12.0" height="26.6" rx="1.4" fill="#f85149"/></g><g opacity="0"><animate attributeName="opacity" from="0" to="1" begin="0.784s" dur="0.42s" fill="freeze"/><animateTransform attributeName="transform" type="translate" from="0 10" to="0 0" begin="0.784s" dur="0.42s" fill="freeze"/><line x1="613.3" y1="121.7" x2="613.3" y2="142.6" stroke="#f85149" stroke-width="1.4"/><rect x="607.4" y="121.7" width="12.0" height="16.7" rx="1.4" fill="#f85149"/></g><g opacity="0"><animate attributeName="opacity" from="0" to="1" begin="0.812s" dur="0.42s" fill="freeze"/><animateTransform attributeName="transform" type="translate" from="0 10" to="0 0" begin="0.812s" dur="0.42s" fill="freeze"/><line x1="634.0" y1="138.4" x2="634.0" y2="162.7" stroke="#f85149" stroke-width="1.4"/><rect x="628.0" y="138.4" width="12.0" height="8.8" rx="1.4" fill="#f85149"/></g><g opacity="0"><animate attributeName="opacity" from="0" to="1" begin="0.840s" dur="0.42s" fill="freeze"/><animateTransform attributeName="transform" type="translate" from="0 10" to="0 0" begin="0.840s" dur="0.42s" fill="freeze"/><line x1="654.6" y1="125.7" x2="654.6" y2="158.3" stroke="#f85149" stroke-width="1.4"/><rect x="648.6" y="147.2" width="12.0" height="3.1" rx="1.4" fill="#f85149"/></g><g opacity="0"><animate attributeName="opacity" from="0" to="1" begin="0.868s" dur="0.42s" fill="freeze"/><animateTransform attributeName="transform" type="translate" from="0 10" to="0 0" begin="0.868s" dur="0.42s" fill="freeze"/><line x1="675.2" y1="150.3" x2="675.2" y2="166.0" stroke="#f85149" stroke-width="1.4"/><rect x="669.2" y="150.3" width="12.0" height="10.3" rx="1.4" fill="#f85149"/></g><g opacity="0"><animate attributeName="opacity" from="0" to="1" begin="0.896s" dur="0.42s" fill="freeze"/><animateTransform attributeName="transform" type="translate" from="0 10" to="0 0" begin="0.896s" dur="0.42s" fill="freeze"/><line x1="695.8" y1="146.7" x2="695.8" y2="175.1" stroke="#f85149" stroke-width="1.4"/><rect x="689.8" y="160.6" width="12.0" height="7.1" rx="1.4" fill="#f85149"/></g><g opacity="0"><animate attributeName="opacity" from="0" to="1" begin="0.924s" dur="0.42s" fill="freeze"/><animateTransform attributeName="transform" type="translate" from="0 10" to="0 0" begin="0.924s" dur="0.42s" fill="freeze"/><line x1="716.4" y1="152.1" x2="716.4" y2="171.7" stroke="#3fb950" stroke-width="1.4"/><rect x="710.4" y="152.1" width="12.0" height="15.5" rx="1.4" fill="#3fb950"/></g><g opacity="0"><animate attributeName="opacity" from="0" to="1" begin="0.952s" dur="0.42s" fill="freeze"/><animateTransform attributeName="transform" type="translate" from="0 10" to="0 0" begin="0.952s" dur="0.42s" fill="freeze"/><line x1="737.0" y1="149.7" x2="737.0" y2="172.7" stroke="#3fb950" stroke-width="1.4"/><rect x="731.0" y="149.7" width="12.0" height="2.4" rx="1.4" fill="#3fb950"/></g><g opacity="0"><animate attributeName="opacity" from="0" to="1" begin="0.980s" dur="0.42s" fill="freeze"/><animateTransform attributeName="transform" type="translate" from="0 10" to="0 0" begin="0.980s" dur="0.42s" fill="freeze"/><line x1="757.6" y1="133.3" x2="757.6" y2="152.7" stroke="#3fb950" stroke-width="1.4"/><rect x="751.6" y="140.2" width="12.0" height="9.5" rx="1.4" fill="#3fb950"/></g><g opacity="0"><animate attributeName="opacity" from="0" to="1" begin="1.008s" dur="0.42s" fill="freeze"/><animateTransform attributeName="transform" type="translate" from="0 10" to="0 0" begin="1.008s" dur="0.42s" fill="freeze"/><line x1="778.2" y1="120.8" x2="778.2" y2="144.2" stroke="#3fb950" stroke-width="1.4"/><rect x="772.2" y="120.8" width="12.0" height="19.4" rx="1.4" fill="#3fb950"/></g><g opacity="0"><animate attributeName="opacity" from="0" to="1" begin="1.036s" dur="0.42s" fill="freeze"/><animateTransform attributeName="transform" type="translate" from="0 10" to="0 0" begin="1.036s" dur="0.42s" fill="freeze"/><line x1="798.8" y1="103.5" x2="798.8" y2="137.3" stroke="#f85149" stroke-width="1.4"/><rect x="792.8" y="120.8" width="12.0" height="16.4" rx="1.4" fill="#f85149"/></g><g opacity="0"><animate attributeName="opacity" from="0" to="1" begin="1.064s" dur="0.42s" fill="freeze"/><animateTransform attributeName="transform" type="translate" from="0 10" to="0 0" begin="1.064s" dur="0.42s" fill="freeze"/><line x1="819.4" y1="124.0" x2="819.4" y2="141.2" stroke="#3fb950" stroke-width="1.4"/><rect x="813.5" y="130.6" width="12.0" height="6.7" rx="1.4" fill="#3fb950"/></g><g opacity="0"><animate attributeName="opacity" from="0" to="1" begin="1.092s" dur="0.42s" fill="freeze"/><animateTransform attributeName="transform" type="translate" from="0 10" to="0 0" begin="1.092s" dur="0.42s" fill="freeze"/><line x1="840.0" y1="128.5" x2="840.0" y2="139.0" stroke="#f85149" stroke-width="1.4"/><rect x="834.1" y="130.6" width="12.0" height="4.1" rx="1.4" fill="#f85149"/></g><g opacity="0"><animate attributeName="opacity" from="0" to="1" begin="1.120s" dur="0.42s" fill="freeze"/><animateTransform attributeName="transform" type="translate" from="0 10" to="0 0" begin="1.120s" dur="0.42s" fill="freeze"/><line x1="860.7" y1="120.4" x2="860.7" y2="134.7" stroke="#3fb950" stroke-width="1.4"/><rect x="854.7" y="131.5" width="12.0" height="3.2" rx="1.4" fill="#3fb950"/></g><g opacity="0"><animate attributeName="opacity" from="0" to="1" begin="1.148s" dur="0.42s" fill="freeze"/><animateTransform attributeName="transform" type="translate" from="0 10" to="0 0" begin="1.148s" dur="0.42s" fill="freeze"/><line x1="881.3" y1="119.2" x2="881.3" y2="131.5" stroke="#3fb950" stroke-width="1.4"/><rect x="875.3" y="125.5" width="12.0" height="6.0" rx="1.4" fill="#3fb950"/></g><g opacity="0"><animate attributeName="opacity" from="0" to="1" begin="1.176s" dur="0.42s" fill="freeze"/><animateTransform attributeName="transform" type="translate" from="0 10" to="0 0" begin="1.176s" dur="0.42s" fill="freeze"/><line x1="901.9" y1="125.5" x2="901.9" y2="156.3" stroke="#f85149" stroke-width="1.4"/><rect x="895.9" y="125.5" width="12.0" height="18.8" rx="1.4" fill="#f85149"/></g><g opacity="0"><animate attributeName="opacity" from="0" to="1" begin="1.204s" dur="0.42s" fill="freeze"/><animateTransform attributeName="transform" type="translate" from="0 10" to="0 0" begin="1.204s" dur="0.42s" fill="freeze"/><line x1="922.5" y1="144.2" x2="922.5" y2="166.1" stroke="#f85149" stroke-width="1.4"/><rect x="916.5" y="144.2" width="12.0" height="21.8" rx="1.4" fill="#f85149"/></g><g opacity="0"><animate attributeName="opacity" from="0" to="1" begin="1.232s" dur="0.42s" fill="freeze"/><animateTransform attributeName="transform" type="translate" from="0 10" to="0 0" begin="1.232s" dur="0.42s" fill="freeze"/><line x1="943.1" y1="166.1" x2="943.1" y2="214.0" stroke="#f85149" stroke-width="1.4"/><rect x="937.1" y="166.1" width="12.0" height="47.9" rx="1.4" fill="#f85149"/></g><g opacity="0"><animate attributeName="opacity" from="0" to="1" begin="1.260s" dur="0.42s" fill="freeze"/><animateTransform attributeName="transform" type="translate" from="0 10" to="0 0" begin="1.260s" dur="0.42s" fill="freeze"/><line x1="963.7" y1="197.2" x2="963.7" y2="214.0" stroke="#3fb950" stroke-width="1.4"/><rect x="957.7" y="201.4" width="12.0" height="12.6" rx="1.4" fill="#3fb950"/></g><polyline points="180.6,128.4 201.2,130.4 221.8,133.8 242.4,141.2 263.0,148.0 283.6,154.2 304.2,155.0 324.8,150.2 345.4,152.6 366.0,155.5 386.7,159.9 407.3,161.3 427.9,162.4 448.5,166.9 469.1,170.1 489.7,172.4 510.3,171.6 530.9,165.7 551.5,153.9 572.1,143.0 592.7,136.6 613.3,128.2 634.0,124.1 654.6,125.1 675.2,128.4 695.8,134.1 716.4,141.6 737.0,148.4 757.6,150.8 778.2,148.6 798.8,147.3 819.4,144.9 840.0,141.6 860.7,137.1 881.3,133.8 901.9,133.1 922.5,136.3 943.1,148.0 963.7,156.0" fill="none" stroke="#58a6ff" stroke-width="2" stroke-linecap="round" stroke-linejoin="round" filter="url(#soft)" stroke-dasharray="948" stroke-dashoffset="948"><animate attributeName="stroke-dashoffset" from="948" to="0" begin="0.4s" dur="1.5s" fill="freeze"/></polyline><g opacity="0"><animate attributeName="opacity" from="0" to="1" begin="0.2s" dur="0.9s" fill="freeze"/><text x="32" y="40" font-family="'Segoe UI',Helvetica,Arial,sans-serif" font-size="30" font-weight="700" fill="#e6edf3">hilothefunnydog123-coder</text><text x="34" y="62" font-family="'Segoe UI',Helvetica,Arial,sans-serif" font-size="14" fill="#8b949e">quant tooling · market simulators · fintech · building the whole stack</text><circle cx="966" cy="34" r="4" fill="#3fb950"><animate attributeName="opacity" values="1;0.25;1" dur="1.6s" repeatCount="indefinite"/></circle><text x="954" y="38" text-anchor="end" font-family="'Segoe UI',Helvetica,Arial,sans-serif" font-size="12" fill="#8b949e">LIVE</text></g></svg>