<svg xmlns="http://www.w3.org/2000/svg" viewBox="0 0 1000 240" width="100%" role="img" aria-label="animated market banner"><defs>
      <linearGradient id="bg" x1="0" y1="0" x2="0" y2="1">
        <stop offset="0" stop-color="#0f1420"/><stop offset="1" stop-color="#0a0d14"/>
      </linearGradient>
      <linearGradient id="glow" x1="0" y1="0" x2="1" y2="0">
        <stop offset="0" stop-color="#58a6ff" stop-opacity="0"/>
        <stop offset="1" stop-color="#58a6ff" stop-opacity="0.10"/>
      </linearGradient>
      <filter id="soft"><feGaussianBlur stdDeviation="0.4"/></filter>
    </defs><rect x="1" y="1" width="998" height="238" rx="16" fill="url(#bg)" stroke="#232b3a"/><rect x="1" y="1" width="998" height="238" rx="16" fill="url(#glow)"/><line x1="26" y1="102.0" x2="974" y2="102.0" stroke="#1b2230" stroke-width="1"/><line x1="26" y1="130.0" x2="974" y2="130.0" stroke="#1b2230" stroke-width="1"/><line x1="26" y1="158.0" x2="974" y2="158.0" stroke="#1b2230" stroke-width="1"/><line x1="26" y1="186.0" x2="974" y2="186.0" stroke="#1b2230" stroke-width="1"/><g opacity="0"><animate attributeName="opacity" from="0" to="1" begin="0.000s" dur="0.42s" fill="freeze"/><animateTransform attributeName="transform" type="translate" from="0 10" to="0 0" begin="0.000s" dur="0.42s" fill="freeze"/><line x1="36.3" y1="83.0" x2="36.3" y2="101.0" stroke="#f85149" stroke-width="1.4"/><rect x="30.3" y="90.0" width="12.0" height="11.0" rx="1.4" fill="#f85149"/></g><g opacity="0"><animate attributeName="opacity" from="0" to="1" begin="0.028s" dur="0.42s" fill="freeze"/><animateTransform attributeName="transform" type="translate" from="0 10" to="0 0" begin="0.028s" dur="0.42s" fill="freeze"/><line x1="56.9" y1="96.4" x2="56.9" y2="103.6" stroke="#f85149" stroke-width="1.4"/><rect x="50.9" y="101.0" width="12.0" height="2.6" rx="1.4" fill="#f85149"/></g><g opacity="0"><animate attributeName="opacity" from="0" to="1" begin="0.056s" dur="0.42s" fill="freeze"/><animateTransform attributeName="transform" type="translate" from="0 10" to="0 0" begin="0.056s" dur="0.42s" fill="freeze"/><line x1="77.5" y1="96.9" x2="77.5" y2="107.7" stroke="#f85149" stroke-width="1.4"/><rect x="71.5" y="103.6" width="12.0" height="4.2" rx="1.4" fill="#f85149"/></g><g opacity="0"><animate attributeName="opacity" from="0" to="1" begin="0.084s" dur="0.42s" fill="freeze"/><animateTransform attributeName="transform" type="translate" from="0 10" to="0 0" begin="0.084s" dur="0.42s" fill="freeze"/><line x1="98.1" y1="107.7" x2="98.1" y2="122.2" stroke="#f85149" stroke-width="1.4"/><rect x="92.2" y="107.7" width="12.0" height="5.1" rx="1.4" fill="#f85149"/></g><g opacity="0"><animate attributeName="opacity" from="0" to="1" begin="0.112s" dur="0.42s" fill="freeze"/><animateTransform attributeName="transform" type="translate" from="0 10" to="0 0" begin="0.112s" dur="0.42s" fill="freeze"/><line x1="118.7" y1="110.8" x2="118.7" y2="122.0" stroke="#f85149" stroke-width="1.4"/><rect x="112.8" y="112.8" width="12.0" height="5.6" rx="1.4" fill="#f85149"/></g><g opacity="0"><animate attributeName="opacity" from="0" to="1" begin="0.140s" dur="0.42s" fill="freeze"/><animateTransform attributeName="transform" type="translate" from="0 10" to="0 0" begin="0.140s" dur="0.42s" fill="freeze"/><line x1="139.3" y1="111.2" x2="139.3" y2="125.3" stroke="#3fb950" stroke-width="1.4"/><rect x="133.4" y="116.4" width="12.0" height="2.0" rx="1.4" fill="#3fb950"/></g><g opacity="0"><animate attributeName="opacity" from="0" to="1" begin="0.168s" dur="0.42s" fill="freeze"/><animateTransform attributeName="transform" type="translate" from="0 10" to="0 0" begin="0.168s" dur="0.42s" fill="freeze"/><line x1="160.0" y1="102.2" x2="160.0" y2="116.4" stroke="#3fb950" stroke-width="1.4"/><rect x="154.0" y="106.0" width="12.0" height="10.4" rx="1.4" fill="#3fb950"/></g><g opacity="0"><animate attributeName="opacity" from="0" to="1" begin="0.196s" dur="0.42s" fill="freeze"/><animateTransform attributeName="transform" type="translate" from="0 10" to="0 0" begin="0.196s" dur="0.42s" fill="freeze"/><line x1="180.6" y1="84.9" x2="180.6" y2="106.0" stroke="#3fb950" stroke-width="1.4"/><rect x="174.6" y="84.9" width="12.0" height="21.1" rx="1.4" fill="#3fb950"/></g><g opacity="0"><animate attributeName="opacity" from="0" to="1" begin="0.224s" dur="0.42s" fill="freeze"/><animateTransform attributeName="transform" type="translate" from="0 10" to="0 0" begin="0.224s" dur="0.42s" fill="freeze"/><line x1="201.2" y1="84.9" x2="201.2" y2="90.6" stroke="#f85149" stroke-width="1.4"/><rect x="195.2" y="84.9" width="12.0" height="1.2" rx="1.4" fill="#f85149"/></g><g opacity="0"><animate attributeName="opacity" from="0" to="1" begin="0.252s" dur="0.42s" fill="freeze"/><animateTransform attributeName="transform" type="translate" from="0 10" to="0 0" begin="0.252s" dur="0.42s" fill="freeze"/><line x1="221.8" y1="86.0" x2="221.8" y2="105.4" stroke="#f85149" stroke-width="1.4"/><rect x="215.8" y="86.0" width="12.0" height="10.5" rx="1.4" fill="#f85149"/></g><g opacity="0"><animate attributeName="opacity" from="0" to="1" begin="0.280s" dur="0.42s" fill="freeze"/><animateTransform attributeName="transform" type="translate" from="0 10" to="0 0" begin="0.280s" dur="0.42s" fill="freeze"/><line x1="242.4" y1="84.7" x2="242.4" y2="96.5" stroke="#3fb950" stroke-width="1.4"/><rect x="236.4" y="92.1" width="12.0" height="4.5" rx="1.4" fill="#3fb950"/></g><g opacity="0"><animate attributeName="opacity" from="0" to="1" begin="0.308s" dur="0.42s" fill="freeze"/><animateTransform attributeName="transform" type="translate" from="0 10" to="0 0" begin="0.308s" dur="0.42s" fill="freeze"/><line x1="263.0" y1="92.1" x2="263.0" y2="111.2" stroke="#f85149" stroke-width="1.4"/><rect x="257.0" y="92.1" width="12.0" height="17.0" rx="1.4" fill="#f85149"/></g><g opacity="0"><animate attributeName="opacity" from="0" to="1" begin="0.336s" dur="0.42s" fill="freeze"/><animateTransform attributeName="transform" type="translate" from="0 10" to="0 0" begin="0.336s" dur="0.42s" fill="freeze"/><line x1="283.6" y1="98.8" x2="283.6" y2="119.5" stroke="#3fb950" stroke-width="1.4"/><rect x="277.6" y="98.8" width="12.0" height="10.2" rx="1.4" fill="#3fb950"/></g><g opacity="0"><animate attributeName="opacity" from="0" to="1" begin="0.364s" dur="0.42s" fill="freeze"/><animateTransform attributeName="transform" type="translate" from="0 10" to="0 0" begin="0.364s" dur="0.42s" fill="freeze"/><line x1="304.2" y1="98.8" x2="304.2" y2="113.4" stroke="#f85149" stroke-width="1.4"/><rect x="298.2" y="98.8" width="12.0" height="14.6" rx="1.4" fill="#f85149"/></g><g opacity="0"><animate attributeName="opacity" from="0" to="1" begin="0.392s" dur="0.42s" fill="freeze"/><animateTransform attributeName="transform" type="translate" from="0 10" to="0 0" begin="0.392s" dur="0.42s" fill="freeze"/><line x1="324.8" y1="84.1" x2="324.8" y2="113.4" stroke="#3fb950" stroke-width="1.4"/><rect x="318.8" y="84.1" width="12.0" height="29.3" rx="1.4" fill="#3fb950"/></g><g opacity="0"><animate attributeName="opacity" from="0" to="1" begin="0.420s" dur="0.42s" fill="freeze"/><animateTransform attributeName="transform" type="translate" from="0 10" to="0 0" begin="0.420s" dur="0.42s" fill="freeze"/><line x1="345.4" y1="74.0" x2="345.4" y2="105.9" stroke="#f85149" stroke-width="1.4"/><rect x="339.5" y="84.1" width="12.0" height="21.9" rx="1.4" fill="#f85149"/></g><g opacity="0"><animate attributeName="opacity" from="0" to="1" begin="0.448s" dur="0.42s" fill="freeze"/><animateTransform attributeName="transform" type="translate" from="0 10" to="0 0" begin="0.448s" dur="0.42s" fill="freeze"/><line x1="366.0" y1="95.0" x2="366.0" y2="105.9" stroke="#3fb950" stroke-width="1.4"/><rect x="360.1" y="104.8" width="12.0" height="1.2" rx="1.4" fill="#3fb950"/></g><g opacity="0"><animate attributeName="opacity" from="0" to="1" begin="0.476s" dur="0.42s" fill="freeze"/><animateTransform attributeName="transform" type="translate" from="0 10" to="0 0" begin="0.476s" dur="0.42s" fill="freeze"/><line x1="386.7" y1="104.8" x2="386.7" y2="123.2" stroke="#f85149" stroke-width="1.4"/><rect x="380.7" y="104.8" width="12.0" height="12.7" rx="1.4" fill="#f85149"/></g><g opacity="0"><animate attributeName="opacity" from="0" to="1" begin="0.504s" dur="0.42s" fill="freeze"/><animateTransform attributeName="transform" type="translate" from="0 10" to="0 0" begin="0.504s" dur="0.42s" fill="freeze"/><line x1="407.3" y1="117.2" x2="407.3" y2="125.9" stroke="#f85149" stroke-width="1.4"/><rect x="401.3" y="117.6" width="12.0" height="1.2" rx="1.4" fill="#f85149"/></g><g opacity="0"><animate attributeName="opacity" from="0" to="1" begin="0.532s" dur="0.42s" fill="freeze"/><animateTransform attributeName="transform" type="translate" from="0 10" to="0 0" begin="0.532s" dur="0.42s" fill="freeze"/><line x1="427.9" y1="117.5" x2="427.9" y2="127.0" stroke="#f85149" stroke-width="1.4"/><rect x="421.9" y="117.9" width="12.0" height="9.1" rx="1.4" fill="#f85149"/></g><g opacity="0"><animate attributeName="opacity" from="0" to="1" begin="0.560s" dur="0.42s" fill="freeze"/><animateTransform attributeName="transform" type="translate" from="0 10" to="0 0" begin="0.560s" dur="0.42s" fill="freeze"/><line x1="448.5" y1="127.0" x2="448.5" y2="137.6" stroke="#f85149" stroke-width="1.4"/><rect x="442.5" y="127.0" width="12.0" height="7.0" rx="1.4" fill="#f85149"/></g><g opacity="0"><animate attributeName="opacity" from="0" to="1" begin="0.588s" dur="0.42s" fill="freeze"/><animateTransform attributeName="transform" type="translate" from="0 10" to="0 0" begin="0.588s" dur="0.42s" fill="freeze"/><line x1="469.1" y1="134.0" x2="469.1" y2="150.4" stroke="#f85149" stroke-width="1.4"/><rect x="463.1" y="134.0" width="12.0" height="16.4" rx="1.4" fill="#f85149"/></g><g opacity="0"><animate attributeName="opacity" from="0" to="1" begin="0.616s" dur="0.42s" fill="freeze"/><animateTransform attributeName="transform" type="translate" from="0 10" to="0 0" begin="0.616s" dur="0.42s" fill="freeze"/><line x1="489.7" y1="144.2" x2="489.7" y2="150.4" stroke="#3fb950" stroke-width="1.4"/><rect x="483.7" y="144.2" width="12.0" height="6.2" rx="1.4" fill="#3fb950"/></g><g opacity="0"><animate attributeName="opacity" from="0" to="1" begin="0.644s" dur="0.42s" fill="freeze"/><animateTransform attributeName="transform" type="translate" from="0 10" to="0 0" begin="0.644s" dur="0.42s" fill="freeze"/><line x1="510.3" y1="141.9" x2="510.3" y2="151.6" stroke="#f85149" stroke-width="1.4"/><rect x="504.3" y="144.2" width="12.0" height="7.4" rx="1.4" fill="#f85149"/></g><g opacity="0"><animate attributeName="opacity" from="0" to="1" begin="0.672s" dur="0.42s" fill="freeze"/><animateTransform attributeName="transform" type="translate" from="0 10" to="0 0" begin="0.672s" dur="0.42s" fill="freeze"/><line x1="530.9" y1="148.0" x2="530.9" y2="165.2" stroke="#f85149" stroke-width="1.4"/><rect x="524.9" y="151.6" width="12.0" height="13.6" rx="1.4" fill="#f85149"/></g><g opacity="0"><animate attributeName="opacity" from="0" to="1" begin="0.700s" dur="0.42s" fill="freeze"/><animateTransform attributeName="transform" type="translate" from="0 10" to="0 0" begin="0.700s" dur="0.42s" fill="freeze"/><line x1="551.5" y1="156.9" x2="551.5" y2="168.7" stroke="#3fb950" stroke-width="1.4"/><rect x="545.5" y="161.7" width="12.0" height="3.6" rx="1.4" fill="#3fb950"/></g><g opacity="0"><animate attributeName="opacity" from="0" to="1" begin="0.728s" dur="0.42s" fill="freeze"/><animateTransform attributeName="transform" type="translate" from="0 10" to="0 0" begin="0.728s" dur="0.42s" fill="freeze"/><line x1="572.1" y1="153.9" x2="572.1" y2="161.8" stroke="#3fb950" stroke-width="1.4"/><rect x="566.2" y="154.2" width="12.0" height="7.4" rx="1.4" fill="#3fb950"/></g><g opacity="0"><animate attributeName="opacity" from="0" to="1" begin="0.756s" dur="0.42s" fill="freeze"/><animateTransform attributeName="transform" type="translate" from="0 10" to="0 0" begin="0.756s" dur="0.42s" fill="freeze"/><line x1="592.7" y1="154.2" x2="592.7" y2="175.2" stroke="#f85149" stroke-width="1.4"/><rect x="586.8" y="154.2" width="12.0" height="21.0" rx="1.4" fill="#f85149"/></g><g opacity="0"><animate attributeName="opacity" from="0" to="1" begin="0.784s" dur="0.42s" fill="freeze"/><animateTransform attributeName="transform" type="translate" from="0 10" to="0 0" begin="0.784s" dur="0.42s" fill="freeze"/><line x1="613.3" y1="160.6" x2="613.3" y2="175.2" stroke="#3fb950" stroke-width="1.4"/><rect x="607.4" y="168.7" width="12.0" height="6.5" rx="1.4" fill="#3fb950"/></g><g opacity="0"><animate attributeName="opacity" from="0" to="1" begin="0.812s" dur="0.42s" fill="freeze"/><animateTransform attributeName="transform" type="translate" from="0 10" to="0 0" begin="0.812s" dur="0.42s" fill="freeze"/><line x1="634.0" y1="155.4" x2="634.0" y2="168.7" stroke="#3fb950" stroke-width="1.4"/><rect x="628.0" y="157.2" width="12.0" height="11.5" rx="1.4" fill="#3fb950"/></g><g opacity="0"><animate attributeName="opacity" from="0" to="1" begin="0.840s" dur="0.42s" fill="freeze"/><animateTransform attributeName="transform" type="translate" from="0 10" to="0 0" begin="0.840s" dur="0.42s" fill="freeze"/><line x1="654.6" y1="142.9" x2="654.6" y2="157.2" stroke="#3fb950" stroke-width="1.4"/><rect x="648.6" y="149.8" width="12.0" height="7.4" rx="1.4" fill="#3fb950"/></g><g opacity="0"><animate attributeName="opacity" from="0" to="1" begin="0.868s" dur="0.42s" fill="freeze"/><animateTransform attributeName="transform" type="translate" from="0 10" to="0 0" begin="0.868s" dur="0.42s" fill="freeze"/><line x1="675.2" y1="138.6" x2="675.2" y2="149.8" stroke="#3fb950" stroke-width="1.4"/><rect x="669.2" y="149.4" width="12.0" height="1.2" rx="1.4" fill="#3fb950"/></g><g opacity="0"><animate attributeName="opacity" from="0" to="1" begin="0.896s" dur="0.42s" fill="freeze"/><animateTransform attributeName="transform" type="translate" from="0 10" to="0 0" begin="0.896s" dur="0.42s" fill="freeze"/><line x1="695.8" y1="149.4" x2="695.8" y2="162.5" stroke="#f85149" stroke-width="1.4"/><rect x="689.8" y="149.4" width="12.0" height="13.1" rx="1.4" fill="#f85149"/></g><g opacity="0"><animate attributeName="opacity" from="0" to="1" begin="0.924s" dur="0.42s" fill="freeze"/><animateTransform attributeName="transform" type="translate" from="0 10" to="0 0" begin="0.924s" dur="0.42s" fill="freeze"/><line x1="716.4" y1="156.7" x2="716.4" y2="163.6" stroke="#f85149" stroke-width="1.4"/><rect x="710.4" y="162.5" width="12.0" height="1.2" rx="1.4" fill="#f85149"/></g><g opacity="0"><animate attributeName="opacity" from="0" to="1" begin="0.952s" dur="0.42s" fill="freeze"/><animateTransform attributeName="transform" type="translate" from="0 10" to="0 0" begin="0.952s" dur="0.42s" fill="freeze"/><line x1="737.0" y1="163.6" x2="737.0" y2="185.1" stroke="#f85149" stroke-width="1.4"/><rect x="731.0" y="163.6" width="12.0" height="21.5" rx="1.4" fill="#f85149"/></g><g opacity="0"><animate attributeName="opacity" from="0" to="1" begin="0.980s" dur="0.42s" fill="freeze"/><animateTransform attributeName="transform" type="translate" from="0 10" to="0 0" begin="0.980s" dur="0.42s" fill="freeze"/><line x1="757.6" y1="185.1" x2="757.6" y2="199.1" stroke="#f85149" stroke-width="1.4"/><rect x="751.6" y="185.1" width="12.0" height="14.0" rx="1.4" fill="#f85149"/></g><g opacity="0"><animate attributeName="opacity" from="0" to="1" begin="1.008s" dur="0.42s" fill="freeze"/><animateTransform attributeName="transform" type="translate" from="0 10" to="0 0" begin="1.008s" dur="0.42s" fill="freeze"/><line x1="778.2" y1="199.1" x2="778.2" y2="203.6" stroke="#f85149" stroke-width="1.4"/><rect x="772.2" y="199.1" width="12.0" height="3.4" rx="1.4" fill="#f85149"/></g><g opacity="0"><animate attributeName="opacity" from="0" to="1" begin="1.036s" dur="0.42s" fill="freeze"/><animateTransform attributeName="transform" type="translate" from="0 10" to="0 0" begin="1.036s" dur="0.42s" fill="freeze"/><line x1="798.8" y1="201.0" x2="798.8" y2="205.9" stroke="#f85149" stroke-width="1.4"/><rect x="792.8" y="202.4" width="12.0" height="1.5" rx="1.4" fill="#f85149"/></g><g opacity="0"><animate attributeName="opacity" from="0" to="1" begin="1.064s" dur="0.42s" fill="freeze"/><animateTransform attributeName="transform" type="translate" from="0 10" to="0 0" begin="1.064s" dur="0.42s" fill="freeze"/><line x1="819.4" y1="203.9" x2="819.4" y2="214.0" stroke="#f85149" stroke-width="1.4"/><rect x="813.5" y="203.9" width="12.0" height="4.5" rx="1.4" fill="#f85149"/></g><g opacity="0"><animate attributeName="opacity" from="0" to="1" begin="1.092s" dur="0.42s" fill="freeze"/><animateTransform attributeName="transform" type="translate" from="0 10" to="0 0" begin="1.092s" dur="0.42s" fill="freeze"/><line x1="840.0" y1="204.7" x2="840.0" y2="208.7" stroke="#3fb950" stroke-width="1.4"/><rect x="834.1" y="204.7" width="12.0" height="3.7" rx="1.4" fill="#3fb950"/></g><g opacity="0"><animate attributeName="opacity" from="0" to="1" begin="1.120s" dur="0.42s" fill="freeze"/><animateTransform attributeName="transform" type="translate" from="0 10" to="0 0" begin="1.120s" dur="0.42s" fill="freeze"/><line x1="860.7" y1="200.6" x2="860.7" y2="207.9" stroke="#3fb950" stroke-width="1.4"/><rect x="854.7" y="203.7" width="12.0" height="1.2" rx="1.4" fill="#3fb950"/></g><g opacity="0"><animate attributeName="opacity" from="0" to="1" begin="1.148s" dur="0.42s" fill="freeze"/><animateTransform attributeName="transform" type="translate" from="0 10" to="0 0" begin="1.148s" dur="0.42s" fill="freeze"/><line x1="881.3" y1="194.7" x2="881.3" y2="204.1" stroke="#3fb950" stroke-width="1.4"/><rect x="875.3" y="194.7" width="12.0" height="9.0" rx="1.4" fill="#3fb950"/></g><g opacity="0"><animate attributeName="opacity" from="0" to="1" begin="1.176s" dur="0.42s" fill="freeze"/><animateTransform attributeName="transform" type="translate" from="0 10" to="0 0" begin="1.176s" dur="0.42s" fill="freeze"/><line x1="901.9" y1="184.6" x2="901.9" y2="197.8" stroke="#3fb950" stroke-width="1.4"/><rect x="895.9" y="186.3" width="12.0" height="8.4" rx="1.4" fill="#3fb950"/></g><g opacity="0"><animate attributeName="opacity" from="0" to="1" begin="1.204s" dur="0.42s" fill="freeze"/><animateTransform attributeName="transform" type="translate" from="0 10" to="0 0" begin="1.204s" dur="0.42s" fill="freeze"/><line x1="922.5" y1="186.3" x2="922.5" y2="193.7" stroke="#f85149" stroke-width="1.4"/><rect x="916.5" y="186.3" width="12.0" height="7.4" rx="1.4" fill="#f85149"/></g><g opacity="0"><animate attributeName="opacity" from="0" to="1" begin="1.232s" dur="0.42s" fill="freeze"/><animateTransform attributeName="transform" type="translate" from="0 10" to="0 0" begin="1.232s" dur="0.42s" fill="freeze"/><line x1="943.1" y1="189.9" x2="943.1" y2="201.4" stroke="#f85149" stroke-width="1.4"/><rect x="937.1" y="193.7" width="12.0" height="3.5" rx="1.4" fill="#f85149"/></g><g opacity="0"><animate attributeName="opacity" from="0" to="1" begin="1.260s" dur="0.42s" fill="freeze"/><animateTransform attributeName="transform" type="translate" from="0 10" to="0 0" begin="1.260s" dur="0.42s" fill="freeze"/><line x1="963.7" y1="188.6" x2="963.7" y2="202.1" stroke="#f85149" stroke-width="1.4"/><rect x="957.7" y="197.1" width="12.0" height="5.0" rx="1.4" fill="#f85149"/></g><polyline points="180.6,106.4 201.2,104.5 221.8,103.6 242.4,101.7 263.0,101.2 283.6,98.7 304.2,98.4 324.8,95.6 345.4,98.3 366.0,100.6 386.7,103.2 407.3,106.5 427.9,108.7 448.5,113.1 469.1,117.7 489.7,125.2 510.3,130.9 530.9,138.5 551.5,144.0 572.1,148.5 592.7,154.6 613.3,158.9 634.0,159.7 654.6,160.4 675.2,160.2 695.8,159.8 716.4,160.1 737.0,163.9 757.6,166.9 778.2,171.1 798.8,177.0 819.4,184.3 840.0,191.2 860.7,196.4 881.3,200.3 901.9,200.4 922.5,199.7 943.1,199.1 963.7,198.8" fill="none" stroke="#58a6ff" stroke-width="2" stroke-linecap="round" stroke-linejoin="round" filter="url(#soft)" stroke-dasharray="948" stroke-dashoffset="948"><animate attributeName="stroke-dashoffset" from="948" to="0" begin="0.4s" dur="1.5s" fill="freeze"/></polyline><g opacity="0"><animate attributeName="opacity" from="0" to="1" begin="0.2s" dur="0.9s" fill="freeze"/><text x="32" y="40" font-family="'Segoe UI',Helvetica,Arial,sans-serif" font-size="30" font-weight="700" fill="#e6edf3">hilothefunnydog123-coder</text><text x="34" y="62" font-family="'Segoe UI',Helvetica,Arial,sans-serif" font-size="14" fill="#8b949e">quant tooling · market simulators · fintech · building the whole stack</text><circle cx="966" cy="34" r="4" fill="#3fb950"><animate attributeName="opacity" values="1;0.25;1" dur="1.6s" repeatCount="indefinite"/></circle><text x="954" y="38" text-anchor="end" font-family="'Segoe UI',Helvetica,Arial,sans-serif" font-size="12" fill="#8b949e">LIVE</text></g></svg>