<svg xmlns="http://www.w3.org/2000/svg" viewBox="0 0 1000 240" width="100%" role="img" aria-label="animated market banner"><defs>
      <linearGradient id="bg" x1="0" y1="0" x2="0" y2="1">
        <stop offset="0" stop-color="#0f1420"/><stop offset="1" stop-color="#0a0d14"/>
      </linearGradient>
      <linearGradient id="glow" x1="0" y1="0" x2="1" y2="0">
        <stop offset="0" stop-color="#58a6ff" stop-opacity="0"/>
        <stop offset="1" stop-color="#58a6ff" stop-opacity="0.10"/>
      </linearGradient>
      <filter id="soft"><feGaussianBlur stdDeviation="0.4"/></filter>
    </defs><rect x="1" y="1" width="998" height="238" rx="16" fill="url(#bg)" stroke="#232b3a"/><rect x="1" y="1" width="998" height="238" rx="16" fill="url(#glow)"/><line x1="26" y1="102.0" x2="974" y2="102.0" stroke="#1b2230" stroke-width="1"/><line x1="26" y1="130.0" x2="974" y2="130.0" stroke="#1b2230" stroke-width="1"/><line x1="26" y1="158.0" x2="974" y2="158.0" stroke="#1b2230" stroke-width="1"/><line x1="26" y1="186.0" x2="974" y2="186.0" stroke="#1b2230" stroke-width="1"/><g opacity="0"><animate attributeName="opacity" from="0" to="1" begin="0.000s" dur="0.42s" fill="freeze"/><animateTransform attributeName="transform" type="translate" from="0 10" to="0 0" begin="0.000s" dur="0.42s" fill="freeze"/><line x1="36.3" y1="74.0" x2="36.3" y2="137.3" stroke="#f85149" stroke-width="1.4"/><rect x="30.3" y="74.0" width="12.0" height="54.0" rx="1.4" fill="#f85149"/></g><g opacity="0"><animate attributeName="opacity" from="0" to="1" begin="0.028s" dur="0.42s" fill="freeze"/><animateTransform attributeName="transform" type="translate" from="0 10" to="0 0" begin="0.028s" dur="0.42s" fill="freeze"/><line x1="56.9" y1="104.6" x2="56.9" y2="128.0" stroke="#3fb950" stroke-width="1.4"/><rect x="50.9" y="126.7" width="12.0" height="1.3" rx="1.4" fill="#3fb950"/></g><g opacity="0"><animate attributeName="opacity" from="0" to="1" begin="0.056s" dur="0.42s" fill="freeze"/><animateTransform attributeName="transform" type="translate" from="0 10" to="0 0" begin="0.056s" dur="0.42s" fill="freeze"/><line x1="77.5" y1="117.8" x2="77.5" y2="139.1" stroke="#f85149" stroke-width="1.4"/><rect x="71.5" y="126.7" width="12.0" height="5.2" rx="1.4" fill="#f85149"/></g><g opacity="0"><animate attributeName="opacity" from="0" to="1" begin="0.084s" dur="0.42s" fill="freeze"/><animateTransform attributeName="transform" type="translate" from="0 10" to="0 0" begin="0.084s" dur="0.42s" fill="freeze"/><line x1="98.1" y1="123.6" x2="98.1" y2="137.0" stroke="#3fb950" stroke-width="1.4"/><rect x="92.2" y="123.6" width="12.0" height="8.3" rx="1.4" fill="#3fb950"/></g><g opacity="0"><animate attributeName="opacity" from="0" to="1" begin="0.112s" dur="0.42s" fill="freeze"/><animateTransform attributeName="transform" type="translate" from="0 10" to="0 0" begin="0.112s" dur="0.42s" fill="freeze"/><line x1="118.7" y1="123.6" x2="118.7" y2="148.6" stroke="#f85149" stroke-width="1.4"/><rect x="112.8" y="123.6" width="12.0" height="6.9" rx="1.4" fill="#f85149"/></g><g opacity="0"><animate attributeName="opacity" from="0" to="1" begin="0.140s" dur="0.42s" fill="freeze"/><animateTransform attributeName="transform" type="translate" from="0 10" to="0 0" begin="0.140s" dur="0.42s" fill="freeze"/><line x1="139.3" y1="130.6" x2="139.3" y2="145.0" stroke="#f85149" stroke-width="1.4"/><rect x="133.4" y="130.6" width="12.0" height="11.1" rx="1.4" fill="#f85149"/></g><g opacity="0"><animate attributeName="opacity" from="0" to="1" begin="0.168s" dur="0.42s" fill="freeze"/><animateTransform attributeName="transform" type="translate" from="0 10" to="0 0" begin="0.168s" dur="0.42s" fill="freeze"/><line x1="160.0" y1="141.7" x2="160.0" y2="153.0" stroke="#f85149" stroke-width="1.4"/><rect x="154.0" y="141.7" width="12.0" height="4.1" rx="1.4" fill="#f85149"/></g><g opacity="0"><animate attributeName="opacity" from="0" to="1" begin="0.196s" dur="0.42s" fill="freeze"/><animateTransform attributeName="transform" type="translate" from="0 10" to="0 0" begin="0.196s" dur="0.42s" fill="freeze"/><line x1="180.6" y1="145.8" x2="180.6" y2="162.6" stroke="#f85149" stroke-width="1.4"/><rect x="174.6" y="145.8" width="12.0" height="5.2" rx="1.4" fill="#f85149"/></g><g opacity="0"><animate attributeName="opacity" from="0" to="1" begin="0.224s" dur="0.42s" fill="freeze"/><animateTransform attributeName="transform" type="translate" from="0 10" to="0 0" begin="0.224s" dur="0.42s" fill="freeze"/><line x1="201.2" y1="132.6" x2="201.2" y2="158.1" stroke="#3fb950" stroke-width="1.4"/><rect x="195.2" y="132.6" width="12.0" height="18.4" rx="1.4" fill="#3fb950"/></g><g opacity="0"><animate attributeName="opacity" from="0" to="1" begin="0.252s" dur="0.42s" fill="freeze"/><animateTransform attributeName="transform" type="translate" from="0 10" to="0 0" begin="0.252s" dur="0.42s" fill="freeze"/><line x1="221.8" y1="110.0" x2="221.8" y2="132.6" stroke="#3fb950" stroke-width="1.4"/><rect x="215.8" y="115.5" width="12.0" height="17.2" rx="1.4" fill="#3fb950"/></g><g opacity="0"><animate attributeName="opacity" from="0" to="1" begin="0.280s" dur="0.42s" fill="freeze"/><animateTransform attributeName="transform" type="translate" from="0 10" to="0 0" begin="0.280s" dur="0.42s" fill="freeze"/><line x1="242.4" y1="115.5" x2="242.4" y2="156.0" stroke="#f85149" stroke-width="1.4"/><rect x="236.4" y="115.5" width="12.0" height="10.1" rx="1.4" fill="#f85149"/></g><g opacity="0"><animate attributeName="opacity" from="0" to="1" begin="0.308s" dur="0.42s" fill="freeze"/><animateTransform attributeName="transform" type="translate" from="0 10" to="0 0" begin="0.308s" dur="0.42s" fill="freeze"/><line x1="263.0" y1="122.7" x2="263.0" y2="141.2" stroke="#f85149" stroke-width="1.4"/><rect x="257.0" y="125.5" width="12.0" height="15.6" rx="1.4" fill="#f85149"/></g><g opacity="0"><animate attributeName="opacity" from="0" to="1" begin="0.336s" dur="0.42s" fill="freeze"/><animateTransform attributeName="transform" type="translate" from="0 10" to="0 0" begin="0.336s" dur="0.42s" fill="freeze"/><line x1="283.6" y1="134.6" x2="283.6" y2="155.8" stroke="#f85149" stroke-width="1.4"/><rect x="277.6" y="141.2" width="12.0" height="8.2" rx="1.4" fill="#f85149"/></g><g opacity="0"><animate attributeName="opacity" from="0" to="1" begin="0.364s" dur="0.42s" fill="freeze"/><animateTransform attributeName="transform" type="translate" from="0 10" to="0 0" begin="0.364s" dur="0.42s" fill="freeze"/><line x1="304.2" y1="140.9" x2="304.2" y2="153.3" stroke="#f85149" stroke-width="1.4"/><rect x="298.2" y="149.4" width="12.0" height="2.9" rx="1.4" fill="#f85149"/></g><g opacity="0"><animate attributeName="opacity" from="0" to="1" begin="0.392s" dur="0.42s" fill="freeze"/><animateTransform attributeName="transform" type="translate" from="0 10" to="0 0" begin="0.392s" dur="0.42s" fill="freeze"/><line x1="324.8" y1="138.3" x2="324.8" y2="162.8" stroke="#3fb950" stroke-width="1.4"/><rect x="318.8" y="143.3" width="12.0" height="8.9" rx="1.4" fill="#3fb950"/></g><g opacity="0"><animate attributeName="opacity" from="0" to="1" begin="0.420s" dur="0.42s" fill="freeze"/><animateTransform attributeName="transform" type="translate" from="0 10" to="0 0" begin="0.420s" dur="0.42s" fill="freeze"/><line x1="345.4" y1="132.3" x2="345.4" y2="151.5" stroke="#f85149" stroke-width="1.4"/><rect x="339.5" y="143.3" width="12.0" height="5.7" rx="1.4" fill="#f85149"/></g><g opacity="0"><animate attributeName="opacity" from="0" to="1" begin="0.448s" dur="0.42s" fill="freeze"/><animateTransform attributeName="transform" type="translate" from="0 10" to="0 0" begin="0.448s" dur="0.42s" fill="freeze"/><line x1="366.0" y1="143.9" x2="366.0" y2="160.6" stroke="#f85149" stroke-width="1.4"/><rect x="360.1" y="149.1" width="12.0" height="8.2" rx="1.4" fill="#f85149"/></g><g opacity="0"><animate attributeName="opacity" from="0" to="1" begin="0.476s" dur="0.42s" fill="freeze"/><animateTransform attributeName="transform" type="translate" from="0 10" to="0 0" begin="0.476s" dur="0.42s" fill="freeze"/><line x1="386.7" y1="132.8" x2="386.7" y2="159.2" stroke="#f85149" stroke-width="1.4"/><rect x="380.7" y="157.3" width="12.0" height="1.9" rx="1.4" fill="#f85149"/></g><g opacity="0"><animate attributeName="opacity" from="0" to="1" begin="0.504s" dur="0.42s" fill="freeze"/><animateTransform attributeName="transform" type="translate" from="0 10" to="0 0" begin="0.504s" dur="0.42s" fill="freeze"/><line x1="407.3" y1="146.0" x2="407.3" y2="178.3" stroke="#f85149" stroke-width="1.4"/><rect x="401.3" y="159.2" width="12.0" height="19.1" rx="1.4" fill="#f85149"/></g><g opacity="0"><animate attributeName="opacity" from="0" to="1" begin="0.532s" dur="0.42s" fill="freeze"/><animateTransform attributeName="transform" type="translate" from="0 10" to="0 0" begin="0.532s" dur="0.42s" fill="freeze"/><line x1="427.9" y1="168.1" x2="427.9" y2="182.4" stroke="#f85149" stroke-width="1.4"/><rect x="421.9" y="178.3" width="12.0" height="4.1" rx="1.4" fill="#f85149"/></g><g opacity="0"><animate attributeName="opacity" from="0" to="1" begin="0.560s" dur="0.42s" fill="freeze"/><animateTransform attributeName="transform" type="translate" from="0 10" to="0 0" begin="0.560s" dur="0.42s" fill="freeze"/><line x1="448.5" y1="154.2" x2="448.5" y2="182.4" stroke="#3fb950" stroke-width="1.4"/><rect x="442.5" y="154.2" width="12.0" height="28.2" rx="1.4" fill="#3fb950"/></g><g opacity="0"><animate attributeName="opacity" from="0" to="1" begin="0.588s" dur="0.42s" fill="freeze"/><animateTransform attributeName="transform" type="translate" from="0 10" to="0 0" begin="0.588s" dur="0.42s" fill="freeze"/><line x1="469.1" y1="147.0" x2="469.1" y2="180.8" stroke="#f85149" stroke-width="1.4"/><rect x="463.1" y="154.2" width="12.0" height="26.6" rx="1.4" fill="#f85149"/></g><g opacity="0"><animate attributeName="opacity" from="0" to="1" begin="0.616s" dur="0.42s" fill="freeze"/><animateTransform attributeName="transform" type="translate" from="0 10" to="0 0" begin="0.616s" dur="0.42s" fill="freeze"/><line x1="489.7" y1="180.8" x2="489.7" y2="201.8" stroke="#f85149" stroke-width="1.4"/><rect x="483.7" y="180.8" width="12.0" height="21.1" rx="1.4" fill="#f85149"/></g><g opacity="0"><animate attributeName="opacity" from="0" to="1" begin="0.644s" dur="0.42s" fill="freeze"/><animateTransform attributeName="transform" type="translate" from="0 10" to="0 0" begin="0.644s" dur="0.42s" fill="freeze"/><line x1="510.3" y1="187.7" x2="510.3" y2="214.0" stroke="#3fb950" stroke-width="1.4"/><rect x="504.3" y="189.5" width="12.0" height="12.4" rx="1.4" fill="#3fb950"/></g><g opacity="0"><animate attributeName="opacity" from="0" to="1" begin="0.672s" dur="0.42s" fill="freeze"/><animateTransform attributeName="transform" type="translate" from="0 10" to="0 0" begin="0.672s" dur="0.42s" fill="freeze"/><line x1="530.9" y1="170.0" x2="530.9" y2="189.5" stroke="#3fb950" stroke-width="1.4"/><rect x="524.9" y="170.0" width="12.0" height="19.5" rx="1.4" fill="#3fb950"/></g><g opacity="0"><animate attributeName="opacity" from="0" to="1" begin="0.700s" dur="0.42s" fill="freeze"/><animateTransform attributeName="transform" type="translate" from="0 10" to="0 0" begin="0.700s" dur="0.42s" fill="freeze"/><line x1="551.5" y1="156.0" x2="551.5" y2="170.0" stroke="#3fb950" stroke-width="1.4"/><rect x="545.5" y="161.9" width="12.0" height="8.1" rx="1.4" fill="#3fb950"/></g><g opacity="0"><animate attributeName="opacity" from="0" to="1" begin="0.728s" dur="0.42s" fill="freeze"/><animateTransform attributeName="transform" type="translate" from="0 10" to="0 0" begin="0.728s" dur="0.42s" fill="freeze"/><line x1="572.1" y1="161.9" x2="572.1" y2="185.3" stroke="#f85149" stroke-width="1.4"/><rect x="566.2" y="161.9" width="12.0" height="17.7" rx="1.4" fill="#f85149"/></g><g opacity="0"><animate attributeName="opacity" from="0" to="1" begin="0.756s" dur="0.42s" fill="freeze"/><animateTransform attributeName="transform" type="translate" from="0 10" to="0 0" begin="0.756s" dur="0.42s" fill="freeze"/><line x1="592.7" y1="169.9" x2="592.7" y2="181.8" stroke="#3fb950" stroke-width="1.4"/><rect x="586.8" y="178.9" width="12.0" height="1.2" rx="1.4" fill="#3fb950"/></g><g opacity="0"><animate attributeName="opacity" from="0" to="1" begin="0.784s" dur="0.42s" fill="freeze"/><animateTransform attributeName="transform" type="translate" from="0 10" to="0 0" begin="0.784s" dur="0.42s" fill="freeze"/><line x1="613.3" y1="177.7" x2="613.3" y2="194.8" stroke="#f85149" stroke-width="1.4"/><rect x="607.4" y="178.9" width="12.0" height="15.4" rx="1.4" fill="#f85149"/></g><g opacity="0"><animate attributeName="opacity" from="0" to="1" begin="0.812s" dur="0.42s" fill="freeze"/><animateTransform attributeName="transform" type="translate" from="0 10" to="0 0" begin="0.812s" dur="0.42s" fill="freeze"/><line x1="634.0" y1="174.3" x2="634.0" y2="196.3" stroke="#3fb950" stroke-width="1.4"/><rect x="628.0" y="177.7" width="12.0" height="16.6" rx="1.4" fill="#3fb950"/></g><g opacity="0"><animate attributeName="opacity" from="0" to="1" begin="0.840s" dur="0.42s" fill="freeze"/><animateTransform attributeName="transform" type="translate" from="0 10" to="0 0" begin="0.840s" dur="0.42s" fill="freeze"/><line x1="654.6" y1="171.3" x2="654.6" y2="177.7" stroke="#3fb950" stroke-width="1.4"/><rect x="648.6" y="171.6" width="12.0" height="6.2" rx="1.4" fill="#3fb950"/></g><g opacity="0"><animate attributeName="opacity" from="0" to="1" begin="0.868s" dur="0.42s" fill="freeze"/><animateTransform attributeName="transform" type="translate" from="0 10" to="0 0" begin="0.868s" dur="0.42s" fill="freeze"/><line x1="675.2" y1="171.6" x2="675.2" y2="193.2" stroke="#f85149" stroke-width="1.4"/><rect x="669.2" y="171.6" width="12.0" height="11.5" rx="1.4" fill="#f85149"/></g><g opacity="0"><animate attributeName="opacity" from="0" to="1" begin="0.896s" dur="0.42s" fill="freeze"/><animateTransform attributeName="transform" type="translate" from="0 10" to="0 0" begin="0.896s" dur="0.42s" fill="freeze"/><line x1="695.8" y1="150.2" x2="695.8" y2="183.0" stroke="#3fb950" stroke-width="1.4"/><rect x="689.8" y="154.0" width="12.0" height="29.0" rx="1.4" fill="#3fb950"/></g><g opacity="0"><animate attributeName="opacity" from="0" to="1" begin="0.924s" dur="0.42s" fill="freeze"/><animateTransform attributeName="transform" type="translate" from="0 10" to="0 0" begin="0.924s" dur="0.42s" fill="freeze"/><line x1="716.4" y1="152.9" x2="716.4" y2="177.5" stroke="#f85149" stroke-width="1.4"/><rect x="710.4" y="154.0" width="12.0" height="23.5" rx="1.4" fill="#f85149"/></g><g opacity="0"><animate attributeName="opacity" from="0" to="1" begin="0.952s" dur="0.42s" fill="freeze"/><animateTransform attributeName="transform" type="translate" from="0 10" to="0 0" begin="0.952s" dur="0.42s" fill="freeze"/><line x1="737.0" y1="177.5" x2="737.0" y2="193.8" stroke="#f85149" stroke-width="1.4"/><rect x="731.0" y="177.5" width="12.0" height="6.6" rx="1.4" fill="#f85149"/></g><g opacity="0"><animate attributeName="opacity" from="0" to="1" begin="0.980s" dur="0.42s" fill="freeze"/><animateTransform attributeName="transform" type="translate" from="0 10" to="0 0" begin="0.980s" dur="0.42s" fill="freeze"/><line x1="757.6" y1="170.5" x2="757.6" y2="187.0" stroke="#3fb950" stroke-width="1.4"/><rect x="751.6" y="170.5" width="12.0" height="13.5" rx="1.4" fill="#3fb950"/></g><g opacity="0"><animate attributeName="opacity" from="0" to="1" begin="1.008s" dur="0.42s" fill="freeze"/><animateTransform attributeName="transform" type="translate" from="0 10" to="0 0" begin="1.008s" dur="0.42s" fill="freeze"/><line x1="778.2" y1="167.3" x2="778.2" y2="174.6" stroke="#f85149" stroke-width="1.4"/><rect x="772.2" y="170.5" width="12.0" height="4.1" rx="1.4" fill="#f85149"/></g><g opacity="0"><animate attributeName="opacity" from="0" to="1" begin="1.036s" dur="0.42s" fill="freeze"/><animateTransform attributeName="transform" type="translate" from="0 10" to="0 0" begin="1.036s" dur="0.42s" fill="freeze"/><line x1="798.8" y1="155.3" x2="798.8" y2="174.6" stroke="#3fb950" stroke-width="1.4"/><rect x="792.8" y="155.3" width="12.0" height="19.4" rx="1.4" fill="#3fb950"/></g><g opacity="0"><animate attributeName="opacity" from="0" to="1" begin="1.064s" dur="0.42s" fill="freeze"/><animateTransform attributeName="transform" type="translate" from="0 10" to="0 0" begin="1.064s" dur="0.42s" fill="freeze"/><line x1="819.4" y1="129.5" x2="819.4" y2="155.3" stroke="#3fb950" stroke-width="1.4"/><rect x="813.5" y="133.6" width="12.0" height="21.7" rx="1.4" fill="#3fb950"/></g><g opacity="0"><animate attributeName="opacity" from="0" to="1" begin="1.092s" dur="0.42s" fill="freeze"/><animateTransform attributeName="transform" type="translate" from="0 10" to="0 0" begin="1.092s" dur="0.42s" fill="freeze"/><line x1="840.0" y1="110.9" x2="840.0" y2="141.6" stroke="#3fb950" stroke-width="1.4"/><rect x="834.1" y="110.9" width="12.0" height="22.7" rx="1.4" fill="#3fb950"/></g><g opacity="0"><animate attributeName="opacity" from="0" to="1" begin="1.120s" dur="0.42s" fill="freeze"/><animateTransform attributeName="transform" type="translate" from="0 10" to="0 0" begin="1.120s" dur="0.42s" fill="freeze"/><line x1="860.7" y1="110.9" x2="860.7" y2="150.2" stroke="#f85149" stroke-width="1.4"/><rect x="854.7" y="110.9" width="12.0" height="39.4" rx="1.4" fill="#f85149"/></g><g opacity="0"><animate attributeName="opacity" from="0" to="1" begin="1.148s" dur="0.42s" fill="freeze"/><animateTransform attributeName="transform" type="translate" from="0 10" to="0 0" begin="1.148s" dur="0.42s" fill="freeze"/><line x1="881.3" y1="145.4" x2="881.3" y2="156.6" stroke="#f85149" stroke-width="1.4"/><rect x="875.3" y="150.2" width="12.0" height="6.4" rx="1.4" fill="#f85149"/></g><g opacity="0"><animate attributeName="opacity" from="0" to="1" begin="1.176s" dur="0.42s" fill="freeze"/><animateTransform attributeName="transform" type="translate" from="0 10" to="0 0" begin="1.176s" dur="0.42s" fill="freeze"/><line x1="901.9" y1="140.7" x2="901.9" y2="156.6" stroke="#3fb950" stroke-width="1.4"/><rect x="895.9" y="151.5" width="12.0" height="5.2" rx="1.4" fill="#3fb950"/></g><g opacity="0"><animate attributeName="opacity" from="0" to="1" begin="1.204s" dur="0.42s" fill="freeze"/><animateTransform attributeName="transform" type="translate" from="0 10" to="0 0" begin="1.204s" dur="0.42s" fill="freeze"/><line x1="922.5" y1="151.5" x2="922.5" y2="165.7" stroke="#f85149" stroke-width="1.4"/><rect x="916.5" y="151.5" width="12.0" height="7.5" rx="1.4" fill="#f85149"/></g><g opacity="0"><animate attributeName="opacity" from="0" to="1" begin="1.232s" dur="0.42s" fill="freeze"/><animateTransform attributeName="transform" type="translate" from="0 10" to="0 0" begin="1.232s" dur="0.42s" fill="freeze"/><line x1="943.1" y1="106.6" x2="943.1" y2="158.9" stroke="#3fb950" stroke-width="1.4"/><rect x="937.1" y="106.6" width="12.0" height="52.4" rx="1.4" fill="#3fb950"/></g><g opacity="0"><animate attributeName="opacity" from="0" to="1" begin="1.260s" dur="0.42s" fill="freeze"/><animateTransform attributeName="transform" type="translate" from="0 10" to="0 0" begin="1.260s" dur="0.42s" fill="freeze"/><line x1="963.7" y1="104.6" x2="963.7" y2="142.9" stroke="#f85149" stroke-width="1.4"/><rect x="957.7" y="106.6" width="12.0" height="24.9" rx="1.4" fill="#f85149"/></g><polyline points="180.6,134.9 201.2,135.5 221.8,134.1 242.4,133.3 263.0,135.5 283.6,137.8 304.2,139.2 324.8,138.8 345.4,138.6 366.0,141.7 386.7,147.1 407.3,153.7 427.9,158.9 448.5,159.5 469.1,163.1 489.7,170.4 510.3,175.4 530.9,177.0 551.5,177.4 572.1,177.5 592.7,177.1 613.3,182.1 634.0,181.7 654.6,177.9 675.2,177.1 695.8,175.1 716.4,177.1 737.0,177.6 757.6,176.6 778.2,174.1 798.8,171.3 819.4,166.6 840.0,157.5 860.7,157.1 881.3,154.5 901.9,150.4 922.5,148.9 943.1,140.4 963.7,137.5" fill="none" stroke="#58a6ff" stroke-width="2" stroke-linecap="round" stroke-linejoin="round" filter="url(#soft)" stroke-dasharray="948" stroke-dashoffset="948"><animate attributeName="stroke-dashoffset" from="948" to="0" begin="0.4s" dur="1.5s" fill="freeze"/></polyline><g opacity="0"><animate attributeName="opacity" from="0" to="1" begin="0.2s" dur="0.9s" fill="freeze"/><text x="32" y="40" font-family="'Segoe UI',Helvetica,Arial,sans-serif" font-size="30" font-weight="700" fill="#e6edf3">hilothefunnydog123-coder</text><text x="34" y="62" font-family="'Segoe UI',Helvetica,Arial,sans-serif" font-size="14" fill="#8b949e">quant tooling · market simulators · fintech · building the whole stack</text><circle cx="966" cy="34" r="4" fill="#3fb950"><animate attributeName="opacity" values="1;0.25;1" dur="1.6s" repeatCount="indefinite"/></circle><text x="954" y="38" text-anchor="end" font-family="'Segoe UI',Helvetica,Arial,sans-serif" font-size="12" fill="#8b949e">LIVE</text></g></svg>