<svg xmlns="http://www.w3.org/2000/svg" viewBox="0 0 1000 240" width="100%" role="img" aria-label="animated market banner"><defs>
      <linearGradient id="bg" x1="0" y1="0" x2="0" y2="1">
        <stop offset="0" stop-color="#0f1420"/><stop offset="1" stop-color="#0a0d14"/>
      </linearGradient>
      <linearGradient id="glow" x1="0" y1="0" x2="1" y2="0">
        <stop offset="0" stop-color="#58a6ff" stop-opacity="0"/>
        <stop offset="1" stop-color="#58a6ff" stop-opacity="0.10"/>
      </linearGradient>
      <filter id="soft"><feGaussianBlur stdDeviation="0.4"/></filter>
    </defs><rect x="1" y="1" width="998" height="238" rx="16" fill="url(#bg)" stroke="#232b3a"/><rect x="1" y="1" width="998" height="238" rx="16" fill="url(#glow)"/><line x1="26" y1="102.0" x2="974" y2="102.0" stroke="#1b2230" stroke-width="1"/><line x1="26" y1="130.0" x2="974" y2="130.0" stroke="#1b2230" stroke-width="1"/><line x1="26" y1="158.0" x2="974" y2="158.0" stroke="#1b2230" stroke-width="1"/><line x1="26" y1="186.0" x2="974" y2="186.0" stroke="#1b2230" stroke-width="1"/><g opacity="0"><animate attributeName="opacity" from="0" to="1" begin="0.000s" dur="0.42s" fill="freeze"/><animateTransform attributeName="transform" type="translate" from="0 10" to="0 0" begin="0.000s" dur="0.42s" fill="freeze"/><line x1="36.3" y1="192.8" x2="36.3" y2="214.0" stroke="#3fb950" stroke-width="1.4"/><rect x="30.3" y="200.0" width="12.0" height="14.0" rx="1.4" fill="#3fb950"/></g><g opacity="0"><animate attributeName="opacity" from="0" to="1" begin="0.028s" dur="0.42s" fill="freeze"/><animateTransform attributeName="transform" type="translate" from="0 10" to="0 0" begin="0.028s" dur="0.42s" fill="freeze"/><line x1="56.9" y1="182.5" x2="56.9" y2="200.0" stroke="#3fb950" stroke-width="1.4"/><rect x="50.9" y="182.5" width="12.0" height="17.5" rx="1.4" fill="#3fb950"/></g><g opacity="0"><animate attributeName="opacity" from="0" to="1" begin="0.056s" dur="0.42s" fill="freeze"/><animateTransform attributeName="transform" type="translate" from="0 10" to="0 0" begin="0.056s" dur="0.42s" fill="freeze"/><line x1="77.5" y1="169.9" x2="77.5" y2="182.5" stroke="#3fb950" stroke-width="1.4"/><rect x="71.5" y="170.5" width="12.0" height="12.0" rx="1.4" fill="#3fb950"/></g><g opacity="0"><animate attributeName="opacity" from="0" to="1" begin="0.084s" dur="0.42s" fill="freeze"/><animateTransform attributeName="transform" type="translate" from="0 10" to="0 0" begin="0.084s" dur="0.42s" fill="freeze"/><line x1="98.1" y1="165.9" x2="98.1" y2="174.8" stroke="#3fb950" stroke-width="1.4"/><rect x="92.2" y="167.8" width="12.0" height="2.7" rx="1.4" fill="#3fb950"/></g><g opacity="0"><animate attributeName="opacity" from="0" to="1" begin="0.112s" dur="0.42s" fill="freeze"/><animateTransform attributeName="transform" type="translate" from="0 10" to="0 0" begin="0.112s" dur="0.42s" fill="freeze"/><line x1="118.7" y1="167.8" x2="118.7" y2="188.8" stroke="#f85149" stroke-width="1.4"/><rect x="112.8" y="167.8" width="12.0" height="12.4" rx="1.4" fill="#f85149"/></g><g opacity="0"><animate attributeName="opacity" from="0" to="1" begin="0.140s" dur="0.42s" fill="freeze"/><animateTransform attributeName="transform" type="translate" from="0 10" to="0 0" begin="0.140s" dur="0.42s" fill="freeze"/><line x1="139.3" y1="171.6" x2="139.3" y2="186.5" stroke="#3fb950" stroke-width="1.4"/><rect x="133.4" y="171.6" width="12.0" height="8.6" rx="1.4" fill="#3fb950"/></g><g opacity="0"><animate attributeName="opacity" from="0" to="1" begin="0.168s" dur="0.42s" fill="freeze"/><animateTransform attributeName="transform" type="translate" from="0 10" to="0 0" begin="0.168s" dur="0.42s" fill="freeze"/><line x1="160.0" y1="170.6" x2="160.0" y2="182.9" stroke="#f85149" stroke-width="1.4"/><rect x="154.0" y="171.6" width="12.0" height="1.2" rx="1.4" fill="#f85149"/></g><g opacity="0"><animate attributeName="opacity" from="0" to="1" begin="0.196s" dur="0.42s" fill="freeze"/><animateTransform attributeName="transform" type="translate" from="0 10" to="0 0" begin="0.196s" dur="0.42s" fill="freeze"/><line x1="180.6" y1="157.5" x2="180.6" y2="172.7" stroke="#3fb950" stroke-width="1.4"/><rect x="174.6" y="161.9" width="12.0" height="10.8" rx="1.4" fill="#3fb950"/></g><g opacity="0"><animate attributeName="opacity" from="0" to="1" begin="0.224s" dur="0.42s" fill="freeze"/><animateTransform attributeName="transform" type="translate" from="0 10" to="0 0" begin="0.224s" dur="0.42s" fill="freeze"/><line x1="201.2" y1="160.5" x2="201.2" y2="169.1" stroke="#f85149" stroke-width="1.4"/><rect x="195.2" y="161.9" width="12.0" height="4.0" rx="1.4" fill="#f85149"/></g><g opacity="0"><animate attributeName="opacity" from="0" to="1" begin="0.252s" dur="0.42s" fill="freeze"/><animateTransform attributeName="transform" type="translate" from="0 10" to="0 0" begin="0.252s" dur="0.42s" fill="freeze"/><line x1="221.8" y1="152.9" x2="221.8" y2="165.9" stroke="#3fb950" stroke-width="1.4"/><rect x="215.8" y="157.7" width="12.0" height="8.2" rx="1.4" fill="#3fb950"/></g><g opacity="0"><animate attributeName="opacity" from="0" to="1" begin="0.280s" dur="0.42s" fill="freeze"/><animateTransform attributeName="transform" type="translate" from="0 10" to="0 0" begin="0.280s" dur="0.42s" fill="freeze"/><line x1="242.4" y1="154.5" x2="242.4" y2="166.3" stroke="#f85149" stroke-width="1.4"/><rect x="236.4" y="157.7" width="12.0" height="8.6" rx="1.4" fill="#f85149"/></g><g opacity="0"><animate attributeName="opacity" from="0" to="1" begin="0.308s" dur="0.42s" fill="freeze"/><animateTransform attributeName="transform" type="translate" from="0 10" to="0 0" begin="0.308s" dur="0.42s" fill="freeze"/><line x1="263.0" y1="166.3" x2="263.0" y2="194.5" stroke="#f85149" stroke-width="1.4"/><rect x="257.0" y="166.3" width="12.0" height="28.2" rx="1.4" fill="#f85149"/></g><g opacity="0"><animate attributeName="opacity" from="0" to="1" begin="0.336s" dur="0.42s" fill="freeze"/><animateTransform attributeName="transform" type="translate" from="0 10" to="0 0" begin="0.336s" dur="0.42s" fill="freeze"/><line x1="283.6" y1="176.8" x2="283.6" y2="194.5" stroke="#3fb950" stroke-width="1.4"/><rect x="277.6" y="176.8" width="12.0" height="17.7" rx="1.4" fill="#3fb950"/></g><g opacity="0"><animate attributeName="opacity" from="0" to="1" begin="0.364s" dur="0.42s" fill="freeze"/><animateTransform attributeName="transform" type="translate" from="0 10" to="0 0" begin="0.364s" dur="0.42s" fill="freeze"/><line x1="304.2" y1="153.1" x2="304.2" y2="176.8" stroke="#3fb950" stroke-width="1.4"/><rect x="298.2" y="153.1" width="12.0" height="23.7" rx="1.4" fill="#3fb950"/></g><g opacity="0"><animate attributeName="opacity" from="0" to="1" begin="0.392s" dur="0.42s" fill="freeze"/><animateTransform attributeName="transform" type="translate" from="0 10" to="0 0" begin="0.392s" dur="0.42s" fill="freeze"/><line x1="324.8" y1="153.1" x2="324.8" y2="165.4" stroke="#f85149" stroke-width="1.4"/><rect x="318.8" y="153.1" width="12.0" height="3.3" rx="1.4" fill="#f85149"/></g><g opacity="0"><animate attributeName="opacity" from="0" to="1" begin="0.420s" dur="0.42s" fill="freeze"/><animateTransform attributeName="transform" type="translate" from="0 10" to="0 0" begin="0.420s" dur="0.42s" fill="freeze"/><line x1="345.4" y1="126.9" x2="345.4" y2="156.3" stroke="#3fb950" stroke-width="1.4"/><rect x="339.5" y="136.6" width="12.0" height="19.7" rx="1.4" fill="#3fb950"/></g><g opacity="0"><animate attributeName="opacity" from="0" to="1" begin="0.448s" dur="0.42s" fill="freeze"/><animateTransform attributeName="transform" type="translate" from="0 10" to="0 0" begin="0.448s" dur="0.42s" fill="freeze"/><line x1="366.0" y1="136.6" x2="366.0" y2="152.7" stroke="#f85149" stroke-width="1.4"/><rect x="360.1" y="136.6" width="12.0" height="15.4" rx="1.4" fill="#f85149"/></g><g opacity="0"><animate attributeName="opacity" from="0" to="1" begin="0.476s" dur="0.42s" fill="freeze"/><animateTransform attributeName="transform" type="translate" from="0 10" to="0 0" begin="0.476s" dur="0.42s" fill="freeze"/><line x1="386.7" y1="147.9" x2="386.7" y2="161.6" stroke="#f85149" stroke-width="1.4"/><rect x="380.7" y="152.0" width="12.0" height="3.2" rx="1.4" fill="#f85149"/></g><g opacity="0"><animate attributeName="opacity" from="0" to="1" begin="0.504s" dur="0.42s" fill="freeze"/><animateTransform attributeName="transform" type="translate" from="0 10" to="0 0" begin="0.504s" dur="0.42s" fill="freeze"/><line x1="407.3" y1="148.5" x2="407.3" y2="163.2" stroke="#f85149" stroke-width="1.4"/><rect x="401.3" y="155.2" width="12.0" height="7.7" rx="1.4" fill="#f85149"/></g><g opacity="0"><animate attributeName="opacity" from="0" to="1" begin="0.532s" dur="0.42s" fill="freeze"/><animateTransform attributeName="transform" type="translate" from="0 10" to="0 0" begin="0.532s" dur="0.42s" fill="freeze"/><line x1="427.9" y1="151.0" x2="427.9" y2="163.0" stroke="#3fb950" stroke-width="1.4"/><rect x="421.9" y="158.8" width="12.0" height="4.2" rx="1.4" fill="#3fb950"/></g><g opacity="0"><animate attributeName="opacity" from="0" to="1" begin="0.560s" dur="0.42s" fill="freeze"/><animateTransform attributeName="transform" type="translate" from="0 10" to="0 0" begin="0.560s" dur="0.42s" fill="freeze"/><line x1="448.5" y1="144.3" x2="448.5" y2="158.8" stroke="#f85149" stroke-width="1.4"/><rect x="442.5" y="158.8" width="12.0" height="1.2" rx="1.4" fill="#f85149"/></g><g opacity="0"><animate attributeName="opacity" from="0" to="1" begin="0.588s" dur="0.42s" fill="freeze"/><animateTransform attributeName="transform" type="translate" from="0 10" to="0 0" begin="0.588s" dur="0.42s" fill="freeze"/><line x1="469.1" y1="147.4" x2="469.1" y2="161.6" stroke="#3fb950" stroke-width="1.4"/><rect x="463.1" y="150.7" width="12.0" height="8.0" rx="1.4" fill="#3fb950"/></g><g opacity="0"><animate attributeName="opacity" from="0" to="1" begin="0.616s" dur="0.42s" fill="freeze"/><animateTransform attributeName="transform" type="translate" from="0 10" to="0 0" begin="0.616s" dur="0.42s" fill="freeze"/><line x1="489.7" y1="129.8" x2="489.7" y2="151.3" stroke="#3fb950" stroke-width="1.4"/><rect x="483.7" y="129.8" width="12.0" height="21.0" rx="1.4" fill="#3fb950"/></g><g opacity="0"><animate attributeName="opacity" from="0" to="1" begin="0.644s" dur="0.42s" fill="freeze"/><animateTransform attributeName="transform" type="translate" from="0 10" to="0 0" begin="0.644s" dur="0.42s" fill="freeze"/><line x1="510.3" y1="110.8" x2="510.3" y2="129.8" stroke="#3fb950" stroke-width="1.4"/><rect x="504.3" y="118.3" width="12.0" height="11.4" rx="1.4" fill="#3fb950"/></g><g opacity="0"><animate attributeName="opacity" from="0" to="1" begin="0.672s" dur="0.42s" fill="freeze"/><animateTransform attributeName="transform" type="translate" from="0 10" to="0 0" begin="0.672s" dur="0.42s" fill="freeze"/><line x1="530.9" y1="94.0" x2="530.9" y2="118.3" stroke="#3fb950" stroke-width="1.4"/><rect x="524.9" y="100.7" width="12.0" height="17.6" rx="1.4" fill="#3fb950"/></g><g opacity="0"><animate attributeName="opacity" from="0" to="1" begin="0.700s" dur="0.42s" fill="freeze"/><animateTransform attributeName="transform" type="translate" from="0 10" to="0 0" begin="0.700s" dur="0.42s" fill="freeze"/><line x1="551.5" y1="96.5" x2="551.5" y2="103.4" stroke="#3fb950" stroke-width="1.4"/><rect x="545.5" y="98.7" width="12.0" height="2.1" rx="1.4" fill="#3fb950"/></g><g opacity="0"><animate attributeName="opacity" from="0" to="1" begin="0.728s" dur="0.42s" fill="freeze"/><animateTransform attributeName="transform" type="translate" from="0 10" to="0 0" begin="0.728s" dur="0.42s" fill="freeze"/><line x1="572.1" y1="80.0" x2="572.1" y2="98.7" stroke="#3fb950" stroke-width="1.4"/><rect x="566.2" y="96.2" width="12.0" height="2.4" rx="1.4" fill="#3fb950"/></g><g opacity="0"><animate attributeName="opacity" from="0" to="1" begin="0.756s" dur="0.42s" fill="freeze"/><animateTransform attributeName="transform" type="translate" from="0 10" to="0 0" begin="0.756s" dur="0.42s" fill="freeze"/><line x1="592.7" y1="75.3" x2="592.7" y2="96.2" stroke="#3fb950" stroke-width="1.4"/><rect x="586.8" y="92.7" width="12.0" height="3.5" rx="1.4" fill="#3fb950"/></g><g opacity="0"><animate attributeName="opacity" from="0" to="1" begin="0.784s" dur="0.42s" fill="freeze"/><animateTransform attributeName="transform" type="translate" from="0 10" to="0 0" begin="0.784s" dur="0.42s" fill="freeze"/><line x1="613.3" y1="81.8" x2="613.3" y2="109.1" stroke="#3fb950" stroke-width="1.4"/><rect x="607.4" y="81.8" width="12.0" height="10.9" rx="1.4" fill="#3fb950"/></g><g opacity="0"><animate attributeName="opacity" from="0" to="1" begin="0.812s" dur="0.42s" fill="freeze"/><animateTransform attributeName="transform" type="translate" from="0 10" to="0 0" begin="0.812s" dur="0.42s" fill="freeze"/><line x1="634.0" y1="76.7" x2="634.0" y2="92.1" stroke="#f85149" stroke-width="1.4"/><rect x="628.0" y="81.8" width="12.0" height="3.2" rx="1.4" fill="#f85149"/></g><g opacity="0"><animate attributeName="opacity" from="0" to="1" begin="0.840s" dur="0.42s" fill="freeze"/><animateTransform attributeName="transform" type="translate" from="0 10" to="0 0" begin="0.840s" dur="0.42s" fill="freeze"/><line x1="654.6" y1="74.0" x2="654.6" y2="85.0" stroke="#3fb950" stroke-width="1.4"/><rect x="648.6" y="80.6" width="12.0" height="4.3" rx="1.4" fill="#3fb950"/></g><g opacity="0"><animate attributeName="opacity" from="0" to="1" begin="0.868s" dur="0.42s" fill="freeze"/><animateTransform attributeName="transform" type="translate" from="0 10" to="0 0" begin="0.868s" dur="0.42s" fill="freeze"/><line x1="675.2" y1="75.4" x2="675.2" y2="89.1" stroke="#f85149" stroke-width="1.4"/><rect x="669.2" y="80.6" width="12.0" height="8.5" rx="1.4" fill="#f85149"/></g><g opacity="0"><animate attributeName="opacity" from="0" to="1" begin="0.896s" dur="0.42s" fill="freeze"/><animateTransform attributeName="transform" type="translate" from="0 10" to="0 0" begin="0.896s" dur="0.42s" fill="freeze"/><line x1="695.8" y1="84.7" x2="695.8" y2="91.1" stroke="#3fb950" stroke-width="1.4"/><rect x="689.8" y="88.8" width="12.0" height="1.2" rx="1.4" fill="#3fb950"/></g><g opacity="0"><animate attributeName="opacity" from="0" to="1" begin="0.924s" dur="0.42s" fill="freeze"/><animateTransform attributeName="transform" type="translate" from="0 10" to="0 0" begin="0.924s" dur="0.42s" fill="freeze"/><line x1="716.4" y1="88.3" x2="716.4" y2="102.9" stroke="#f85149" stroke-width="1.4"/><rect x="710.4" y="88.8" width="12.0" height="10.5" rx="1.4" fill="#f85149"/></g><g opacity="0"><animate attributeName="opacity" from="0" to="1" begin="0.952s" dur="0.42s" fill="freeze"/><animateTransform attributeName="transform" type="translate" from="0 10" to="0 0" begin="0.952s" dur="0.42s" fill="freeze"/><line x1="737.0" y1="95.6" x2="737.0" y2="111.3" stroke="#f85149" stroke-width="1.4"/><rect x="731.0" y="99.3" width="12.0" height="5.9" rx="1.4" fill="#f85149"/></g><g opacity="0"><animate attributeName="opacity" from="0" to="1" begin="0.980s" dur="0.42s" fill="freeze"/><animateTransform attributeName="transform" type="translate" from="0 10" to="0 0" begin="0.980s" dur="0.42s" fill="freeze"/><line x1="757.6" y1="97.7" x2="757.6" y2="107.1" stroke="#f85149" stroke-width="1.4"/><rect x="751.6" y="105.2" width="12.0" height="1.9" rx="1.4" fill="#f85149"/></g><g opacity="0"><animate attributeName="opacity" from="0" to="1" begin="1.008s" dur="0.42s" fill="freeze"/><animateTransform attributeName="transform" type="translate" from="0 10" to="0 0" begin="1.008s" dur="0.42s" fill="freeze"/><line x1="778.2" y1="106.4" x2="778.2" y2="129.8" stroke="#f85149" stroke-width="1.4"/><rect x="772.2" y="107.1" width="12.0" height="18.5" rx="1.4" fill="#f85149"/></g><g opacity="0"><animate attributeName="opacity" from="0" to="1" begin="1.036s" dur="0.42s" fill="freeze"/><animateTransform attributeName="transform" type="translate" from="0 10" to="0 0" begin="1.036s" dur="0.42s" fill="freeze"/><line x1="798.8" y1="116.2" x2="798.8" y2="125.5" stroke="#3fb950" stroke-width="1.4"/><rect x="792.8" y="118.3" width="12.0" height="7.2" rx="1.4" fill="#3fb950"/></g><g opacity="0"><animate attributeName="opacity" from="0" to="1" begin="1.064s" dur="0.42s" fill="freeze"/><animateTransform attributeName="transform" type="translate" from="0 10" to="0 0" begin="1.064s" dur="0.42s" fill="freeze"/><line x1="819.4" y1="111.4" x2="819.4" y2="124.9" stroke="#f85149" stroke-width="1.4"/><rect x="813.5" y="118.3" width="12.0" height="6.6" rx="1.4" fill="#f85149"/></g><g opacity="0"><animate attributeName="opacity" from="0" to="1" begin="1.092s" dur="0.42s" fill="freeze"/><animateTransform attributeName="transform" type="translate" from="0 10" to="0 0" begin="1.092s" dur="0.42s" fill="freeze"/><line x1="840.0" y1="107.1" x2="840.0" y2="124.9" stroke="#3fb950" stroke-width="1.4"/><rect x="834.1" y="107.1" width="12.0" height="17.7" rx="1.4" fill="#3fb950"/></g><g opacity="0"><animate attributeName="opacity" from="0" to="1" begin="1.120s" dur="0.42s" fill="freeze"/><animateTransform attributeName="transform" type="translate" from="0 10" to="0 0" begin="1.120s" dur="0.42s" fill="freeze"/><line x1="860.7" y1="107.1" x2="860.7" y2="126.8" stroke="#f85149" stroke-width="1.4"/><rect x="854.7" y="107.1" width="12.0" height="14.1" rx="1.4" fill="#f85149"/></g><g opacity="0"><animate attributeName="opacity" from="0" to="1" begin="1.148s" dur="0.42s" fill="freeze"/><animateTransform attributeName="transform" type="translate" from="0 10" to="0 0" begin="1.148s" dur="0.42s" fill="freeze"/><line x1="881.3" y1="101.8" x2="881.3" y2="130.1" stroke="#3fb950" stroke-width="1.4"/><rect x="875.3" y="101.8" width="12.0" height="19.4" rx="1.4" fill="#3fb950"/></g><g opacity="0"><animate attributeName="opacity" from="0" to="1" begin="1.176s" dur="0.42s" fill="freeze"/><animateTransform attributeName="transform" type="translate" from="0 10" to="0 0" begin="1.176s" dur="0.42s" fill="freeze"/><line x1="901.9" y1="98.0" x2="901.9" y2="113.7" stroke="#f85149" stroke-width="1.4"/><rect x="895.9" y="101.8" width="12.0" height="10.2" rx="1.4" fill="#f85149"/></g><g opacity="0"><animate attributeName="opacity" from="0" to="1" begin="1.204s" dur="0.42s" fill="freeze"/><animateTransform attributeName="transform" type="translate" from="0 10" to="0 0" begin="1.204s" dur="0.42s" fill="freeze"/><line x1="922.5" y1="108.0" x2="922.5" y2="122.8" stroke="#f85149" stroke-width="1.4"/><rect x="916.5" y="112.0" width="12.0" height="2.1" rx="1.4" fill="#f85149"/></g><g opacity="0"><animate attributeName="opacity" from="0" to="1" begin="1.232s" dur="0.42s" fill="freeze"/><animateTransform attributeName="transform" type="translate" from="0 10" to="0 0" begin="1.232s" dur="0.42s" fill="freeze"/><line x1="943.1" y1="92.0" x2="943.1" y2="115.2" stroke="#3fb950" stroke-width="1.4"/><rect x="937.1" y="92.5" width="12.0" height="21.6" rx="1.4" fill="#3fb950"/></g><g opacity="0"><animate attributeName="opacity" from="0" to="1" begin="1.260s" dur="0.42s" fill="freeze"/><animateTransform attributeName="transform" type="translate" from="0 10" to="0 0" begin="1.260s" dur="0.42s" fill="freeze"/><line x1="963.7" y1="92.5" x2="963.7" y2="107.2" stroke="#f85149" stroke-width="1.4"/><rect x="957.7" y="92.5" width="12.0" height="9.7" rx="1.4" fill="#f85149"/></g><polyline points="180.6,175.9 201.2,171.6 221.8,168.5 242.4,168.0 263.0,171.4 283.6,170.9 304.2,168.6 324.8,166.6 345.4,163.4 366.0,161.7 386.7,161.4 407.3,160.9 427.9,156.5 448.5,154.2 469.1,153.9 489.7,150.6 510.3,148.3 530.9,141.9 551.5,134.8 572.1,126.5 592.7,118.2 613.3,108.6 634.0,100.4 654.6,94.2 675.2,90.6 695.8,89.1 716.4,89.2 737.0,90.3 757.6,92.1 778.2,97.6 798.8,101.7 819.4,107.3 840.0,109.5 860.7,113.6 881.3,113.9 901.9,114.8 922.5,115.6 943.1,111.5 963.7,109.5" fill="none" stroke="#58a6ff" stroke-width="2" stroke-linecap="round" stroke-linejoin="round" filter="url(#soft)" stroke-dasharray="948" stroke-dashoffset="948"><animate attributeName="stroke-dashoffset" from="948" to="0" begin="0.4s" dur="1.5s" fill="freeze"/></polyline><g opacity="0"><animate attributeName="opacity" from="0" to="1" begin="0.2s" dur="0.9s" fill="freeze"/><text x="32" y="40" font-family="'Segoe UI',Helvetica,Arial,sans-serif" font-size="30" font-weight="700" fill="#e6edf3">hilothefunnydog123-coder</text><text x="34" y="62" font-family="'Segoe UI',Helvetica,Arial,sans-serif" font-size="14" fill="#8b949e">quant tooling · market simulators · fintech · building the whole stack</text><circle cx="966" cy="34" r="4" fill="#3fb950"><animate attributeName="opacity" values="1;0.25;1" dur="1.6s" repeatCount="indefinite"/></circle><text x="954" y="38" text-anchor="end" font-family="'Segoe UI',Helvetica,Arial,sans-serif" font-size="12" fill="#8b949e">LIVE</text></g></svg>