<svg xmlns="http://www.w3.org/2000/svg" viewBox="0 0 720 230" width="100%" role="img" aria-label="strategy equity curve"><defs><linearGradient id="fill" x1="0" y1="0" x2="0" y2="1"><stop offset="0" stop-color="#3fb950" stop-opacity="0.28"/><stop offset="1" stop-color="#3fb950" stop-opacity="0"/></linearGradient></defs><rect x="1" y="1" width="718" height="228" rx="14" fill="#0d1117" stroke="#232b3a"/><line x1="16" y1="77.0" x2="704" y2="77.0" stroke="#1b2230" stroke-width="1"/><line x1="16" y1="120.0" x2="704" y2="120.0" stroke="#1b2230" stroke-width="1"/><line x1="16" y1="163.0" x2="704" y2="163.0" stroke="#1b2230" stroke-width="1"/><polygon points="16.0,206.0 16.0,173.8 19.4,173.8 22.7,173.8 26.1,173.8 29.4,173.8 32.8,173.8 36.1,173.8 39.5,173.8 42.8,173.8 46.2,173.8 49.6,173.8 52.9,173.8 56.3,173.8 59.6,174.6 63.0,177.4 66.3,176.9 69.7,176.7 73.1,184.5 76.4,184.5 79.8,184.5 83.1,184.5 86.5,184.5 89.8,184.5 93.2,184.5 96.5,184.5 99.9,184.5 103.3,184.5 106.6,184.5 110.0,184.5 113.3,184.5 116.7,184.5 120.0,184.5 123.4,184.5 126.8,184.5 130.1,184.5 133.5,184.5 136.8,184.5 140.2,184.5 143.5,184.5 146.9,184.5 150.2,184.7 153.6,183.8 157.0,178.9 160.3,177.2 163.7,175.4 167.0,167.1 170.4,160.5 173.7,164.8 177.1,157.7 180.4,156.7 183.8,161.7 187.2,155.3 190.5,148.4 193.9,138.7 197.2,147.7 200.6,151.7 203.9,149.5 207.3,145.5 210.7,144.8 214.0,145.6 217.4,144.8 220.7,142.1 224.1,138.0 227.4,136.3 230.8,135.2 234.1,134.6 237.5,133.7 240.9,129.0 244.2,126.7 247.6,125.4 250.9,124.7 254.3,123.4 257.6,120.2 261.0,119.7 264.4,114.7 267.7,113.7 271.1,118.3 274.4,114.1 277.8,114.1 281.1,111.3 284.5,109.1 287.8,109.7 291.2,112.1 294.6,115.9 297.9,111.7 301.3,107.3 304.6,111.8 308.0,101.7 311.3,98.1 314.7,96.5 318.0,90.1 321.4,82.1 324.8,80.8 328.1,84.5 331.5,76.6 334.8,79.6 338.2,83.8 341.5,99.9 344.9,105.4 348.3,105.4 351.6,105.4 355.0,105.4 358.3,105.4 361.7,105.4 365.0,105.4 368.4,105.4 371.7,105.4 375.1,105.4 378.5,105.4 381.8,105.4 385.2,105.4 388.5,105.4 391.9,105.4 395.2,105.4 398.6,105.4 402.0,105.4 405.3,105.4 408.7,105.4 412.0,108.4 415.4,112.9 418.7,103.5 422.1,99.3 425.4,105.0 428.8,98.4 432.2,95.8 435.5,81.8 438.9,92.0 442.2,95.7 445.6,97.8 448.9,89.8 452.3,83.0 455.6,84.9 459.0,80.8 462.4,79.9 465.7,86.5 469.1,87.7 472.4,88.5 475.8,90.0 479.1,90.0 482.5,90.0 485.9,88.5 489.2,82.2 492.6,82.3 495.9,88.4 499.3,90.6 502.6,88.2 506.0,83.9 509.3,83.4 512.7,87.4 516.1,96.9 519.4,96.9 522.8,96.9 526.1,96.9 529.5,96.9 532.8,94.7 536.2,87.3 539.6,81.4 542.9,80.2 546.3,80.7 549.6,78.9 553.0,66.2 556.3,64.3 559.7,63.8 563.0,60.9 566.4,50.4 569.8,44.4 573.1,43.4 576.5,37.7 579.8,56.9 583.2,61.9 586.5,52.3 589.9,50.5 593.2,45.9 596.6,46.1 600.0,40.5 603.3,49.5 606.7,42.1 610.0,34.0 613.4,35.7 616.7,54.1 620.1,50.6 623.5,53.3 626.8,53.3 630.2,53.3 633.5,60.0 636.9,66.1 640.2,69.0 643.6,69.0 646.9,69.0 650.3,69.0 653.7,69.0 657.0,69.0 660.4,69.0 663.7,69.0 667.1,69.0 670.4,69.0 673.8,69.0 677.2,69.9 680.5,72.2 683.9,76.7 687.2,73.9 690.6,78.4 693.9,89.0 697.3,89.0 700.6,89.0 704.0,89.0 704.0,206.0" fill="url(#fill)"/><polyline points="16.0,173.8 19.4,174.3 22.7,172.5 26.1,167.5 29.4,164.8 32.8,164.7 36.1,165.4 39.5,164.1 42.8,168.1 46.2,168.0 49.6,165.1 52.9,159.7 56.3,159.6 59.6,161.2 63.0,164.3 66.3,163.7 69.7,159.9 73.1,169.0 76.4,169.7 79.8,171.9 83.1,170.8 86.5,170.3 89.8,167.9 93.2,168.2 96.5,169.3 99.9,168.7 103.3,171.7 106.6,178.6 110.0,180.9 113.3,185.4 116.7,181.0 120.0,183.8 123.4,182.5 126.8,184.4 130.1,182.2 133.5,181.6 136.8,185.7 140.2,187.4 143.5,183.4 146.9,180.5 150.2,179.2 153.6,178.3 157.0,173.1 160.3,171.4 163.7,169.4 167.0,160.9 170.4,153.9 173.7,158.4 177.1,151.0 180.4,149.9 183.8,155.2 187.2,148.5 190.5,141.3 193.9,131.2 197.2,140.6 200.6,144.7 203.9,142.5 207.3,138.3 210.7,137.5 214.0,138.3 217.4,137.6 220.7,134.7 224.1,130.4 227.4,128.7 230.8,127.5 234.1,126.9 237.5,126.0 240.9,121.1 244.2,118.7 247.6,117.3 250.9,116.6 254.3,115.2 257.6,111.9 261.0,111.4 264.4,106.1 267.7,105.1 271.1,109.9 274.4,105.5 277.8,105.6 281.1,102.6 284.5,100.3 287.8,100.9 291.2,103.4 294.6,107.4 297.9,103.0 301.3,98.4 304.6,103.1 308.0,92.6 311.3,88.8 314.7,87.2 318.0,80.5 321.4,72.2 324.8,70.7 328.1,74.6 331.5,66.4 334.8,69.5 338.2,73.9 341.5,90.7 344.9,102.0 348.3,119.1 351.6,132.6 355.0,146.2 358.3,144.8 361.7,146.2 365.0,153.4 368.4,167.1 371.7,174.2 375.1,186.4 378.5,191.5 381.8,195.8 385.2,197.2 388.5,205.6 391.9,206.0 395.2,202.1 398.6,205.0 402.0,200.1 405.3,201.1 408.7,190.0 412.0,190.3 415.4,193.0 418.7,187.4 422.1,184.9 425.4,188.2 428.8,184.3 432.2,182.8 435.5,174.3 438.9,180.4 442.2,182.7 445.6,184.0 448.9,179.1 452.3,175.1 455.6,176.2 459.0,173.7 462.4,173.2 465.7,177.2 469.1,177.9 472.4,178.4 475.8,176.9 479.1,180.6 482.5,174.9 485.9,174.2 489.2,170.4 492.6,170.4 495.9,174.2 499.3,175.5 502.6,174.0 506.0,171.4 509.3,171.1 512.7,173.5 516.1,183.7 519.4,183.4 522.8,183.1 526.1,177.4 529.5,174.6 532.8,169.8 536.2,164.9 539.6,161.1 542.9,160.3 546.3,160.6 549.6,159.5 553.0,151.1 556.3,149.8 559.7,149.6 563.0,147.7 566.4,140.8 569.8,136.8 573.1,136.2 576.5,132.4 579.8,145.0 583.2,148.3 586.5,142.0 589.9,140.8 593.2,137.8 596.6,137.9 600.0,134.3 603.3,140.2 606.7,135.3 610.0,130.0 613.4,131.1 616.7,143.2 620.1,140.9 623.5,143.7 626.8,133.3 630.2,132.4 633.5,137.0 636.9,141.3 640.2,150.2 643.6,148.6 646.9,151.1 650.3,151.3 653.7,148.2 657.0,147.6 660.4,151.7 663.7,151.4 667.1,153.1 670.4,155.5 673.8,147.7 677.2,144.1 680.5,145.7 683.9,148.8 687.2,146.8 690.6,150.0 693.9,157.3 697.3,161.2 700.6,157.7 704.0,157.4" fill="none" stroke="#58a6ff" stroke-width="1.6" opacity="0.85"/><polyline points="16.0,173.8 19.4,173.8 22.7,173.8 26.1,173.8 29.4,173.8 32.8,173.8 36.1,173.8 39.5,173.8 42.8,173.8 46.2,173.8 49.6,173.8 52.9,173.8 56.3,173.8 59.6,174.6 63.0,177.4 66.3,176.9 69.7,176.7 73.1,184.5 76.4,184.5 79.8,184.5 83.1,184.5 86.5,184.5 89.8,184.5 93.2,184.5 96.5,184.5 99.9,184.5 103.3,184.5 106.6,184.5 110.0,184.5 113.3,184.5 116.7,184.5 120.0,184.5 123.4,184.5 126.8,184.5 130.1,184.5 133.5,184.5 136.8,184.5 140.2,184.5 143.5,184.5 146.9,184.5 150.2,184.7 153.6,183.8 157.0,178.9 160.3,177.2 163.7,175.4 167.0,167.1 170.4,160.5 173.7,164.8 177.1,157.7 180.4,156.7 183.8,161.7 187.2,155.3 190.5,148.4 193.9,138.7 197.2,147.7 200.6,151.7 203.9,149.5 207.3,145.5 210.7,144.8 214.0,145.6 217.4,144.8 220.7,142.1 224.1,138.0 227.4,136.3 230.8,135.2 234.1,134.6 237.5,133.7 240.9,129.0 244.2,126.7 247.6,125.4 250.9,124.7 254.3,123.4 257.6,120.2 261.0,119.7 264.4,114.7 267.7,113.7 271.1,118.3 274.4,114.1 277.8,114.1 281.1,111.3 284.5,109.1 287.8,109.7 291.2,112.1 294.6,115.9 297.9,111.7 301.3,107.3 304.6,111.8 308.0,101.7 311.3,98.1 314.7,96.5 318.0,90.1 321.4,82.1 324.8,80.8 328.1,84.5 331.5,76.6 334.8,79.6 338.2,83.8 341.5,99.9 344.9,105.4 348.3,105.4 351.6,105.4 355.0,105.4 358.3,105.4 361.7,105.4 365.0,105.4 368.4,105.4 371.7,105.4 375.1,105.4 378.5,105.4 381.8,105.4 385.2,105.4 388.5,105.4 391.9,105.4 395.2,105.4 398.6,105.4 402.0,105.4 405.3,105.4 408.7,105.4 412.0,108.4 415.4,112.9 418.7,103.5 422.1,99.3 425.4,105.0 428.8,98.4 432.2,95.8 435.5,81.8 438.9,92.0 442.2,95.7 445.6,97.8 448.9,89.8 452.3,83.0 455.6,84.9 459.0,80.8 462.4,79.9 465.7,86.5 469.1,87.7 472.4,88.5 475.8,90.0 479.1,90.0 482.5,90.0 485.9,88.5 489.2,82.2 492.6,82.3 495.9,88.4 499.3,90.6 502.6,88.2 506.0,83.9 509.3,83.4 512.7,87.4 516.1,96.9 519.4,96.9 522.8,96.9 526.1,96.9 529.5,96.9 532.8,94.7 536.2,87.3 539.6,81.4 542.9,80.2 546.3,80.7 549.6,78.9 553.0,66.2 556.3,64.3 559.7,63.8 563.0,60.9 566.4,50.4 569.8,44.4 573.1,43.4 576.5,37.7 579.8,56.9 583.2,61.9 586.5,52.3 589.9,50.5 593.2,45.9 596.6,46.1 600.0,40.5 603.3,49.5 606.7,42.1 610.0,34.0 613.4,35.7 616.7,54.1 620.1,50.6 623.5,53.3 626.8,53.3 630.2,53.3 633.5,60.0 636.9,66.1 640.2,69.0 643.6,69.0 646.9,69.0 650.3,69.0 653.7,69.0 657.0,69.0 660.4,69.0 663.7,69.0 667.1,69.0 670.4,69.0 673.8,69.0 677.2,69.9 680.5,72.2 683.9,76.7 687.2,73.9 690.6,78.4 693.9,89.0 697.3,89.0 700.6,89.0 704.0,89.0" fill="none" stroke="#3fb950" stroke-width="2.4" stroke-linejoin="round"/><text x="20" y="24" font-family="'Segoe UI',Arial,sans-serif" font-size="14" font-weight="700" fill="#e6edf3">$10,000 in sample series (offline) — SMA(20/100) vs buy &amp; hold</text><text x="700" y="222" text-anchor="end" font-family="'Segoe UI',Arial,sans-serif" font-size="12" fill="#8b949e">strategy +60.9%  ·  buy &amp; hold +14.6%</text><circle cx="26" cy="218" r="4" fill="#3fb950"/><text x="36" y="222" font-family="'Segoe UI',Arial,sans-serif" font-size="12" fill="#8b949e">SMA crossover</text><circle cx="144" cy="218" r="4" fill="#58a6ff"/><text x="154" y="222" font-family="'Segoe UI',Arial,sans-serif" font-size="12" fill="#8b949e">buy &amp; hold</text></svg>