<svg xmlns="http://www.w3.org/2000/svg" viewBox="0 0 940 330" width="100%" role="img" aria-label="Monte Carlo option pricing"><rect x="1" y="1" width="938" height="328" rx="16" fill="#0d1117" stroke="#232b3a"/><text x="20" y="34" font-family="'Segoe UI',Arial,sans-serif" font-size="16" font-weight="700" fill="#e6edf3">MONTE CARLO</text><text x="150" y="34" font-family="'SFMono-Regular',Consolas,monospace" font-size="12" fill="#8b949e">European call · 2,000 simulated paths · GBM</text><text x="920" y="34" text-anchor="end" font-family="'SFMono-Regular',Consolas,monospace" font-size="11" fill="#8b949e">S₀=100  K=100  σ=20%  T=1y</text><line x1="150" y1="292.0" x2="700" y2="292.0" stroke="#1b2230" stroke-width="1"/><text x="142" y="296.0" text-anchor="end" font-family="'SFMono-Regular',Consolas,monospace" font-size="10" fill="#8b949e">65</text><line x1="150" y1="235.5" x2="700" y2="235.5" stroke="#1b2230" stroke-width="1"/><text x="142" y="239.5" text-anchor="end" font-family="'SFMono-Regular',Consolas,monospace" font-size="10" fill="#8b949e">94</text><line x1="150" y1="179.0" x2="700" y2="179.0" stroke="#1b2230" stroke-width="1"/><text x="142" y="183.0" text-anchor="end" font-family="'SFMono-Regular',Consolas,monospace" font-size="10" fill="#8b949e">124</text><line x1="150" y1="122.5" x2="700" y2="122.5" stroke="#1b2230" stroke-width="1"/><text x="142" y="126.5" text-anchor="end" font-family="'SFMono-Regular',Consolas,monospace" font-size="10" fill="#8b949e">153</text><line x1="150" y1="66.0" x2="700" y2="66.0" stroke="#1b2230" stroke-width="1"/><text x="142" y="70.0" text-anchor="end" font-family="'SFMono-Regular',Consolas,monospace" font-size="10" fill="#8b949e">182</text><line x1="150" y1="224.8" x2="890" y2="224.8" stroke="#f0c674" stroke-width="1.4" stroke-dasharray="5 4" opacity="0.9"/><text x="154" y="219.8" font-family="'SFMono-Regular',Consolas,monospace" font-size="10" fill="#f0c674">strike 100 — above = in the money</text><circle cx="150.0" cy="224.8" r="3.5" fill="#58a6ff"/><polyline points="150.0,224.8 160.6,212.7 171.2,219.0 181.7,217.2 192.3,218.6 202.9,223.5 213.5,226.5 224.0,229.3 234.6,229.8 245.2,227.8 255.8,222.3 266.3,221.2 276.9,215.2 287.5,212.8 298.1,212.4 308.7,213.9 319.2,219.6 329.8,228.4 340.4,229.1 351.0,230.2 361.5,228.8 372.1,227.4 382.7,234.2 393.3,238.0 403.8,243.8 414.4,239.2 425.0,240.1 435.6,239.8 446.2,244.5 456.7,250.7 467.3,253.7 477.9,254.5 488.5,252.7 499.0,259.8 509.6,258.6 520.2,262.7 530.8,265.2 541.3,266.9 551.9,268.9 562.5,267.3 573.1,264.0 583.7,262.8 594.2,265.4 604.8,263.9 615.4,262.6 626.0,259.2 636.5,258.4 647.1,265.6 657.7,269.0 668.3,271.0 678.8,267.5 689.4,268.3 700.0,264.8" fill="none" stroke="#f85149" stroke-width="1.3" opacity="0.38" stroke-dasharray="586" stroke-dashoffset="586"><animate attributeName="stroke-dashoffset" values="586;586;0;0;586" keyTimes="0;0.000;0.340;0.94;1" dur="9.0s" repeatCount="indefinite" calcMode="linear"/></polyline><polyline points="150.0,224.8 160.6,223.6 171.2,230.2 181.7,230.4 192.3,227.9 202.9,226.1 213.5,234.1 224.0,232.3 234.6,235.7 245.2,246.3 255.8,249.3 266.3,258.5 276.9,264.3 287.5,258.4 298.1,247.5 308.7,242.8 319.2,241.1 329.8,232.0 340.4,230.6 351.0,235.9 361.5,248.2 372.1,244.2 382.7,255.0 393.3,267.6 403.8,270.6 414.4,270.6 425.0,274.4 435.6,270.5 446.2,271.1 456.7,270.5 467.3,269.0 477.9,271.7 488.5,271.1 499.0,261.6 509.6,265.9 520.2,265.5 530.8,263.5 541.3,266.1 551.9,266.5 562.5,273.8 573.1,275.8 583.7,275.9 594.2,271.7 604.8,268.0 615.4,270.6 626.0,275.3 636.5,268.1 647.1,264.6 657.7,272.8 668.3,274.4 678.8,278.1 689.4,280.7 700.0,287.3" fill="none" stroke="#f85149" stroke-width="1.3" opacity="0.38" stroke-dasharray="615" stroke-dashoffset="615"><animate attributeName="stroke-dashoffset" values="615;615;0;0;615" keyTimes="0;0.017;0.357;0.94;1" dur="9.0s" repeatCount="indefinite" calcMode="linear"/></polyline><polyline points="150.0,224.8 160.6,227.3 171.2,230.3 181.7,231.8 192.3,226.6 202.9,225.7 213.5,232.4 224.0,241.4 234.6,244.2 245.2,238.8 255.8,234.3 266.3,237.5 276.9,231.8 287.5,229.8 298.1,233.2 308.7,231.2 319.2,231.8 329.8,237.7 340.4,240.1 351.0,239.5 361.5,233.0 372.1,238.5 382.7,237.5 393.3,237.6 403.8,238.0 414.4,244.2 425.0,238.2 435.6,231.7 446.2,223.4 456.7,221.0 467.3,212.9 477.9,210.0 488.5,204.3 499.0,206.5 509.6,205.3 520.2,207.4 530.8,213.7 541.3,216.4 551.9,222.7 562.5,228.9 573.1,231.1 583.7,234.4 594.2,223.6 604.8,213.9 615.4,207.8 626.0,203.2 636.5,208.5 647.1,207.0 657.7,215.5 668.3,219.2 678.8,222.0 689.4,224.1 700.0,219.5" fill="none" stroke="#3fb950" stroke-width="1.3" opacity="0.72" stroke-dasharray="605" stroke-dashoffset="605"><animate attributeName="stroke-dashoffset" values="605;605;0;0;605" keyTimes="0;0.034;0.374;0.94;1" dur="9.0s" repeatCount="indefinite" calcMode="linear"/></polyline><polyline points="150.0,224.8 160.6,229.1 171.2,216.1 181.7,219.1 192.3,214.4 202.9,223.3 213.5,218.4 224.0,225.3 234.6,224.4 245.2,224.5 255.8,220.1 266.3,216.8 276.9,214.7 287.5,215.7 298.1,204.4 308.7,207.3 319.2,207.3 329.8,210.2 340.4,209.5 351.0,215.2 361.5,217.6 372.1,214.9 382.7,218.3 393.3,215.8 403.8,219.2 414.4,211.2 425.0,212.1 435.6,201.8 446.2,198.9 456.7,199.8 467.3,194.0 477.9,186.7 488.5,176.7 499.0,167.3 509.6,161.0 520.2,169.5 530.8,163.0 541.3,163.8 551.9,161.0 562.5,151.9 573.1,157.3 583.7,147.5 594.2,128.9 604.8,124.5 615.4,127.2 626.0,116.0 636.5,114.6 647.1,105.7 657.7,94.7 668.3,108.3 678.8,105.6 689.4,118.8 700.0,124.8" fill="none" stroke="#3fb950" stroke-width="1.3" opacity="0.72" stroke-dasharray="650" stroke-dashoffset="650"><animate attributeName="stroke-dashoffset" values="650;650;0;0;650" keyTimes="0;0.052;0.392;0.94;1" dur="9.0s" repeatCount="indefinite" calcMode="linear"/></polyline><polyline points="150.0,224.8 160.6,221.6 171.2,228.2 181.7,232.1 192.3,234.6 202.9,233.1 213.5,231.4 224.0,229.1 234.6,231.9 245.2,235.9 255.8,234.0 266.3,238.5 276.9,242.7 287.5,239.4 298.1,243.4 308.7,247.9 319.2,242.6 329.8,243.0 340.4,253.8 351.0,257.3 361.5,248.4 372.1,234.6 382.7,236.2 393.3,232.8 403.8,229.1 414.4,227.6 425.0,237.2 435.6,232.3 446.2,231.0 456.7,232.4 467.3,240.8 477.9,244.1 488.5,244.8 499.0,246.2 509.6,245.3 520.2,247.3 530.8,242.7 541.3,239.8 551.9,245.6 562.5,248.7 573.1,246.9 583.7,249.7 594.2,243.1 604.8,245.9 615.4,244.9 626.0,242.2 636.5,247.8 647.1,242.0 657.7,243.2 668.3,246.9 678.8,250.4 689.4,258.3 700.0,264.5" fill="none" stroke="#f85149" stroke-width="1.3" opacity="0.38" stroke-dasharray="601" stroke-dashoffset="601"><animate attributeName="stroke-dashoffset" values="601;601;0;0;601" keyTimes="0;0.069;0.409;0.94;1" dur="9.0s" repeatCount="indefinite" calcMode="linear"/></polyline><polyline points="150.0,224.8 160.6,216.8 171.2,217.7 181.7,219.5 192.3,218.7 202.9,215.7 213.5,220.4 224.0,221.8 234.6,220.5 245.2,215.1 255.8,213.9 266.3,204.4 276.9,206.0 287.5,208.2 298.1,216.4 308.7,216.9 319.2,213.5 329.8,215.2 340.4,216.4 351.0,222.1 361.5,225.5 372.1,228.1 382.7,228.8 393.3,223.3 403.8,220.7 414.4,215.9 425.0,209.4 435.6,212.3 446.2,204.8 456.7,204.8 467.3,212.7 477.9,216.4 488.5,217.1 499.0,225.8 509.6,213.3 520.2,213.8 530.8,209.2 541.3,216.3 551.9,216.0 562.5,214.8 573.1,219.4 583.7,218.2 594.2,218.5 604.8,216.7 615.4,223.6 626.0,221.1 636.5,222.9 647.1,227.8 657.7,239.3 668.3,240.5 678.8,242.6 689.4,230.9 700.0,237.3" fill="none" stroke="#f85149" stroke-width="1.3" opacity="0.38" stroke-dasharray="606" stroke-dashoffset="606"><animate attributeName="stroke-dashoffset" values="606;606;0;0;606" keyTimes="0;0.086;0.426;0.94;1" dur="9.0s" repeatCount="indefinite" calcMode="linear"/></polyline><polyline points="150.0,224.8 160.6,216.9 171.2,210.0 181.7,207.9 192.3,206.8 202.9,204.1 213.5,213.0 224.0,205.1 234.6,207.3 245.2,211.9 255.8,212.3 266.3,227.8 276.9,234.9 287.5,241.1 298.1,249.0 308.7,246.5 319.2,238.9 329.8,239.2 340.4,241.0 351.0,239.7 361.5,242.5 372.1,242.1 382.7,240.4 393.3,241.9 403.8,244.2 414.4,244.1 425.0,244.1 435.6,241.1 446.2,248.7 456.7,254.2 467.3,256.7 477.9,254.8 488.5,260.8 499.0,255.7 509.6,249.4 520.2,253.2 530.8,248.2 541.3,258.2 551.9,258.9 562.5,266.2 573.1,261.9 583.7,258.5 594.2,256.5 604.8,259.5 615.4,264.7 626.0,263.3 636.5,265.8 647.1,263.3 657.7,270.4 668.3,269.0 678.8,267.2 689.4,276.8 700.0,282.1" fill="none" stroke="#f85149" stroke-width="1.3" opacity="0.38" stroke-dasharray="609" stroke-dashoffset="609"><animate attributeName="stroke-dashoffset" values="609;609;0;0;609" keyTimes="0;0.103;0.443;0.94;1" dur="9.0s" repeatCount="indefinite" calcMode="linear"/></polyline><polyline points="150.0,224.8 160.6,229.0 171.2,232.7 181.7,241.8 192.3,242.2 202.9,248.1 213.5,249.0 224.0,257.8 234.6,263.5 245.2,260.9 255.8,268.6 266.3,269.2 276.9,263.5 287.5,260.4 298.1,266.6 308.7,257.4 319.2,260.3 329.8,256.6 340.4,252.7 351.0,254.7 361.5,252.2 372.1,265.0 382.7,265.0 393.3,264.8 403.8,266.7 414.4,266.7 425.0,262.6 435.6,258.9 446.2,262.1 456.7,259.2 467.3,254.4 477.9,254.3 488.5,253.1 499.0,264.4 509.6,271.5 520.2,270.4 530.8,276.9 541.3,274.0 551.9,269.7 562.5,274.2 573.1,279.2 583.7,280.4 594.2,280.0 604.8,277.2 615.4,278.6 626.0,278.9 636.5,283.2 647.1,282.5 657.7,285.9 668.3,282.6 678.8,280.4 689.4,287.0 700.0,286.2" fill="none" stroke="#f85149" stroke-width="1.3" opacity="0.38" stroke-dasharray="599" stroke-dashoffset="599"><animate attributeName="stroke-dashoffset" values="599;599;0;0;599" keyTimes="0;0.120;0.460;0.94;1" dur="9.0s" repeatCount="indefinite" calcMode="linear"/></polyline><polyline points="150.0,224.8 160.6,231.2 171.2,226.8 181.7,232.9 192.3,226.9 202.9,221.8 213.5,211.5 224.0,210.4 234.6,210.8 245.2,204.4 255.8,212.3 266.3,213.2 276.9,215.7 287.5,216.8 298.1,226.1 308.7,235.5 319.2,244.7 329.8,238.1 340.4,240.4 351.0,237.9 361.5,239.2 372.1,241.0 382.7,235.1 393.3,247.2 403.8,248.8 414.4,253.1 425.0,257.9 435.6,265.5 446.2,272.4 456.7,277.7 467.3,273.9 477.9,277.2 488.5,279.5 499.0,280.7 509.6,278.8 520.2,275.2 530.8,275.0 541.3,275.5 551.9,273.9 562.5,277.6 573.1,277.3 583.7,271.0 594.2,274.2 604.8,278.1 615.4,284.5 626.0,284.7 636.5,282.9 647.1,285.0 657.7,286.7 668.3,282.8 678.8,283.1 689.4,281.0 700.0,282.9" fill="none" stroke="#f85149" stroke-width="1.3" opacity="0.38" stroke-dasharray="603" stroke-dashoffset="603"><animate attributeName="stroke-dashoffset" values="603;603;0;0;603" keyTimes="0;0.138;0.478;0.94;1" dur="9.0s" repeatCount="indefinite" calcMode="linear"/></polyline><polyline points="150.0,224.8 160.6,218.4 171.2,214.0 181.7,215.5 192.3,219.6 202.9,205.8 213.5,212.7 224.0,218.8 234.6,232.8 245.2,229.9 255.8,230.2 266.3,231.2 276.9,239.6 287.5,240.1 298.1,244.5 308.7,250.6 319.2,252.3 329.8,251.4 340.4,252.6 351.0,255.5 361.5,252.6 372.1,252.1 382.7,254.3 393.3,252.2 403.8,251.3 414.4,247.5 425.0,244.1 435.6,241.1 446.2,244.5 456.7,238.6 467.3,234.1 477.9,237.4 488.5,231.6 499.0,231.7 509.6,237.3 520.2,238.1 530.8,244.9 541.3,239.9 551.9,246.6 562.5,240.0 573.1,244.7 583.7,245.9 594.2,240.2 604.8,239.0 615.4,247.4 626.0,248.6 636.5,257.4 647.1,254.8 657.7,259.8 668.3,260.6 678.8,261.7 689.4,268.5 700.0,267.5" fill="none" stroke="#f85149" stroke-width="1.3" opacity="0.38" stroke-dasharray="606" stroke-dashoffset="606"><animate attributeName="stroke-dashoffset" values="606;606;0;0;606" keyTimes="0;0.155;0.495;0.94;1" dur="9.0s" repeatCount="indefinite" calcMode="linear"/></polyline><polyline points="150.0,224.8 160.6,215.6 171.2,221.2 181.7,224.9 192.3,223.4 202.9,217.3 213.5,222.7 224.0,222.1 234.6,220.7 245.2,215.4 255.8,220.5 266.3,207.2 276.9,195.6 287.5,204.3 298.1,209.5 308.7,207.9 319.2,212.1 329.8,215.6 340.4,216.0 351.0,220.6 361.5,224.3 372.1,223.7 382.7,226.3 393.3,224.8 403.8,219.6 414.4,213.9 425.0,213.8 435.6,202.4 446.2,205.2 456.7,200.4 467.3,189.8 477.9,189.0 488.5,184.3 499.0,187.8 509.6,191.9 520.2,191.1 530.8,188.5 541.3,186.6 551.9,182.8 562.5,181.2 573.1,182.2 583.7,186.6 594.2,187.7 604.8,187.8 615.4,188.2 626.0,195.4 636.5,187.9 647.1,181.3 657.7,180.2 668.3,183.7 678.8,176.9 689.4,178.8 700.0,180.8" fill="none" stroke="#3fb950" stroke-width="1.3" opacity="0.72" stroke-dasharray="608" stroke-dashoffset="608"><animate attributeName="stroke-dashoffset" values="608;608;0;0;608" keyTimes="0;0.172;0.512;0.94;1" dur="9.0s" repeatCount="indefinite" calcMode="linear"/></polyline><polyline points="150.0,224.8 160.6,221.9 171.2,225.1 181.7,224.7 192.3,227.6 202.9,224.6 213.5,222.7 224.0,219.1 234.6,217.0 245.2,215.4 255.8,213.6 266.3,209.4 276.9,215.0 287.5,221.6 298.1,221.5 308.7,220.9 319.2,222.4 329.8,214.5 340.4,212.2 351.0,205.2 361.5,204.9 372.1,212.9 382.7,220.7 393.3,215.0 403.8,215.0 414.4,217.8 425.0,210.9 435.6,201.3 446.2,199.2 456.7,191.6 467.3,193.7 477.9,199.6 488.5,209.4 499.0,203.3 509.6,212.3 520.2,214.8 530.8,214.6 541.3,211.5 551.9,221.9 562.5,223.4 573.1,227.8 583.7,220.3 594.2,221.5 604.8,225.2 615.4,216.3 626.0,215.6 636.5,211.4 647.1,209.8 657.7,210.9 668.3,206.9 678.8,211.2 689.4,219.0 700.0,222.6" fill="none" stroke="#3fb950" stroke-width="1.3" opacity="0.72" stroke-dasharray="606" stroke-dashoffset="606"><animate attributeName="stroke-dashoffset" values="606;606;0;0;606" keyTimes="0;0.189;0.529;0.94;1" dur="9.0s" repeatCount="indefinite" calcMode="linear"/></polyline><polyline points="150.0,224.8 160.6,221.7 171.2,223.9 181.7,218.4 192.3,214.7 202.9,213.7 213.5,207.7 224.0,205.7 234.6,204.1 245.2,205.9 255.8,206.7 266.3,207.3 276.9,201.4 287.5,192.2 298.1,185.7 308.7,184.3 319.2,185.3 329.8,183.9 340.4,187.6 351.0,187.9 361.5,190.2 372.1,190.6 382.7,204.8 393.3,205.0 403.8,201.4 414.4,207.8 425.0,197.8 435.6,197.1 446.2,200.6 456.7,192.3 467.3,198.2 477.9,181.8 488.5,186.4 499.0,180.7 509.6,171.6 520.2,167.1 530.8,166.4 541.3,171.4 551.9,172.5 562.5,171.2 573.1,164.8 583.7,179.6 594.2,175.8 604.8,183.2 615.4,187.3 626.0,188.1 636.5,192.1 647.1,188.5 657.7,198.6 668.3,195.9 678.8,202.1 689.4,204.3 700.0,204.9" fill="none" stroke="#3fb950" stroke-width="1.3" opacity="0.72" stroke-dasharray="619" stroke-dashoffset="619"><animate attributeName="stroke-dashoffset" values="619;619;0;0;619" keyTimes="0;0.206;0.546;0.94;1" dur="9.0s" repeatCount="indefinite" calcMode="linear"/></polyline><polyline points="150.0,224.8 160.6,232.1 171.2,230.2 181.7,219.3 192.3,222.9 202.9,227.7 213.5,220.0 224.0,211.1 234.6,222.4 245.2,224.4 255.8,228.7 266.3,228.1 276.9,228.7 287.5,234.0 298.1,236.3 308.7,231.0 319.2,235.8 329.8,234.9 340.4,231.9 351.0,223.3 361.5,221.3 372.1,220.2 382.7,225.3 393.3,224.2 403.8,217.2 414.4,214.9 425.0,208.3 435.6,211.1 446.2,206.9 456.7,208.5 467.3,212.6 477.9,216.1 488.5,209.7 499.0,206.6 509.6,207.8 520.2,209.4 530.8,205.0 541.3,207.7 551.9,201.4 562.5,199.8 573.1,203.2 583.7,204.5 594.2,210.6 604.8,216.6 615.4,219.5 626.0,222.3 636.5,224.3 647.1,228.4 657.7,231.9 668.3,230.4 678.8,237.2 689.4,249.2 700.0,241.5" fill="none" stroke="#f85149" stroke-width="1.3" opacity="0.38" stroke-dasharray="608" stroke-dashoffset="608"><animate attributeName="stroke-dashoffset" values="608;608;0;0;608" keyTimes="0;0.223;0.563;0.94;1" dur="9.0s" repeatCount="indefinite" calcMode="linear"/></polyline><polyline points="150.0,224.8 160.6,224.4 171.2,223.6 181.7,217.6 192.3,211.5 202.9,203.5 213.5,198.1 224.0,193.7 234.6,190.9 245.2,191.8 255.8,192.7 266.3,213.6 276.9,204.5 287.5,205.3 298.1,211.1 308.7,204.7 319.2,208.8 329.8,206.8 340.4,211.8 351.0,218.2 361.5,212.3 372.1,211.7 382.7,220.3 393.3,216.9 403.8,212.1 414.4,213.8 425.0,210.0 435.6,202.8 446.2,196.0 456.7,192.3 467.3,187.7 477.9,177.6 488.5,176.3 499.0,178.2 509.6,180.1 520.2,158.7 530.8,165.8 541.3,165.8 551.9,178.2 562.5,178.6 573.1,180.0 583.7,180.7 594.2,175.8 604.8,166.1 615.4,164.8 626.0,170.3 636.5,173.8 647.1,173.9 657.7,178.8 668.3,179.4 678.8,176.2 689.4,175.0 700.0,161.5" fill="none" stroke="#3fb950" stroke-width="1.3" opacity="0.72" stroke-dasharray="636" stroke-dashoffset="636"><animate attributeName="stroke-dashoffset" values="636;636;0;0;636" keyTimes="0;0.241;0.581;0.94;1" dur="9.0s" repeatCount="indefinite" calcMode="linear"/></polyline><polyline points="150.0,224.8 160.6,233.4 171.2,232.8 181.7,227.6 192.3,233.3 202.9,241.8 213.5,231.7 224.0,226.9 234.6,224.2 245.2,218.0 255.8,223.5 266.3,229.6 276.9,221.6 287.5,221.1 298.1,229.7 308.7,230.6 319.2,222.5 329.8,228.3 340.4,236.5 351.0,247.8 361.5,248.6 372.1,249.2 382.7,252.4 393.3,255.1 403.8,256.5 414.4,259.4 425.0,262.0 435.6,258.0 446.2,258.0 456.7,255.9 467.3,264.1 477.9,268.0 488.5,264.0 499.0,263.5 509.6,259.3 520.2,265.7 530.8,263.1 541.3,265.7 551.9,265.8 562.5,268.8 573.1,272.8 583.7,277.1 594.2,277.8 604.8,273.9 615.4,278.2 626.0,280.6 636.5,284.4 647.1,287.6 657.7,285.3 668.3,287.0 678.8,290.5 689.4,288.2 700.0,287.1" fill="none" stroke="#f85149" stroke-width="1.3" opacity="0.38" stroke-dasharray="603" stroke-dashoffset="603"><animate attributeName="stroke-dashoffset" values="603;603;0;0;603" keyTimes="0;0.258;0.598;0.94;1" dur="9.0s" repeatCount="indefinite" calcMode="linear"/></polyline><polyline points="150.0,224.8 160.6,223.2 171.2,222.6 181.7,225.9 192.3,221.9 202.9,225.4 213.5,224.4 224.0,223.8 234.6,217.8 245.2,218.9 255.8,214.7 266.3,224.1 276.9,223.6 287.5,222.7 298.1,222.4 308.7,233.0 319.2,229.5 329.8,232.9 340.4,236.4 351.0,228.8 361.5,230.1 372.1,225.5 382.7,234.4 393.3,231.1 403.8,230.3 414.4,229.0 425.0,234.0 435.6,232.4 446.2,233.5 456.7,226.8 467.3,229.6 477.9,237.8 488.5,232.7 499.0,238.3 509.6,239.5 520.2,235.9 530.8,227.6 541.3,224.9 551.9,221.2 562.5,220.4 573.1,219.9 583.7,220.4 594.2,218.8 604.8,223.7 615.4,222.8 626.0,216.6 636.5,215.9 647.1,216.9 657.7,212.9 668.3,217.8 678.8,219.0 689.4,206.6 700.0,202.0" fill="none" stroke="#3fb950" stroke-width="1.3" opacity="0.72" stroke-dasharray="597" stroke-dashoffset="597"><animate attributeName="stroke-dashoffset" values="597;597;0;0;597" keyTimes="0;0.275;0.615;0.94;1" dur="9.0s" repeatCount="indefinite" calcMode="linear"/></polyline><polyline points="150.0,224.8 160.6,220.9 171.2,221.6 181.7,225.4 192.3,231.3 202.9,231.3 213.5,224.7 224.0,225.1 234.6,220.8 245.2,222.4 255.8,221.9 266.3,219.9 276.9,203.6 287.5,202.9 298.1,208.1 308.7,202.9 319.2,203.0 329.8,199.8 340.4,204.1 351.0,198.9 361.5,203.0 372.1,200.7 382.7,203.1 393.3,207.4 403.8,204.0 414.4,201.6 425.0,213.1 435.6,209.2 446.2,204.7 456.7,203.7 467.3,201.7 477.9,200.1 488.5,198.4 499.0,200.4 509.6,194.2 520.2,186.6 530.8,191.9 541.3,191.5 551.9,197.0 562.5,199.8 573.1,194.1 583.7,193.9 594.2,192.7 604.8,195.0 615.4,180.4 626.0,172.9 636.5,170.3 647.1,169.0 657.7,157.0 668.3,148.4 678.8,146.3 689.4,147.6 700.0,155.8" fill="none" stroke="#3fb950" stroke-width="1.3" opacity="0.72" stroke-dasharray="611" stroke-dashoffset="611"><animate attributeName="stroke-dashoffset" values="611;611;0;0;611" keyTimes="0;0.292;0.632;0.94;1" dur="9.0s" repeatCount="indefinite" calcMode="linear"/></polyline><polyline points="150.0,224.8 160.6,217.7 171.2,208.3 181.7,194.6 192.3,192.9 202.9,187.4 213.5,199.2 224.0,195.3 234.6,199.7 245.2,204.5 255.8,209.2 266.3,214.0 276.9,216.8 287.5,213.9 298.1,217.7 308.7,219.6 319.2,220.4 329.8,209.4 340.4,205.0 351.0,208.6 361.5,204.1 372.1,194.4 382.7,195.3 393.3,190.9 403.8,184.2 414.4,192.9 425.0,192.0 435.6,192.7 446.2,187.6 456.7,179.4 467.3,182.4 477.9,191.8 488.5,194.8 499.0,194.7 509.6,198.6 520.2,197.1 530.8,204.0 541.3,200.9 551.9,196.6 562.5,184.4 573.1,185.1 583.7,178.7 594.2,183.2 604.8,187.4 615.4,192.2 626.0,193.0 636.5,200.6 647.1,210.8 657.7,198.0 668.3,199.7 678.8,199.8 689.4,198.7 700.0,201.2" fill="none" stroke="#3fb950" stroke-width="1.3" opacity="0.72" stroke-dasharray="628" stroke-dashoffset="628"><animate attributeName="stroke-dashoffset" values="628;628;0;0;628" keyTimes="0;0.309;0.649;0.94;1" dur="9.0s" repeatCount="indefinite" calcMode="linear"/></polyline><polyline points="150.0,224.8 160.6,225.9 171.2,220.0 181.7,218.6 192.3,212.6 202.9,219.0 213.5,216.5 224.0,221.4 234.6,228.1 245.2,224.3 255.8,223.1 266.3,219.4 276.9,216.1 287.5,226.4 298.1,223.6 308.7,213.5 319.2,212.6 329.8,207.2 340.4,199.1 351.0,188.5 361.5,203.2 372.1,205.0 382.7,205.9 393.3,207.4 403.8,201.2 414.4,208.3 425.0,221.6 435.6,220.2 446.2,221.6 456.7,216.0 467.3,210.0 477.9,207.9 488.5,200.3 499.0,207.8 509.6,208.2 520.2,215.6 530.8,205.3 541.3,206.8 551.9,201.3 562.5,198.7 573.1,194.4 583.7,188.3 594.2,181.4 604.8,176.5 615.4,175.9 626.0,171.1 636.5,183.4 647.1,189.0 657.7,180.0 668.3,176.5 678.8,185.4 689.4,193.1 700.0,200.2" fill="none" stroke="#3fb950" stroke-width="1.3" opacity="0.72" stroke-dasharray="637" stroke-dashoffset="637"><animate attributeName="stroke-dashoffset" values="637;637;0;0;637" keyTimes="0;0.327;0.667;0.94;1" dur="9.0s" repeatCount="indefinite" calcMode="linear"/></polyline><polyline points="150.0,224.8 160.6,226.8 171.2,222.4 181.7,222.6 192.3,218.6 202.9,225.4 213.5,226.0 224.0,225.1 234.6,223.0 245.2,219.2 255.8,218.7 266.3,214.3 276.9,207.6 287.5,204.9 298.1,211.6 308.7,215.2 319.2,219.8 329.8,211.5 340.4,207.1 351.0,206.8 361.5,210.1 372.1,213.3 382.7,205.1 393.3,206.1 403.8,209.5 414.4,213.8 425.0,210.1 435.6,220.1 446.2,223.0 456.7,219.8 467.3,215.5 477.9,212.3 488.5,214.0 499.0,209.5 509.6,200.2 520.2,205.0 530.8,209.7 541.3,211.7 551.9,211.2 562.5,214.0 573.1,217.4 583.7,229.1 594.2,224.7 604.8,230.0 615.4,229.9 626.0,232.4 636.5,229.0 647.1,235.1 657.7,240.5 668.3,240.1 678.8,239.8 689.4,242.2 700.0,240.3" fill="none" stroke="#f85149" stroke-width="1.3" opacity="0.38" stroke-dasharray="596" stroke-dashoffset="596"><animate attributeName="stroke-dashoffset" values="596;596;0;0;596" keyTimes="0;0.344;0.684;0.94;1" dur="9.0s" repeatCount="indefinite" calcMode="linear"/></polyline><polyline points="150.0,224.8 160.6,227.4 171.2,229.2 181.7,235.1 192.3,235.2 202.9,230.8 213.5,231.5 224.0,231.9 234.6,227.1 245.2,229.2 255.8,232.5 266.3,232.1 276.9,223.7 287.5,225.8 298.1,226.2 308.7,224.6 319.2,226.9 329.8,228.8 340.4,222.3 351.0,231.1 361.5,228.7 372.1,224.0 382.7,217.6 393.3,216.4 403.8,213.8 414.4,216.9 425.0,225.9 435.6,224.8 446.2,223.9 456.7,221.8 467.3,214.8 477.9,200.8 488.5,197.8 499.0,187.5 509.6,186.3 520.2,184.2 530.8,190.1 541.3,188.6 551.9,192.2 562.5,190.9 573.1,198.9 583.7,192.4 594.2,201.2 604.8,198.4 615.4,210.0 626.0,210.0 636.5,208.5 647.1,203.9 657.7,195.0 668.3,202.1 678.8,202.9 689.4,204.2 700.0,204.0" fill="none" stroke="#3fb950" stroke-width="1.3" opacity="0.72" stroke-dasharray="607" stroke-dashoffset="607"><animate attributeName="stroke-dashoffset" values="607;607;0;0;607" keyTimes="0;0.361;0.701;0.94;1" dur="9.0s" repeatCount="indefinite" calcMode="linear"/></polyline><polyline points="150.0,224.8 160.6,218.4 171.2,221.7 181.7,227.1 192.3,230.2 202.9,225.7 213.5,229.7 224.0,238.6 234.6,240.8 245.2,235.2 255.8,227.4 266.3,230.7 276.9,234.0 287.5,230.3 298.1,225.2 308.7,225.2 319.2,224.9 329.8,220.8 340.4,228.8 351.0,221.5 361.5,226.9 372.1,236.4 382.7,230.1 393.3,229.8 403.8,225.7 414.4,233.5 425.0,232.0 435.6,230.5 446.2,229.4 456.7,228.6 467.3,229.0 477.9,229.3 488.5,235.1 499.0,225.1 509.6,227.7 520.2,234.1 530.8,232.7 541.3,234.0 551.9,237.7 562.5,221.7 573.1,219.7 583.7,229.0 594.2,231.5 604.8,233.5 615.4,234.0 626.0,231.0 636.5,228.7 647.1,219.0 657.7,221.2 668.3,222.7 678.8,216.9 689.4,210.3 700.0,211.7" fill="none" stroke="#3fb950" stroke-width="1.3" opacity="0.72" stroke-dasharray="612" stroke-dashoffset="612"><animate attributeName="stroke-dashoffset" values="612;612;0;0;612" keyTimes="0;0.378;0.718;0.94;1" dur="9.0s" repeatCount="indefinite" calcMode="linear"/></polyline><polyline points="150.0,224.8 160.6,227.5 171.2,221.4 181.7,217.9 192.3,211.5 202.9,205.1 213.5,202.0 224.0,200.6 234.6,199.5 245.2,199.3 255.8,206.4 266.3,203.2 276.9,198.0 287.5,193.6 298.1,197.4 308.7,198.4 319.2,191.4 329.8,184.4 340.4,189.8 351.0,198.4 361.5,197.0 372.1,205.5 382.7,194.2 393.3,194.8 403.8,190.4 414.4,201.5 425.0,200.6 435.6,199.4 446.2,208.1 456.7,197.3 467.3,197.2 477.9,194.5 488.5,196.2 499.0,194.7 509.6,190.6 520.2,188.1 530.8,185.5 541.3,195.2 551.9,195.4 562.5,202.8 573.1,201.1 583.7,205.4 594.2,215.4 604.8,206.5 615.4,208.1 626.0,210.0 636.5,210.0 647.1,211.0 657.7,207.4 668.3,198.0 678.8,200.5 689.4,196.7 700.0,192.6" fill="none" stroke="#3fb950" stroke-width="1.3" opacity="0.72" stroke-dasharray="615" stroke-dashoffset="615"><animate attributeName="stroke-dashoffset" values="615;615;0;0;615" keyTimes="0;0.395;0.735;0.94;1" dur="9.0s" repeatCount="indefinite" calcMode="linear"/></polyline><polyline points="150.0,224.8 160.6,231.4 171.2,227.9 181.7,223.1 192.3,223.9 202.9,225.6 213.5,230.8 224.0,225.7 234.6,229.2 245.2,228.5 255.8,235.3 266.3,236.9 276.9,245.1 287.5,249.1 298.1,245.8 308.7,251.2 319.2,256.2 329.8,259.7 340.4,262.0 351.0,267.1 361.5,266.8 372.1,269.5 382.7,267.0 393.3,265.5 403.8,264.9 414.4,263.9 425.0,262.3 435.6,270.1 446.2,262.1 456.7,269.7 467.3,264.3 477.9,268.0 488.5,276.7 499.0,282.3 509.6,289.8 520.2,289.3 530.8,290.7 541.3,281.3 551.9,281.2 562.5,284.1 573.1,279.5 583.7,268.2 594.2,271.7 604.8,275.2 615.4,275.8 626.0,280.9 636.5,284.0 647.1,278.3 657.7,274.3 668.3,270.3 678.8,270.2 689.4,265.3 700.0,272.5" fill="none" stroke="#f85149" stroke-width="1.3" opacity="0.38" stroke-dasharray="604" stroke-dashoffset="604"><animate attributeName="stroke-dashoffset" values="604;604;0;0;604" keyTimes="0;0.413;0.753;0.94;1" dur="9.0s" repeatCount="indefinite" calcMode="linear"/></polyline><polyline points="150.0,224.8 160.6,217.7 171.2,226.0 181.7,231.4 192.3,229.8 202.9,236.0 213.5,235.2 224.0,234.2 234.6,229.3 245.2,230.3 255.8,230.2 266.3,231.9 276.9,232.7 287.5,234.4 298.1,235.0 308.7,232.8 319.2,227.4 329.8,226.4 340.4,241.7 351.0,240.8 361.5,249.7 372.1,254.8 382.7,252.6 393.3,263.9 403.8,267.1 414.4,266.7 425.0,267.3 435.6,269.7 446.2,275.7 456.7,268.5 467.3,274.5 477.9,277.7 488.5,275.2 499.0,275.0 509.6,272.4 520.2,267.5 530.8,272.2 541.3,270.4 551.9,273.6 562.5,273.5 573.1,274.2 583.7,277.7 594.2,277.6 604.8,281.3 615.4,269.9 626.0,259.2 636.5,259.0 647.1,265.8 657.7,277.0 668.3,283.9 678.8,279.3 689.4,284.0 700.0,285.6" fill="none" stroke="#f85149" stroke-width="1.3" opacity="0.38" stroke-dasharray="610" stroke-dashoffset="610"><animate attributeName="stroke-dashoffset" values="610;610;0;0;610" keyTimes="0;0.430;0.770;0.94;1" dur="9.0s" repeatCount="indefinite" calcMode="linear"/></polyline><polyline points="150.0,224.8 160.6,227.7 171.2,230.6 181.7,233.2 192.3,235.1 202.9,227.0 213.5,225.2 224.0,212.9 234.6,210.8 245.2,208.9 255.8,195.8 266.3,199.3 276.9,190.0 287.5,195.1 298.1,186.9 308.7,184.9 319.2,180.6 329.8,182.6 340.4,163.3 351.0,157.5 361.5,161.7 372.1,145.0 382.7,149.7 393.3,143.1 403.8,134.7 414.4,133.0 425.0,125.8 435.6,127.7 446.2,122.3 456.7,127.2 467.3,130.1 477.9,132.2 488.5,128.4 499.0,129.9 509.6,115.8 520.2,120.9 530.8,98.9 541.3,97.3 551.9,95.9 562.5,95.8 573.1,84.9 583.7,88.3 594.2,79.6 604.8,79.8 615.4,93.4 626.0,92.4 636.5,73.2 647.1,81.1 657.7,71.6 668.3,81.8 678.8,69.5 689.4,79.4 700.0,84.6" fill="none" stroke="#3fb950" stroke-width="1.3" opacity="0.72" stroke-dasharray="680" stroke-dashoffset="680"><animate attributeName="stroke-dashoffset" values="680;680;0;0;680" keyTimes="0;0.447;0.787;0.94;1" dur="9.0s" repeatCount="indefinite" calcMode="linear"/></polyline><polyline points="150.0,224.8 160.6,223.8 171.2,221.9 181.7,222.6 192.3,211.7 202.9,206.4 213.5,209.1 224.0,205.6 234.6,203.9 245.2,201.0 255.8,202.2 266.3,204.2 276.9,203.1 287.5,208.5 298.1,208.4 308.7,191.1 319.2,192.9 329.8,204.5 340.4,204.7 351.0,207.8 361.5,213.5 372.1,213.3 382.7,214.8 393.3,209.5 403.8,199.8 414.4,208.8 425.0,209.8 435.6,218.4 446.2,224.8 456.7,224.9 467.3,221.5 477.9,224.2 488.5,213.3 499.0,222.8 509.6,223.0 520.2,222.3 530.8,227.2 541.3,228.0 551.9,237.0 562.5,243.1 573.1,243.5 583.7,248.7 594.2,247.7 604.8,246.2 615.4,240.0 626.0,237.6 636.5,240.6 647.1,244.7 657.7,242.4 668.3,245.6 678.8,234.7 689.4,235.0 700.0,237.2" fill="none" stroke="#f85149" stroke-width="1.3" opacity="0.38" stroke-dasharray="614" stroke-dashoffset="614"><animate attributeName="stroke-dashoffset" values="614;614;0;0;614" keyTimes="0;0.464;0.804;0.94;1" dur="9.0s" repeatCount="indefinite" calcMode="linear"/></polyline><polyline points="150.0,224.8 160.6,229.7 171.2,230.2 181.7,231.9 192.3,230.0 202.9,233.9 213.5,236.8 224.0,237.9 234.6,240.2 245.2,245.4 255.8,246.0 266.3,247.1 276.9,248.4 287.5,247.1 298.1,252.6 308.7,252.7 319.2,249.8 329.8,249.6 340.4,250.2 351.0,253.6 361.5,255.7 372.1,262.0 382.7,252.3 393.3,250.4 403.8,248.1 414.4,243.5 425.0,243.2 435.6,241.9 446.2,241.2 456.7,246.0 467.3,256.2 477.9,253.2 488.5,247.6 499.0,244.7 509.6,245.4 520.2,242.2 530.8,237.3 541.3,230.9 551.9,228.7 562.5,223.1 573.1,232.6 583.7,227.5 594.2,223.0 604.8,228.9 615.4,229.0 626.0,226.1 636.5,219.3 647.1,214.4 657.7,207.3 668.3,207.0 678.8,206.9 689.4,203.6 700.0,207.8" fill="none" stroke="#3fb950" stroke-width="1.3" opacity="0.72" stroke-dasharray="590" stroke-dashoffset="590"><animate attributeName="stroke-dashoffset" values="590;590;0;0;590" keyTimes="0;0.481;0.821;0.94;1" dur="9.0s" repeatCount="indefinite" calcMode="linear"/></polyline><polyline points="150.0,224.8 160.6,230.1 171.2,226.7 181.7,227.7 192.3,227.6 202.9,221.3 213.5,234.6 224.0,236.0 234.6,232.0 245.2,233.3 255.8,225.7 266.3,232.4 276.9,233.5 287.5,236.5 298.1,239.0 308.7,245.0 319.2,245.8 329.8,250.5 340.4,255.2 351.0,252.8 361.5,253.1 372.1,259.1 382.7,259.5 393.3,257.3 403.8,253.6 414.4,253.4 425.0,247.6 435.6,248.6 446.2,252.2 456.7,255.2 467.3,254.5 477.9,265.8 488.5,258.7 499.0,255.4 509.6,258.2 520.2,259.7 530.8,257.3 541.3,249.6 551.9,256.7 562.5,251.9 573.1,250.5 583.7,253.2 594.2,251.2 604.8,255.6 615.4,262.8 626.0,270.8 636.5,262.0 647.1,264.5 657.7,266.5 668.3,267.4 678.8,269.5 689.4,274.0 700.0,271.3" fill="none" stroke="#f85149" stroke-width="1.3" opacity="0.38" stroke-dasharray="601" stroke-dashoffset="601"><animate attributeName="stroke-dashoffset" values="601;601;0;0;601" keyTimes="0;0.498;0.838;0.94;1" dur="9.0s" repeatCount="indefinite" calcMode="linear"/></polyline><polyline points="150.0,224.8 160.6,223.8 171.2,221.4 181.7,229.1 192.3,221.8 202.9,220.0 213.5,213.9 224.0,216.7 234.6,219.0 245.2,226.7 255.8,218.9 266.3,217.1 276.9,223.9 287.5,224.4 298.1,224.8 308.7,224.4 319.2,219.3 329.8,213.5 340.4,211.3 351.0,217.7 361.5,223.0 372.1,228.0 382.7,231.9 393.3,229.9 403.8,233.2 414.4,234.3 425.0,230.7 435.6,233.6 446.2,223.4 456.7,234.6 467.3,231.6 477.9,236.6 488.5,236.2 499.0,237.2 509.6,238.1 520.2,242.6 530.8,242.1 541.3,247.0 551.9,246.5 562.5,250.0 573.1,255.7 583.7,250.1 594.2,250.1 604.8,253.9 615.4,251.7 626.0,248.3 636.5,240.2 647.1,238.6 657.7,235.0 668.3,240.2 678.8,230.2 689.4,233.2 700.0,232.9" fill="none" stroke="#f85149" stroke-width="1.3" opacity="0.38" stroke-dasharray="601" stroke-dashoffset="601"><animate attributeName="stroke-dashoffset" values="601;601;0;0;601" keyTimes="0;0.516;0.856;0.94;1" dur="9.0s" repeatCount="indefinite" calcMode="linear"/></polyline><polyline points="150.0,224.8 160.6,223.7 171.2,219.1 181.7,218.9 192.3,219.4 202.9,218.9 213.5,209.9 224.0,203.2 234.6,199.0 245.2,195.4 255.8,201.2 266.3,203.7 276.9,210.8 287.5,199.3 298.1,209.9 308.7,217.5 319.2,222.4 329.8,225.2 340.4,234.7 351.0,240.7 361.5,236.7 372.1,245.1 382.7,240.2 393.3,238.3 403.8,242.3 414.4,255.7 425.0,259.2 435.6,259.5 446.2,262.6 456.7,264.4 467.3,264.2 477.9,265.1 488.5,257.2 499.0,254.5 509.6,248.7 520.2,248.0 530.8,259.4 541.3,260.8 551.9,260.1 562.5,265.6 573.1,262.7 583.7,262.1 594.2,270.4 604.8,266.3 615.4,264.5 626.0,264.9 636.5,268.3 647.1,263.8 657.7,274.7 668.3,277.3 678.8,272.5 689.4,266.6 700.0,264.7" fill="none" stroke="#f85149" stroke-width="1.3" opacity="0.38" stroke-dasharray="618" stroke-dashoffset="618"><animate attributeName="stroke-dashoffset" values="618;618;0;0;618" keyTimes="0;0.533;0.873;0.94;1" dur="9.0s" repeatCount="indefinite" calcMode="linear"/></polyline><text x="712" y="60" font-family="'SFMono-Regular',Consolas,monospace" font-size="10" fill="#8b949e">payoff dist.</text><rect x="712" y="282.7" width="35.4" height="8.8" rx="1.5" fill="#f85149" fill-opacity="0.5"/><rect x="712" y="272.5" width="76.6" height="8.8" rx="1.5" fill="#f85149" fill-opacity="0.5"/><rect x="712" y="262.2" width="101.4" height="8.8" rx="1.5" fill="#f85149" fill-opacity="0.5"/><rect x="712" y="251.9" width="130.2" height="8.8" rx="1.5" fill="#f85149" fill-opacity="0.5"/><rect x="712" y="241.6" width="173.9" height="8.8" rx="1.5" fill="#f85149" fill-opacity="0.5"/><rect x="712" y="231.4" width="178.0" height="8.8" rx="1.5" fill="#f85149" fill-opacity="0.5"/><rect x="712" y="221.1" width="174.7" height="8.8" rx="1.5" fill="#f85149" fill-opacity="0.5"/><rect x="712" y="210.8" width="162.3" height="8.8" rx="1.5" fill="#3fb950" fill-opacity="0.5"/><rect x="712" y="200.5" width="138.4" height="8.8" rx="1.5" fill="#3fb950" fill-opacity="0.5"/><rect x="712" y="190.3" width="112.1" height="8.8" rx="1.5" fill="#3fb950" fill-opacity="0.5"/><rect x="712" y="180.0" width="93.9" height="8.8" rx="1.5" fill="#3fb950" fill-opacity="0.5"/><rect x="712" y="169.7" width="78.3" height="8.8" rx="1.5" fill="#3fb950" fill-opacity="0.5"/><rect x="712" y="159.5" width="51.9" height="8.8" rx="1.5" fill="#3fb950" fill-opacity="0.5"/><rect x="712" y="149.2" width="41.2" height="8.8" rx="1.5" fill="#3fb950" fill-opacity="0.5"/><rect x="712" y="138.9" width="22.2" height="8.8" rx="1.5" fill="#3fb950" fill-opacity="0.5"/><rect x="712" y="128.6" width="16.5" height="8.8" rx="1.5" fill="#3fb950" fill-opacity="0.5"/><rect x="712" y="118.4" width="7.4" height="8.8" rx="1.5" fill="#3fb950" fill-opacity="0.5"/><rect x="712" y="108.1" width="12.4" height="8.8" rx="1.5" fill="#3fb950" fill-opacity="0.5"/><rect x="712" y="97.8" width="7.4" height="8.8" rx="1.5" fill="#3fb950" fill-opacity="0.5"/><rect x="712" y="87.5" width="1.6" height="8.8" rx="1.5" fill="#3fb950" fill-opacity="0.5"/><rect x="712" y="77.3" width="0.8" height="8.8" rx="1.5" fill="#3fb950" fill-opacity="0.5"/><rect x="712" y="67.0" width="1.6" height="8.8" rx="1.5" fill="#3fb950" fill-opacity="0.5"/><rect x="158" y="72" width="196" height="60" rx="9" fill="#0d1117" fill-opacity="0.86" stroke="#1b2230"/><text x="172" y="92" font-family="'SFMono-Regular',Consolas,monospace" font-size="11" fill="#8b949e">estimated fair value</text><text x="172" y="116" font-family="'SFMono-Regular',Consolas,monospace" font-size="22" font-weight="700" fill="#3fb950"><tspan x="172">$0.89<animate attributeName="opacity" values="0;0;1;1;0;0" keyTimes="0;0.0000;0.0000;0.0667;0.0668;1" dur="9.0s" repeatCount="indefinite" calcMode="discrete"/></tspan><tspan x="172">$10.62<animate attributeName="opacity" values="0;0;1;1;0;0" keyTimes="0;0.0666;0.0667;0.1333;0.1334;1" dur="9.0s" repeatCount="indefinite" calcMode="discrete"/></tspan><tspan x="172">$6.64<animate attributeName="opacity" values="0;0;1;1;0;0" keyTimes="0;0.1332;0.1333;0.2000;0.2001;1" dur="9.0s" repeatCount="indefinite" calcMode="discrete"/></tspan><tspan x="172">$6.65<animate attributeName="opacity" values="0;0;1;1;0;0" keyTimes="0;0.1999;0.2000;0.2667;0.2668;1" dur="9.0s" repeatCount="indefinite" calcMode="discrete"/></tspan><tspan x="172">$9.00<animate attributeName="opacity" values="0;0;1;1;0;0" keyTimes="0;0.2666;0.2667;0.3333;0.3334;1" dur="9.0s" repeatCount="indefinite" calcMode="discrete"/></tspan><tspan x="172">$9.55<animate attributeName="opacity" values="0;0;1;1;0;0" keyTimes="0;0.3332;0.3333;0.4000;0.4001;1" dur="9.0s" repeatCount="indefinite" calcMode="discrete"/></tspan><tspan x="172">$12.00<animate attributeName="opacity" values="0;0;1;1;0;0" keyTimes="0;0.3999;0.4000;0.4667;0.4668;1" dur="9.0s" repeatCount="indefinite" calcMode="discrete"/></tspan><tspan x="172">$10.51<animate attributeName="opacity" values="0;0;1;1;0;0" keyTimes="0;0.4666;0.4667;0.5333;0.5334;1" dur="9.0s" repeatCount="indefinite" calcMode="discrete"/></tspan><tspan x="172">$11.13<animate attributeName="opacity" values="0;0;1;1;0;0" keyTimes="0;0.5332;0.5333;0.6000;0.6001;1" dur="9.0s" repeatCount="indefinite" calcMode="discrete"/></tspan><tspan x="172">$10.14<animate attributeName="opacity" values="0;0;1;1;0;0" keyTimes="0;0.5999;0.6000;0.6667;0.6668;1" dur="9.0s" repeatCount="indefinite" calcMode="discrete"/></tspan><tspan x="172">$9.54<animate attributeName="opacity" values="0;0;1;1;0;0" keyTimes="0;0.6666;0.6667;0.7333;0.7334;1" dur="9.0s" repeatCount="indefinite" calcMode="discrete"/></tspan><tspan x="172">$9.44<animate attributeName="opacity" values="0;0;1;1;0;0" keyTimes="0;0.7332;0.7333;0.8000;0.8001;1" dur="9.0s" repeatCount="indefinite" calcMode="discrete"/></tspan><tspan x="172">$9.34<animate attributeName="opacity" values="0;0;1;1;0;0" keyTimes="0;0.7999;0.8000;0.8667;0.8668;1" dur="9.0s" repeatCount="indefinite" calcMode="discrete"/></tspan><tspan x="172">$9.02<animate attributeName="opacity" values="0;0;1;1;0;0" keyTimes="0;0.8666;0.8667;0.9333;0.9334;1" dur="9.0s" repeatCount="indefinite" calcMode="discrete"/></tspan><tspan x="172">$8.93<animate attributeName="opacity" values="0;0;1;1;0;0" keyTimes="0;0.9332;0.9333;1.0000;1.0000;1" dur="9.0s" repeatCount="indefinite" calcMode="discrete"/></tspan></text><text x="340" y="116" text-anchor="end" font-family="'SFMono-Regular',Consolas,monospace" font-size="10" fill="#8b949e"><tspan x="340">n = 3 paths<animate attributeName="opacity" values="0;0;1;1;0;0" keyTimes="0;0.0000;0.0000;0.0667;0.0668;1" dur="9.0s" repeatCount="indefinite" calcMode="discrete"/></tspan><tspan x="340">n = 5 paths<animate attributeName="opacity" values="0;0;1;1;0;0" keyTimes="0;0.0666;0.0667;0.1333;0.1334;1" dur="9.0s" repeatCount="indefinite" calcMode="discrete"/></tspan><tspan x="340">n = 8 paths<animate attributeName="opacity" values="0;0;1;1;0;0" keyTimes="0;0.1332;0.1333;0.2000;0.2001;1" dur="9.0s" repeatCount="indefinite" calcMode="discrete"/></tspan><tspan x="340">n = 13 paths<animate attributeName="opacity" values="0;0;1;1;0;0" keyTimes="0;0.1999;0.2000;0.2667;0.2668;1" dur="9.0s" repeatCount="indefinite" calcMode="discrete"/></tspan><tspan x="340">n = 21 paths<animate attributeName="opacity" values="0;0;1;1;0;0" keyTimes="0;0.2666;0.2667;0.3333;0.3334;1" dur="9.0s" repeatCount="indefinite" calcMode="discrete"/></tspan><tspan x="340">n = 34 paths<animate attributeName="opacity" values="0;0;1;1;0;0" keyTimes="0;0.3332;0.3333;0.4000;0.4001;1" dur="9.0s" repeatCount="indefinite" calcMode="discrete"/></tspan><tspan x="340">n = 55 paths<animate attributeName="opacity" values="0;0;1;1;0;0" keyTimes="0;0.3999;0.4000;0.4667;0.4668;1" dur="9.0s" repeatCount="indefinite" calcMode="discrete"/></tspan><tspan x="340">n = 89 paths<animate attributeName="opacity" values="0;0;1;1;0;0" keyTimes="0;0.4666;0.4667;0.5333;0.5334;1" dur="9.0s" repeatCount="indefinite" calcMode="discrete"/></tspan><tspan x="340">n = 144 paths<animate attributeName="opacity" values="0;0;1;1;0;0" keyTimes="0;0.5332;0.5333;0.6000;0.6001;1" dur="9.0s" repeatCount="indefinite" calcMode="discrete"/></tspan><tspan x="340">n = 233 paths<animate attributeName="opacity" values="0;0;1;1;0;0" keyTimes="0;0.5999;0.6000;0.6667;0.6668;1" dur="9.0s" repeatCount="indefinite" calcMode="discrete"/></tspan><tspan x="340">n = 377 paths<animate attributeName="opacity" values="0;0;1;1;0;0" keyTimes="0;0.6666;0.6667;0.7333;0.7334;1" dur="9.0s" repeatCount="indefinite" calcMode="discrete"/></tspan><tspan x="340">n = 610 paths<animate attributeName="opacity" values="0;0;1;1;0;0" keyTimes="0;0.7332;0.7333;0.8000;0.8001;1" dur="9.0s" repeatCount="indefinite" calcMode="discrete"/></tspan><tspan x="340">n = 987 paths<animate attributeName="opacity" values="0;0;1;1;0;0" keyTimes="0;0.7999;0.8000;0.8667;0.8668;1" dur="9.0s" repeatCount="indefinite" calcMode="discrete"/></tspan><tspan x="340">n = 1,500 paths<animate attributeName="opacity" values="0;0;1;1;0;0" keyTimes="0;0.8666;0.8667;0.9333;0.9334;1" dur="9.0s" repeatCount="indefinite" calcMode="discrete"/></tspan><tspan x="340">n = 2,000 paths<animate attributeName="opacity" values="0;0;1;1;0;0" keyTimes="0;0.9332;0.9333;1.0000;1.0000;1" dur="9.0s" repeatCount="indefinite" calcMode="discrete"/></tspan></text><text x="20" y="318" font-family="'Segoe UI',Arial,sans-serif" font-size="11" fill="#8b949e">converges to Black–Scholes closed form <tspan fill="#f0c674" font-weight="700">$8.92</tspan> — every path is SMIL-animated, zero JavaScript · regenerated daily</text></svg>